<svg width="40" height="40" viewBox="0 0 40 40" fill="none" xmlns="http://www.w3.org/2000/svg">
<path fill-rule="evenodd" clip-rule="evenodd" d="M38.5018 21.5366L33.1985 17.7267L30.1942 18.4673L33.8121 20.4158L32.561 22.6416L28.0426 18.998L21.9145 20.5109L26.4927 24.8198L31.7522 23.7743L32.1108 26.0436L28.0586 26.2931L30.3018 28.4079L37.1989 27.5802L37.3025 30.2574L31.9833 29.9881L35.2864 33.097L33.4376 35.1446L30.1464 31.798L30.6285 36.8832L27.7757 36.8475L28.5407 30.1703L26.2496 27.8376L26.2058 32.0673L23.8151 31.7307L24.7833 26.3762L20.4562 21.9723L19.1334 27.5168L22.5999 31.9683L20.7989 33.4257L18.5795 29.8614L17.8225 33.0297L22.0022 38.5743L19.7231 40L17.2886 35.2752L16.2407 39.6871L13.5352 39.1168L14.7903 34.6178L10.6106 37.5723L9.21606 35.097L15.4039 32.4238L16.2925 29.2554L12.5869 31.3703L11.6904 29.1604L16.9459 26.903L18.468 21.4614L12.9854 23.0851L10.8656 28.2337L8.71003 27.4059L10.7023 23.7584L7.54657 24.6693L4.82518 31.0059L2.43451 29.7545L5.31926 25.3228L0.964239 26.602L0.107581 23.9881L4.6937 22.8356L0 20.7089L1.4623 18.2693L6.92101 22.2891L10.1524 21.497L6.40303 19.3228L7.88126 17.4455L12.5431 20.895L17.9261 19.5208L13.7344 15.6L8.11635 16.2891L7.61829 13.9129L11.8418 13.8297L9.53481 11.6832L2.96045 12.5307L2.69748 9.80198L7.78564 10.0554L4.57018 7.06535L6.63811 4.8198L9.82568 8.13861L9.36747 3.17624L12.1167 3.32277L11.4474 9.80594L13.5113 11.9485L13.4874 7.92079L16.0494 7.88515L15.4079 13.9089L19.3685 18.0079L20.6873 12.4198L17.1252 7.94455L19.1174 6.28515L21.1973 10.1822L21.9942 6.81188L18.0098 1.58416L20.253 0L22.572 4.49901L23.5761 0.245546L26.5445 0.906931L25.2416 5.32277L29.3535 2.4198L30.5967 4.86733L24.5921 7.53267L23.6119 10.8634L27.2776 8.33663L28.5925 10.5228L22.9864 12.998L21.3448 18.5743L27.2537 16.7485L29.0746 11.4812L31.5171 12.3683L29.4093 16.1069L32.4853 15.1644L35.0513 9.0495L37.5615 10.1861L34.7724 14.4594L39.0079 13.1842L39.9243 16.0673L35.4418 17.1723L40 19.2436L38.5018 21.5366Z" fill="#404656"/>
</svg>
