<svg width="40" height="34" viewBox="0 0 40 34" fill="none" xmlns="http://www.w3.org/2000/svg">
<path fill-rule="evenodd" clip-rule="evenodd" d="M31.7975 34C26.9535 34 20.6784 33.9683 16.6286 33.9683C9.34822 33.9683 8.53253 24.3537 14.3926 22.2708C14.364 18.0415 16.7645 13.8122 21.6408 12.8007C20.3779 10.76 18.0632 9.35379 14.8183 9.7591C8.1855 10.5909 7.05857 18.1507 11.0476 21.5306L9.61654 23.3316C4.17146 18.7886 5.6812 8.4022 14.482 7.29906C19.301 6.69638 22.6175 9.22691 24.1236 12.5857C28.7029 12.6491 31.6902 15.1973 32.9889 18.4151C42.4695 19.3631 42.5875 34 31.7975 34ZM23.6335 7.87001L26.6279 5.07515L28.3845 7.00301L25.0001 9.46305L23.6335 7.87001ZM17.7663 5.28662L18.9039 0L21.2616 0.560381L19.7447 5.81176L17.7663 5.28662ZM9.1121 2.06531L11.6593 1.36042L12.9652 5.04696L11.0082 5.66021L9.1121 2.06531ZM1.33086 7.48938L2.64383 5.23023L7.14801 8.42687L6.13197 10.2772L1.33086 7.48938ZM4.25017 17.2731L0.0643959 17.6044L0 14.9329L4.07486 15.2501L4.25017 17.2731ZM7.3877 24.2867L3.25918 28.1248L1.57414 25.9115L6.01391 22.6972L7.3877 24.2867Z" fill="#404656"/>
</svg>
