<svg width="37" height="36" viewBox="0 0 37 36" fill="none" xmlns="http://www.w3.org/2000/svg">
<path d="M37.0005 19.7369L21.3069 20.4914L21.0584 22.7548L24.8265 22.7129L24.7437 25.7308L18.574 25.6469L19.1951 19.6531L26.6899 6.4917C22.1764 -2.10091 6.85553 -2.22666 2.21785 6.4917L9.62985 19.695L10.2924 25.5212L0.354492 25.3955L0.892794 35.7904H2.92178L4.37106 32.8144L30.3752 32.6049L31.7831 36H33.812L33.8535 25.8984L30.1682 25.8565L29.9197 22.7129L36.9176 22.6291L37.0005 19.7369ZM8.38762 11.0605L5.90315 6.82702C10.0853 1.7972 18.5325 1.96486 23.0874 6.61745L20.81 10.7671L15.841 10.8928L12.1143 5.82106L11.4518 6.40787L12.0315 10.9766L8.38762 11.0605Z" fill="#404656"/>
</svg>
