<svg width="70" height="28" viewBox="0 0 70 28" fill="none" xmlns="http://www.w3.org/2000/svg">
<path d="M12.7903 3.6099C11.9699 4.55566 10.6573 5.30162 9.34461 5.19505C9.18053 3.91627 9.82318 2.55756 10.5752 1.71836C11.3956 0.745956 12.8313 0.0532826 13.9936 0C14.1303 1.33206 13.5971 2.63749 12.7903 3.6099ZM13.9799 5.44814C12.0793 5.34158 10.4522 6.50048 9.54972 6.50048C8.63359 6.50048 7.25258 5.50143 5.7485 5.52807C3.7932 5.55471 1.97463 6.63368 0.976468 8.35205C-1.07455 11.7888 0.443204 16.8773 2.42585 19.6746C3.39667 21.0599 4.55891 22.5785 6.09033 22.5252C7.53972 22.4719 8.114 21.6061 9.8642 21.6061C11.6281 21.6061 12.134 22.5252 13.6654 22.4986C15.2515 22.4719 16.2497 21.1132 17.2205 19.7279C18.3281 18.156 18.7793 16.6242 18.8066 16.5442C18.7793 16.5176 15.7438 15.3853 15.7164 11.9753C15.6891 9.12464 18.1093 7.76594 18.2187 7.68601C16.8513 5.71456 14.7183 5.50143 13.9799 5.44814ZM24.9597 1.58516V22.352H28.2687V15.2521H32.8493C37.0333 15.2521 39.9731 12.4548 39.9731 8.40533C39.9731 4.35585 37.088 1.58516 32.9586 1.58516H24.9597ZM28.2687 4.30257H32.0835C34.955 4.30257 36.5958 5.79448 36.5958 8.41865C36.5958 11.0428 34.955 12.548 32.0699 12.548H28.2687V4.30257ZM46.0168 22.5119C48.0951 22.5119 50.0231 21.4862 50.8982 19.8611H50.9666V22.352H54.0294V12.0152C54.0294 9.01808 51.5682 7.08658 47.7807 7.08658C44.2666 7.08658 41.6686 9.04472 41.5729 11.7355H44.5537C44.7998 10.4567 46.0168 9.61751 47.6849 9.61751C49.7086 9.61751 50.8435 10.5366 50.8435 12.2284V13.3739L46.7141 13.6137C42.8719 13.8402 40.7935 15.372 40.7935 18.0362C40.7935 20.7269 42.9403 22.5119 46.0168 22.5119ZM46.9056 20.0476C45.1417 20.0476 44.0205 19.2217 44.0205 17.9562C44.0205 16.6508 45.1007 15.8915 47.1654 15.7716L50.8435 15.5452V16.7174C50.8435 18.6622 49.148 20.0476 46.9056 20.0476ZM58.1178 28C61.3447 28 62.8625 26.8011 64.1888 23.1646L70 7.28639H66.6363L62.7394 19.5547H62.671L58.7741 7.28639H55.3147L60.9208 22.4053L60.62 23.3245C60.1141 24.883 59.2937 25.4824 57.8306 25.4824C57.5708 25.4824 57.0649 25.4558 56.8598 25.4291V27.9201C57.0513 27.9734 57.8717 28 58.1178 28Z" fill="white"/>
</svg>
