<svg width="57" height="60" viewBox="0 0 57 60" fill="none" xmlns="http://www.w3.org/2000/svg">
<path fill-rule="evenodd" clip-rule="evenodd" d="M45.6302 18.8255L46.2492 40.3112L32.2108 49.3373L9.92373 43.4723L10.2216 22.2378L24.4954 13.2205L45.6302 18.8255ZM40.292 21.0783L35.1918 19.9181L26.6694 25.1716L31.0936 26.1667L40.292 21.0783ZM14.2786 39.8014L29.553 43.6777L29.4576 30.1003L24.3485 28.9169L24.085 35.3811L19.3973 34.1104L19.7246 27.8455L14.3816 26.6075L14.2786 39.8014ZM21.5089 24.0115L29.6813 18.6644L25.5103 17.7151L16.5803 22.9038L21.5089 24.0115ZM28.0673 60C14.2621 60 5.17563 53.5863 0.581932 44.9533L4.3343 42.7933C8.26783 50.2095 16.0642 55.7231 27.9163 55.7231C60.9835 55.7231 61.1969 4.27694 27.3371 4.27694C18.5539 4.27694 11.933 7.71446 7.56581 12.811L14.1139 13.5003L13.4695 17.3923L1.32582 16.6853L0 4.19641L4.02961 3.60609L4.53674 9.71405C9.63139 3.90091 17.2844 5.82168e-09 27.392 5.82168e-09C66.8804 -0.000682448 66.6326 60 28.0673 60Z" fill="#3F8167"/>
</svg>
