<svg width="60" height="40" viewBox="0 0 60 40" fill="none" xmlns="http://www.w3.org/2000/svg">
<path fill-rule="evenodd" clip-rule="evenodd" d="M47.5986 10.5565L49.2514 18.1724L59.9663 19.0394L60 31.0072L54.1703 33.1491C53.8724 29.0069 51.0503 24.9893 45.6872 24.9893C40.1555 24.9893 37.2098 29.4375 37.2997 33.8064H24.0663C24.0663 30.6502 22.5541 27.4655 19.6084 25.9299L36.2372 25.5162L36.597 5.52458L52.3939 5.90424L54.9742 10.3468L47.5986 10.5565ZM0.292327 4.84459C0.219245 2.47597 0.680221 -0.192986 5.04825 0.0110101C9.41628 0.215007 25.6235 0.175341 28.6592 0.175341C31.6949 0.175341 33.4601 1.84698 33.4601 6.07424C33.4601 12.3925 33.6513 23.5783 33.6513 23.5783L0.758925 23.1023C0.758925 23.1023 0.500328 11.7578 0.292327 4.84459ZM11.159 26.1452C10.0958 26.8074 9.19338 27.7014 8.5182 28.7614C7.84302 29.8215 7.41224 31.0207 7.25757 32.2708L0 30.8428L0.730817 26.4059L11.159 26.1452ZM15.5776 27.1199C23.8752 27.1199 24.0832 40 16.1398 40C6.75161 40 7.44308 27.1199 15.5832 27.1199H15.5776ZM15.8418 36.2487C19.1474 36.2487 19.0574 30.8768 15.6001 30.8768C12.1428 30.8768 11.9292 36.2487 15.8475 36.2487H15.8418ZM45.7041 27.1199C54.0017 27.1199 54.2153 40 46.2663 40C36.8781 40 37.5696 27.1199 45.7097 27.1199H45.7041ZM45.9683 36.2487C49.2739 36.2487 49.1895 30.8768 45.7322 30.8768C42.2749 30.8768 42.0556 36.2487 45.9739 36.2487H45.9683Z" fill="#3F8167"/>
</svg>
