<svg width="74" height="29" viewBox="0 0 74 29" fill="none" xmlns="http://www.w3.org/2000/svg">
<path d="M34.5287 14.1655V22.671H31.833V1.67506H38.9823C40.7069 1.64157 42.3645 2.29455 43.6202 3.50006C44.8759 4.62185 45.5792 6.24594 45.5457 7.92026C45.5792 9.61132 44.8759 11.2354 43.6202 12.3739C42.3645 13.5627 40.8241 14.1655 38.9991 14.1655H34.5287ZM34.5287 4.2535V11.587H39.0493C40.0539 11.6205 41.025 11.2187 41.7115 10.4987C43.1346 9.12577 43.1514 6.86544 41.7785 5.44227L41.7115 5.3753C41.025 4.6386 40.0539 4.23676 39.0493 4.27025L34.5287 4.2535ZM51.7574 7.83654C53.7498 7.83654 55.3237 8.37232 56.479 9.42714C57.6342 10.4987 58.2035 11.9554 58.2035 13.8139V22.6542H55.6251V20.6618H55.5079C54.3861 22.3026 52.9127 23.1231 51.0542 23.1231C49.4803 23.1231 48.1409 22.6542 47.086 21.7166C46.048 20.846 45.462 19.5568 45.4954 18.2006C45.4954 16.7104 46.0647 15.5384 47.1865 14.651C48.3083 13.7636 49.8152 13.3283 51.6904 13.3283C53.2978 13.3283 54.6037 13.6297 55.6418 14.1989V13.5795C55.6418 12.6586 55.24 11.7879 54.5368 11.2019C53.8168 10.5657 52.8959 10.2141 51.9416 10.2141C50.4347 10.2141 49.2459 10.8503 48.3585 12.1228L45.981 10.6327C47.2702 8.77416 49.1957 7.83654 51.7574 7.83654ZM48.2748 18.2675C48.2748 18.9708 48.6097 19.6237 49.1622 20.0256C49.7649 20.4944 50.5016 20.7455 51.2551 20.7288C52.3936 20.7288 53.4819 20.2767 54.2856 19.473C55.173 18.6359 55.6251 17.648 55.6251 16.5095C54.7879 15.8398 53.6159 15.5049 52.109 15.5049C51.0207 15.5049 50.0998 15.7728 49.3631 16.2918C48.6432 16.8276 48.2748 17.4806 48.2748 18.2675ZM73.0045 8.30535L63.9966 28.9999H61.2173L64.5659 21.7669L58.6388 8.32209H61.5689L65.8384 18.6359H65.9054L70.0744 8.32209L73.0045 8.30535Z" fill="white"/>
<path d="M23.6289 12.3239C23.6289 11.5035 23.5619 10.6831 23.4279 9.87939H12.0593V14.5173H18.5724C18.3045 16.0074 17.4339 17.3468 16.1614 18.184V21.1978H20.0458C22.3229 19.1049 23.6289 16.0074 23.6289 12.3239Z" fill="#4285F4"/>
<path d="M12.0593 24.1107C15.3075 24.1107 18.0534 23.0392 20.0458 21.1974L16.1614 18.1837C15.0731 18.9204 13.6834 19.3389 12.0593 19.3389C8.9116 19.3389 6.24943 17.2126 5.29507 14.3662H1.29346V17.4804C3.33612 21.5323 7.50517 24.1107 12.0593 24.1107Z" fill="#34A853"/>
<path d="M5.29501 14.3661C4.79272 12.8759 4.79272 11.2518 5.29501 9.74495V6.64746H1.2934C0.443122 8.3234 0 10.1762 0 12.0555C0 13.9348 0.443122 15.7876 1.2934 17.4636L5.29501 14.3661Z" fill="#FBBC04"/>
<path d="M12.0593 4.77253C13.7839 4.73905 15.4414 5.39203 16.6804 6.58079L20.1128 3.14844C17.9362 1.08903 15.0563 -0.0327577 12.0593 0.000728628C7.50517 0.000728628 3.33612 2.57918 1.29346 6.64777L5.29507 9.762C6.24944 6.89892 8.9116 4.77253 12.0593 4.77253Z" fill="#EA4335"/>
</svg>
