<svg width="126" height="30" viewBox="0 0 126 30" fill="none" xmlns="http://www.w3.org/2000/svg">
<path d="M101.927 8.44482C100.937 7.30968 99.1812 6.70898 96.8475 6.70898H89.8741C89.3981 6.70898 88.9922 7.04739 88.9172 7.50674L86.0975 24.9392C86.041 25.283 86.3146 25.5935 86.6704 25.5935H90.2491C90.5811 25.5935 90.8662 25.3567 90.9181 25.0343L91.7185 20.0932C91.7924 19.6331 92.1987 19.2951 92.6743 19.2951H94.8808C99.4746 19.2951 102.125 17.1284 102.817 12.8328C103.131 10.955 102.829 9.47837 101.927 8.44482ZM97.6514 13.0761C97.2709 15.5156 95.3599 15.5156 93.51 15.5156H92.4579L93.1977 10.9597C93.2416 10.6842 93.4831 10.4817 93.7706 10.4817H94.2532C95.5108 10.4817 96.6998 10.4817 97.3138 11.1816C97.6793 11.5992 97.7915 12.2192 97.6514 13.0761Z" fill="#179BD7"/>
<path d="M117.687 12.997H114.351C114.064 12.997 113.821 13.1999 113.778 13.4754L113.63 14.3863L113.396 14.0561C112.673 13.0327 111.062 12.6909 109.453 12.6909C105.764 12.6909 102.613 15.4161 101.999 19.2384C101.682 21.1448 102.132 22.9683 103.242 24.2401C104.262 25.4085 105.716 25.8957 107.448 25.8957C110.42 25.8957 112.068 24.0325 112.068 24.0325L111.92 24.9362C111.864 25.2828 112.137 25.5926 112.494 25.5926H115.501C115.977 25.5926 116.383 25.2536 116.458 24.7935L118.263 13.6514C118.319 13.3086 118.046 12.997 117.687 12.997ZM113.034 19.3343C112.713 21.1944 111.198 22.442 109.266 22.442C108.299 22.442 107.522 22.139 107.024 21.5644C106.531 20.9936 106.345 20.1823 106.5 19.2779C106.803 17.433 108.34 16.1436 110.242 16.1436C111.19 16.1436 111.96 16.4507 112.468 17.0307C112.98 17.6154 113.181 18.4329 113.034 19.3343Z" fill="#179BD7"/>
<path d="M125.42 6.70801H122.198C121.913 6.70903 121.668 6.91153 121.624 7.18707L118.763 24.9389C118.707 25.2827 118.98 25.5933 119.336 25.5933H122.213C122.691 25.5933 123.097 25.2555 123.17 24.7955L125.993 7.36273C126.049 7.01923 125.775 6.70801 125.42 6.70801Z" fill="#179BD7"/>
<path d="M52.1966 8.44482C51.2056 7.30968 49.4476 6.70898 47.114 6.70898H40.1413C39.6646 6.70898 39.2583 7.04739 39.184 7.50674L36.3639 24.9392C36.3082 25.283 36.581 25.5935 36.9389 25.5935H40.2678C40.7444 25.5935 41.1508 25.2558 41.225 24.7958L41.986 20.0932C42.0592 19.6331 42.4658 19.2951 42.9425 19.2951H45.1497C49.7424 19.2951 52.3935 17.1284 53.0852 12.8328C53.3971 10.955 53.0984 9.47837 52.1966 8.44482ZM47.9182 13.0761C47.537 15.5156 45.6253 15.5156 43.7771 15.5156H42.7251L43.4628 10.9597C43.5067 10.6842 43.7517 10.4817 44.0367 10.4817H44.519C45.778 10.4817 46.9655 10.4817 47.5795 11.1816C47.9457 11.5992 48.0576 12.2192 47.9182 13.0761Z" fill="#253B80"/>
<path d="M67.957 12.997H64.6173C64.333 12.997 64.0873 13.1999 64.0437 13.4754L63.8949 14.3863L63.6615 14.0561C62.9391 13.0327 61.3271 12.6909 59.719 12.6909C56.0291 12.6909 52.878 15.4161 52.2637 19.2384C51.9452 21.1448 52.3985 22.9683 53.5077 24.2401C54.5252 25.4085 55.9814 25.8957 57.7133 25.8957C60.686 25.8957 62.3349 24.0325 62.3349 24.0325L62.1861 24.9362C62.1297 25.2828 62.4032 25.5926 62.7593 25.5926H65.7669C66.2446 25.5926 66.6485 25.2536 66.7245 24.7935L68.5288 13.6514C68.5856 13.3086 68.3127 12.997 67.957 12.997ZM63.3019 19.3343C62.9795 21.1944 61.4658 22.442 59.5347 22.442C58.5649 22.442 57.7903 22.139 57.2923 21.5644C56.7989 20.9936 56.6114 20.1823 56.7686 19.2779C57.0693 17.433 58.6085 16.1436 60.51 16.1436C61.4585 16.1436 62.229 16.4507 62.737 17.0307C63.2461 17.6154 63.4475 18.4329 63.3019 19.3343Z" fill="#253B80"/>
<path d="M85.7381 12.9976H82.3827C82.0632 12.9976 81.7625 13.1528 81.5802 13.4121L76.9527 20.0588L74.9912 13.6723C74.8678 13.2728 74.4897 12.9982 74.0615 12.9982H70.7647C70.3636 12.9982 70.0859 13.3801 70.2134 13.7481L73.9089 24.3228L70.434 29.1046C70.1601 29.4807 70.4361 29.9999 70.9079 29.9999H74.2591C74.5762 29.9999 74.8755 29.8483 75.0553 29.5942L86.2151 13.8884C86.4831 13.5123 86.2081 12.9976 85.7381 12.9976Z" fill="#253B80"/>
<path d="M24.8607 8.64528C24.4917 8.23655 24.0342 7.89781 23.4986 7.62158C23.47 7.79928 23.438 7.98139 23.401 8.16826C23.3662 8.34255 23.3282 8.51243 23.2888 8.68027C22.0702 13.8722 18.6682 16.0979 14.2337 16.5661C13.9382 16.5974 13.6382 16.6205 13.3336 16.6364C12.9991 16.6541 12.6594 16.6623 12.3151 16.6623H9.50962C8.83535 16.6623 8.26771 17.1393 8.16247 17.7882L6.89024 25.6544L6.72577 26.6703L6.31946 29.1886C6.25081 29.6133 6.58743 29.9982 7.02788 29.9982H12.0039C12.5932 29.9982 13.0935 29.5806 13.1869 29.0143L13.2357 28.7673L14.1724 22.9699L14.2327 22.6509C14.3243 22.0821 14.8261 21.6652 15.4157 21.6652H16.16C20.9813 21.6652 24.7555 19.7571 25.8587 14.2333C26.3187 11.9267 26.0803 10.0002 24.8607 8.64528Z" fill="#179BD7"/>
<path d="M8.16206 17.7888L8.20805 17.5007L9.80296 7.65311C9.86464 7.26306 10.1215 6.94368 10.4675 6.7823C10.6253 6.70891 10.7996 6.66814 10.9839 6.66814H18.4796C19.3679 6.66814 20.1965 6.72522 20.9527 6.84447C21.1687 6.87811 21.3788 6.91684 21.5841 6.96067C21.7883 7.00586 21.9869 7.05512 22.1792 7.10949C22.2524 7.13089 22.3239 7.15264 22.3953 7.17438C22.4172 7.18152 22.4402 7.18763 22.4618 7.19511C22.4747 7.19953 22.4866 7.20428 22.4995 7.2087C22.8553 7.32591 23.188 7.46182 23.495 7.62015C23.4964 7.62083 23.4978 7.62049 23.4992 7.62151C23.8745 5.28803 23.4961 3.69999 22.2022 2.26145C20.776 0.678161 18.2019 0 14.9076 0H5.34475C4.67187 0 4.09761 0.477024 3.99376 1.12665L0.0101594 25.745C-0.0682443 26.2322 0.317153 26.6709 0.821028 26.6709H6.7243L6.88878 25.655L8.16206 17.7888Z" fill="#253B80"/>
<path d="M23.4959 7.62095C23.1886 7.46229 22.8561 7.32638 22.5004 7.20951C22.4875 7.20509 22.4756 7.20033 22.4627 7.19591C22.4408 7.18878 22.4181 7.18232 22.3962 7.17519C22.3247 7.15344 22.2533 7.1317 22.1801 7.11029C21.9874 7.05593 21.7888 7.00633 21.585 6.96148C21.3801 6.91765 21.1699 6.87892 20.9536 6.84528C20.1974 6.72602 19.3688 6.66895 18.4805 6.66895H10.9844C10.7997 6.66895 10.6255 6.70972 10.468 6.7831C10.122 6.94449 9.86518 7.26353 9.8035 7.65391L8.20859 17.5019L8.1626 17.7893C8.26783 17.141 8.83582 16.6637 9.50975 16.6637H12.3152C12.6595 16.6637 12.9992 16.6552 13.3338 16.6372C13.6383 16.6212 13.9383 16.5984 14.2338 16.5668C18.6687 16.099 22.0704 13.8725 23.2889 8.68135C23.3283 8.51351 23.3666 8.34362 23.4011 8.16933C23.4381 7.98212 23.4705 7.80035 23.4987 7.62265C23.498 7.62197 23.497 7.62129 23.4959 7.62095Z" fill="#222D65"/>
</svg>
