<svg width="75" height="90" viewBox="0 0 75 90" fill="none" xmlns="http://www.w3.org/2000/svg">
<path d="M58.5726 9.37259C53.9481 4.7481 51.6359 2.43585 48.6955 1.21793C45.7552 0 42.4852 0 35.9452 0H24C12.6863 0 7.02944 0 3.51472 3.51472C0 7.02944 0 12.6863 0 24V66C0 77.3137 0 82.9706 3.51472 86.4853C7.02944 90 12.6863 90 24 90H51C62.3137 90 67.9706 90 71.4853 86.4853C75 82.9706 75 77.3137 75 66V39.0548C75 32.5148 75 29.2448 73.7821 26.3045C72.5641 23.3641 70.2519 21.0519 65.6274 16.4274L58.5726 9.37259Z" fill="#EAE2E2"/>
<path d="M48.3128 2.14181C51.0267 3.26591 53.1833 5.39751 57.8655 10.0797L64.9203 17.1345C69.6025 21.8167 71.7341 23.9733 72.8582 26.6872C73.9823 29.401 74 32.4332 74 39.0548V66C74 71.6851 73.9979 75.8484 73.5696 79.034C73.1451 82.1909 72.3188 84.2376 70.7782 85.7782C69.2376 87.3188 67.1909 88.1451 64.034 88.5696C60.8484 88.9979 56.6851 89 51 89H24C18.3149 89 14.1516 88.9979 10.966 88.5696C7.80911 88.1451 5.76242 87.3188 4.22183 85.7782C2.68124 84.2376 1.85485 82.1909 1.43042 79.034C1.00212 75.8484 1 71.6851 1 66V24C1 18.3149 1.00212 14.1516 1.43042 10.966C1.85485 7.80911 2.68124 5.76242 4.22183 4.22183C5.76242 2.68124 7.80911 1.85485 10.966 1.43042C14.1516 1.00212 18.3149 1 24 1H35.9452C42.5668 1 45.599 1.0177 48.3128 2.14181Z" stroke="#813F4B" stroke-width="2"/>
<path d="M55.7124 36.3457C54.4034 34.2407 50.0676 33.7549 43.5229 34.8884C42.4594 33.9978 41.3141 32.8643 40.1687 31.6499C39.3507 30.7593 38.4508 29.4639 37.6327 28.0875C39.4325 21.9344 39.6779 17.8053 38.2053 15.7002C37.4691 14.5667 36.3237 14 34.8512 14C33.215 14 31.9879 14.8096 31.3334 16.186C30.0245 19.0197 31.9061 24.2013 34.1967 28.4114C33.6241 30.2735 32.806 32.4595 31.8243 34.8884C31.2516 36.1838 30.6789 37.4792 30.0245 38.6937C25.116 40.6368 19.7166 43.4705 19.0621 46.7899C18.8167 48.0853 19.3076 49.2998 20.3711 50.1904C21.0255 50.7571 21.7618 51 22.5799 51C22.9071 51 23.2344 50.919 23.5616 50.8381C26.5885 50.1094 29.7791 45.6565 32.2333 41.2845C33.6241 40.7987 35.1784 40.2319 36.9782 39.7462C39.1052 39.1794 40.905 38.6937 42.5412 38.3698C45.5681 40.7987 48.2678 42.0941 50.5584 42.0941C52.1128 42.0941 53.6671 41.4464 54.8125 40.3129C56.6123 38.4508 55.876 36.8315 55.7124 36.3457ZM22.6617 47.8424C22.4163 47.8424 22.3345 47.8424 22.0891 47.4376C22.2527 46.628 23.807 45.0897 27.0794 43.4705C25.4432 45.8993 23.807 47.5186 22.6617 47.8424ZM34.1149 17.4004C34.1149 17.3195 34.1967 17.1575 34.6876 17.1575C35.1784 17.1575 35.342 17.3195 35.4238 17.4814C35.9965 18.291 36.0783 20.3151 35.342 23.7155C34.1967 21.0438 33.6241 18.5339 34.1149 17.4004ZM36.0783 36.6696C35.5057 36.8315 34.933 36.9934 34.1967 37.2363C34.3603 36.8315 34.524 36.5077 34.6876 36.1028C35.2602 34.6455 35.7511 33.2691 36.2419 31.9737C36.8146 32.7024 37.3054 33.3501 37.7145 33.7549C38.369 34.4836 38.9416 35.1313 39.5961 35.698C38.5326 36.0219 37.3054 36.3457 36.0783 36.6696ZM52.6036 38.046C52.1946 38.6937 51.5401 38.9365 50.6402 38.8556C49.5767 38.8556 48.3496 38.3698 46.9588 37.5602C50.8857 37.1554 53.0127 37.3983 52.6036 38.046Z" fill="#813F4B"/>
<path d="M19 75V61H24.2621C25.3998 61 26.3412 61.1867 27.0861 61.56C27.8311 61.9333 28.3864 62.4467 28.7521 63.1C29.1178 63.7533 29.3007 64.4867 29.3007 65.3C29.3007 66.0733 29.1246 66.7867 28.7725 67.44C28.4203 68.08 27.8717 68.6 27.1268 69C26.3818 69.3867 25.4269 69.58 24.2621 69.58H21.6006V75H19ZM21.6006 67.5H24.0996C25.007 67.5 25.6572 67.3067 26.05 66.92C26.4563 66.52 26.6595 65.98 26.6595 65.3C26.6595 64.6067 26.4563 64.0667 26.05 63.68C25.6572 63.28 25.007 63.08 24.0996 63.08H21.6006V67.5Z" fill="#404656"/>
<path d="M32.3568 75V61H37.2126C38.8785 61 40.2466 61.2933 41.3166 61.88C42.4002 62.4533 43.1993 63.2667 43.714 64.32C44.2422 65.36 44.5063 66.5867 44.5063 68C44.5063 69.4133 44.2422 70.6467 43.714 71.7C43.1993 72.74 42.4002 73.5533 41.3166 74.14C40.2466 74.7133 38.8785 75 37.2126 75H32.3568ZM34.9574 72.8H37.0907C38.2826 72.8 39.2239 72.6133 39.9147 72.24C40.6055 71.8533 41.0999 71.3067 41.3979 70.6C41.6958 69.88 41.8448 69.0133 41.8448 68C41.8448 67 41.6958 66.14 41.3979 65.42C41.0999 64.7 40.6055 64.1467 39.9147 63.76C39.2239 63.3733 38.2826 63.18 37.0907 63.18H34.9574V72.8Z" fill="#404656"/>
<path d="M47.8167 75V61H57V63.06H50.4173V66.98H55.7403V69H50.4173V75H47.8167Z" fill="#404656"/>
</svg>
