<svg width="41" height="40" viewBox="0 0 41 40" fill="none" xmlns="http://www.w3.org/2000/svg">
<path d="M0.0117188 0H39.9124V21.5932L37.9374 24.6868L39.9124 27.4401V40H0.0117188V19.6443L1.24608 18.2212L0.0117188 16.86V0Z" fill="#016FD0"/>
<path d="M7.75733 27.8732V21.5932H14.3901L15.1018 22.5232L15.837 21.5932H39.9124V27.4401C39.9124 27.4401 39.2828 27.8669 38.5546 27.8732H25.2235L24.4212 26.8832V27.8732H21.792V26.1833C21.792 26.1833 21.4329 26.4192 20.6564 26.4192H19.7615V27.8732H15.7807L15.0701 26.9232L14.3485 27.8732L7.75733 27.8732ZM0.0117188 16.86L1.50744 13.3643H4.09416L4.94296 15.3224V13.3643H8.15849L8.66381 14.7796L9.15369 13.3643H23.588V14.0758C23.588 14.0758 24.3468 13.3643 25.5939 13.3643L30.2773 13.3807L31.1114 15.3132V13.3643H33.8024L34.543 14.4743V13.3643H37.2586V19.6443H34.543L33.8332 18.5305V19.6442H29.8797L29.4821 18.6543H28.4193L28.0281 19.6442H25.347C24.2739 19.6442 23.588 18.9472 23.588 18.9472V19.6442H19.5455L18.7431 18.6543V19.6443H3.71096L3.31364 18.6543H2.25412L1.85972 19.6442H0.0117188V16.86Z" fill="white"/>
<path d="M2.03693 14.1385L0.0195312 18.8407H1.33297L1.70521 17.8991H3.86922L4.2395 18.8407H5.5819L3.56634 14.1385H2.03693ZM2.78333 15.2328L3.44294 16.8783H2.12181L2.78333 15.2328ZM5.72074 18.8399V14.1377L7.58718 14.1446L8.67278 17.1764L9.73238 14.1377H11.5839V18.8399H10.4113V15.3751L9.16826 18.8399H8.13986L6.89338 15.3751V18.8399H5.72074ZM12.3863 18.8399V14.1377H16.2128V15.1895H13.5713V15.9938H16.1511V16.9838H13.5713V17.8191H16.2128V18.8399H12.3863ZM16.8917 14.1385V18.8407H18.0644V17.1702H18.5581L19.9641 18.8407H21.3971L19.8542 17.1083C20.4874 17.0547 21.1406 16.5099 21.1406 15.664C21.1406 14.6745 20.3659 14.1385 19.5012 14.1385H16.8917ZM18.0644 15.1903H19.4048C19.7264 15.1903 19.9602 15.4425 19.9602 15.6853C19.9602 15.9976 19.6572 16.1802 19.4222 16.1802H18.0644V15.1903ZM22.8166 18.8399H21.6193V14.1377H22.8166V18.8399ZM25.6556 18.8399H25.3972C24.1468 18.8399 23.3875 17.8523 23.3875 16.5081C23.3875 15.1308 24.1382 14.1377 25.7174 14.1377H27.0134V15.2514H25.67C25.029 15.2514 24.5756 15.7529 24.5756 16.5197C24.5756 17.4304 25.094 17.8129 25.8408 17.8129H26.1494L25.6556 18.8399ZM28.2073 14.1385L26.1899 18.8407H27.5034L27.8756 17.8991H30.0396L30.4099 18.8407H31.7522L29.7368 14.1385H28.2073ZM28.9537 15.2328L29.6133 16.8783H28.2922L28.9537 15.2328ZM31.8892 18.8399V14.1377H33.3801L35.2837 17.0921V14.1377H36.4563V18.8399H35.0137L33.0618 15.8082V18.8399H31.8892ZM8.55978 27.0688V22.3666H12.3863V23.4184H9.74474V24.2228H12.3245V25.2127H9.74474V26.048H12.3863V27.0688H8.55978ZM27.3097 27.0688V22.3666H31.1362V23.4184H28.4947V24.2228H31.0622V25.2127H28.4946V26.048H31.1362V27.0688H27.3097ZM12.5348 27.0688L14.3979 24.7468L12.4904 22.3666H13.9678L15.1038 23.838L16.2437 22.3666H17.6632L15.7808 24.7177L17.6474 27.0688H16.1702L15.0672 25.6207L13.991 27.0688H12.5348ZM17.7866 22.3674V27.0696H18.9901V25.5848H20.2245C21.2689 25.5848 22.0606 25.0293 22.0606 23.949C22.0606 23.0541 21.4397 22.3674 20.3768 22.3674H17.7866ZM18.9901 23.4309H20.29C20.6275 23.4309 20.8686 23.6382 20.8686 23.9722C20.8686 24.286 20.6287 24.5136 20.2862 24.5136H18.9901V23.4309ZM22.5698 22.3666V27.0688H23.7424V25.3983H24.2362L25.6422 27.0688H27.0752L25.5322 25.3365C26.1654 25.2829 26.8186 24.738 26.8186 23.8921C26.8186 22.9026 26.0439 22.3666 25.1793 22.3666H22.5698ZM23.7424 23.4184H25.0828C25.4044 23.4184 25.6383 23.6706 25.6383 23.9134C25.6383 24.2258 25.3352 24.4084 25.1002 24.4084H23.7424V23.4184ZM31.6793 27.0688V26.048H34.0262C34.3734 26.048 34.5238 25.8598 34.5238 25.6535C34.5238 25.4558 34.3739 25.256 34.0262 25.256H32.9656C32.0438 25.256 31.5305 24.693 31.5305 23.8477C31.5305 23.0937 32.0006 22.3666 33.3705 22.3666H35.654L35.1603 23.4246H33.1853C32.8077 23.4246 32.6915 23.6232 32.6915 23.8129C32.6915 24.0078 32.8351 24.2228 33.1235 24.2228H34.2345C35.2621 24.2228 35.708 24.8071 35.708 25.5723C35.708 26.3951 35.2111 27.0688 34.1785 27.0688H31.6793ZM35.9832 27.0688V26.048H38.33C38.6773 26.048 38.8276 25.8598 38.8276 25.6535C38.8276 25.4558 38.6778 25.256 38.33 25.256H37.2695C36.3477 25.256 35.8343 24.693 35.8343 23.8477C35.8343 23.0937 36.3045 22.3666 37.6743 22.3666H39.9579L39.4641 23.4246H37.4891C37.1116 23.4246 36.9954 23.6232 36.9954 23.8129C36.9954 24.0078 37.139 24.2228 37.4274 24.2228H38.5383C39.5659 24.2228 40.0119 24.8071 40.0119 25.5723C40.0119 26.3951 39.515 27.0688 38.4824 27.0688H35.9832Z" fill="#016FD0"/>
</svg>
