<svg width="103" height="22" viewBox="0 0 103 22" fill="none" xmlns="http://www.w3.org/2000/svg">
<path d="M55.0421 14.7064V10.1151C55.0421 8.38571 53.9402 7.22261 52.1649 7.20727C51.6592 7.17434 51.1538 7.27766 50.7016 7.50647C50.2494 7.73528 49.8668 8.0812 49.5938 8.50817C49.3449 8.09392 48.989 7.75445 48.5634 7.5255C48.1379 7.29656 47.6585 7.18662 47.1757 7.20727C46.7548 7.18612 46.3358 7.27526 45.96 7.46585C45.5842 7.65645 45.2647 7.94189 45.0331 8.29392V7.39094H43.4414V14.7064H45.0484V10.6507C45.0484 9.38047 45.7524 8.70721 46.839 8.70721C47.8949 8.70721 48.4307 9.39581 48.4307 10.6355V14.7064H50.0376V10.6507C50.0376 9.38047 50.7722 8.70721 51.8282 8.70721C52.9148 8.70721 53.4351 9.39581 53.4351 10.6355V14.7064H55.0421ZM64.0105 11.0486V7.39094H62.4188V8.27858C62.1471 7.92847 61.7955 7.64852 61.3934 7.46214C60.9914 7.27576 60.5505 7.18836 60.1077 7.20727C58.057 7.20727 56.4501 8.81434 56.4501 11.0486C56.4501 13.2831 58.057 14.8901 60.1077 14.8901C60.5505 14.909 60.9914 14.8216 61.3934 14.6352C61.7955 14.4488 62.1471 14.1689 62.4188 13.8188V14.7064H64.0105V11.0486ZM58.0877 11.0486C58.0877 9.76306 58.9294 8.70721 60.3068 8.70721C61.6229 8.70721 62.5105 9.71717 62.5105 11.0486C62.5105 12.3801 61.6229 13.3902 60.3068 13.3902C58.9294 13.3902 58.0877 12.3342 58.0877 11.0486ZM98.0679 7.19868C98.6054 7.19348 99.1387 7.29344 99.6378 7.49291C100.103 7.6785 100.527 7.95359 100.887 8.3026C101.24 8.64948 101.521 9.06375 101.712 9.52093C102.109 10.5006 102.109 11.5966 101.712 12.5763C101.521 13.0337 101.24 13.448 100.887 13.795C100.527 14.1439 100.103 14.419 99.6378 14.6045C98.628 14.9968 97.5079 14.9968 96.4981 14.6045C96.0336 14.4195 95.6104 14.1444 95.2529 13.795C94.9012 13.4471 94.6221 13.0329 94.4317 12.5763C94.0346 11.5966 94.0346 10.5007 94.4317 9.52093C94.6222 9.06454 94.9013 8.65045 95.2529 8.3026C95.6104 7.95315 96.0336 7.67796 96.4981 7.49291C96.9972 7.29344 97.5305 7.19348 98.0679 7.19868ZM98.0679 8.70364C97.7566 8.70085 97.4478 8.75924 97.159 8.87551C96.8868 8.98474 96.6399 9.14847 96.4333 9.35666C96.2253 9.56934 96.0617 9.82125 95.952 10.0977C95.7177 10.7101 95.7177 11.3875 95.952 11.9998C96.0617 12.2763 96.2253 12.5282 96.4333 12.7408C96.6399 12.949 96.8868 13.1128 97.159 13.2221C97.7433 13.4512 98.3925 13.4512 98.9768 13.2221C99.2498 13.1122 99.4979 12.9485 99.7064 12.7408C99.9163 12.5289 100.081 12.2769 100.192 11.9998C100.426 11.3875 100.426 10.7101 100.192 10.0977C100.081 9.82064 99.9162 9.5686 99.7064 9.35666C99.4979 9.14897 99.2498 8.98535 98.9768 8.87551C98.688 8.75924 98.3792 8.70085 98.0679 8.70364ZM72.6712 11.0486C72.656 8.76829 71.248 7.20727 69.1973 7.20727C67.0546 7.20727 65.5548 8.76829 65.5548 11.0486C65.5548 13.375 67.1158 14.8901 69.3044 14.8901C70.3963 14.9284 71.464 14.5634 72.304 13.8647L71.5235 12.6862C70.9191 13.1706 70.1706 13.4398 69.3961 13.4514C68.3707 13.4514 67.4372 12.977 67.2076 11.6608H72.6407C72.656 11.4619 72.6712 11.263 72.6712 11.0486ZM67.2229 10.4059C67.3913 9.34991 68.034 8.63063 69.1666 8.63063C70.192 8.63063 70.8501 9.27334 71.0184 10.4059H67.2229ZM80.063 7.97256C79.1621 7.43681 78.1262 7.17118 77.0786 7.20727C75.2268 7.20727 74.0331 8.09491 74.0331 9.5488C74.0331 10.7426 74.9208 11.4772 76.5582 11.7068L77.3082 11.8139C78.1805 11.9363 78.5938 12.1658 78.5938 12.5791C78.5938 13.1454 78.0121 13.4668 76.9256 13.4668C76.0516 13.4919 75.1945 13.2224 74.4921 12.7016L73.7423 13.9411C74.6694 14.5887 75.7799 14.9213 76.9103 14.8901C79.0222 14.8901 80.2466 13.8952 80.2466 12.5025C80.2466 11.217 79.2825 10.5436 77.6908 10.314L76.941 10.2069C76.2522 10.1151 75.7013 9.97743 75.7013 9.48772C75.7013 8.95199 76.2215 8.63063 77.094 8.63063C77.895 8.64268 78.6798 8.85864 79.3743 9.25813L80.063 7.97256ZM87.0222 7.39094H84.4206L84.4201 5.17188H82.8131L82.8136 7.39094H81.329V8.84486H82.8136V12.1812C82.8136 13.88 83.4717 14.8901 85.3541 14.8901C86.0573 14.8922 86.7469 14.6959 87.3436 14.3238L86.8846 12.9617C86.4577 13.2163 85.9733 13.3585 85.4765 13.375C84.6807 13.375 84.4206 12.8851 84.4206 12.1506V8.84486H87.0222V7.39094ZM92.5306 7.20727C92.1425 7.19583 91.7585 7.28932 91.4191 7.47786C91.0798 7.66641 90.7976 7.94304 90.6023 8.27858V7.39094H89.0259V14.7064H90.6175V10.6048C90.6175 9.39581 91.1378 8.72239 92.1786 8.72239C92.5191 8.71771 92.8571 8.78014 93.1734 8.9061L93.6631 7.40628C93.2996 7.27614 92.9166 7.20884 92.5306 7.20727Z" fill="white"/>
<path d="M23.1387 2.35205H13.5137V19.6484H23.1387V2.35205Z" fill="#7375CF"/>
<path d="M14.1256 11C14.1241 9.33423 14.5016 7.68995 15.2295 6.19163C15.9574 4.69332 17.0166 3.38024 18.327 2.3518C16.7043 1.0763 14.7554 0.283091 12.7032 0.062824C10.651 -0.157443 8.57818 0.204118 6.72173 1.1062C4.86529 2.00827 3.30009 3.41447 2.20505 5.16405C1.11001 6.91362 0.529297 8.93599 0.529297 11C0.529297 13.064 1.11001 15.0864 2.20505 16.836C3.30009 18.5855 4.86529 19.9917 6.72173 20.8938C8.57818 21.7959 10.651 22.1574 12.7032 21.9372C14.7554 21.7169 16.7043 20.9237 18.327 19.6482C17.0166 18.6198 15.9574 17.3067 15.2295 15.8084C14.5016 14.31 14.1241 12.6658 14.1256 11Z" fill="#EB001B"/>
<path d="M36.1233 11C36.1234 13.064 35.5427 15.0863 34.4478 16.8359C33.3528 18.5855 31.7876 19.9917 29.9312 20.8938C28.0748 21.7959 26.0021 22.1574 23.9499 21.9372C21.8977 21.7169 19.9489 20.9237 18.3262 19.6482C19.6354 18.6187 20.6938 17.3054 21.4216 15.8073C22.1494 14.3093 22.5275 12.6655 22.5275 11C22.5275 9.33449 22.1494 7.69073 21.4216 6.19265C20.6938 4.69456 19.6354 3.38128 18.3262 2.3518C19.9489 1.0763 21.8977 0.283085 23.9499 0.0628212C26.0021 -0.157443 28.0748 0.204134 29.9312 1.10622C31.7876 2.00831 33.3528 3.4145 34.4478 5.16408C35.5427 6.91366 36.1234 8.93602 36.1233 11Z" fill="#00A2E5"/>
</svg>
