<svg width="123" height="22" viewBox="0 0 123 22" fill="none" xmlns="http://www.w3.org/2000/svg">
<path d="M54.2438 14.7011V10.1098C54.2438 8.3804 53.1476 7.2173 51.3815 7.20196C50.8784 7.16903 50.3757 7.27236 49.9258 7.50117C49.4759 7.72998 49.0953 8.0759 48.8237 8.50287C48.5761 8.08862 48.222 7.74914 47.7987 7.5202C47.3753 7.29126 46.8984 7.18132 46.4181 7.20196C45.9994 7.18082 45.5825 7.26996 45.2087 7.46055C44.8348 7.65114 44.517 7.93659 44.2866 8.28861V7.38563H42.7031V14.7011H44.3018V10.6454C44.3018 9.37517 45.0022 8.70191 46.0831 8.70191C47.1336 8.70191 47.6666 9.39051 47.6666 10.6302V14.7011H49.2652V10.6454C49.2652 9.37517 49.9961 8.70191 51.0466 8.70191C52.1275 8.70191 52.6452 9.39051 52.6452 10.6302V14.7011H54.2438ZM77.9038 7.38563H75.3155V5.16657H73.7169V7.38563H72.24V8.83956H73.7169V12.1759C73.7169 13.8747 74.3716 14.8848 76.2442 14.8848C76.9438 14.8869 77.6298 14.6906 78.2235 14.3185L77.7668 12.9564C77.3422 13.211 76.8602 13.3532 76.366 13.3697C75.5743 13.3697 75.3155 12.8798 75.3155 12.1453V8.83956H77.9038V7.38563ZM91.4085 7.20196C91.0225 7.19053 90.6405 7.28402 90.3029 7.47257C89.9653 7.66112 89.6845 7.93774 89.4902 8.27327V7.38563H87.922V14.7011H89.5053V10.5995C89.5053 9.3905 90.0231 8.7171 91.0585 8.7171C91.3971 8.71242 91.7334 8.77484 92.0481 8.90079L92.5353 7.40097C92.1737 7.27083 91.7926 7.20353 91.4085 7.20196ZM70.9916 7.96726C70.0953 7.43151 69.0648 7.16588 68.0226 7.20196C66.1803 7.20196 64.9929 8.0896 64.9929 9.5435C64.9929 10.7373 65.8759 11.4719 67.5049 11.7015L68.251 11.8086C69.1188 11.931 69.5299 12.1605 69.5299 12.5738C69.5299 13.1401 68.9513 13.4614 67.8704 13.4614C67.0009 13.4866 66.1482 13.217 65.4495 12.6962L64.7035 13.9358C65.6258 14.5834 66.7306 14.916 67.8552 14.8848C69.9562 14.8848 71.1742 13.8899 71.1742 12.4972C71.1742 11.2116 70.2151 10.5383 68.6316 10.3087L67.8856 10.2016C67.2005 10.1098 66.6524 9.97213 66.6524 9.48242C66.6524 8.94669 67.1699 8.62533 68.0379 8.62533C68.8348 8.63738 69.6155 8.85334 70.3064 9.25282L70.9916 7.96726ZM113.409 7.20196C113.023 7.19052 112.641 7.284 112.303 7.47255C111.966 7.6611 111.685 7.93773 111.491 8.27327V7.38563H109.922V14.7011H111.506V10.5995C111.506 9.3905 112.024 8.7171 113.059 8.7171C113.398 8.7124 113.734 8.77482 114.049 8.90079L114.536 7.40097C114.174 7.27083 113.793 7.20353 113.409 7.20196ZM93.0072 11.0433C93.0072 13.2625 94.545 14.8848 96.8898 14.8848C97.8404 14.9328 98.7744 14.6216 99.5083 14.0124L98.7471 12.7268C98.1997 13.1463 97.5323 13.377 96.8439 13.3848C95.5803 13.3697 94.6516 12.4513 94.6516 11.0433C94.6516 9.63541 95.5803 8.71709 96.8439 8.70191C97.5323 8.70971 98.1997 8.94048 98.7471 9.35995L99.5083 8.07438C98.7744 7.46518 97.8404 7.15398 96.8898 7.20196C94.545 7.20196 93.0072 8.82422 93.0072 11.0433ZM107.837 11.0433V7.38563H106.253V8.27327C105.983 7.92317 105.633 7.64322 105.233 7.45684C104.833 7.27046 104.395 7.18306 103.954 7.20196C101.914 7.20196 100.315 8.80904 100.315 11.0433C100.315 13.2778 101.914 14.8848 103.954 14.8848C104.395 14.9037 104.833 14.8163 105.233 14.6299C105.633 14.4435 105.983 14.1636 106.253 13.8135V14.7011H107.837V11.0433ZM101.944 11.0433C101.944 9.75776 102.782 8.70191 104.152 8.70191C105.461 8.70191 106.344 9.71186 106.344 11.0433C106.344 12.3748 105.461 13.3848 104.152 13.3848C102.782 13.3848 101.944 12.3289 101.944 11.0433ZM82.8368 7.20196C80.7053 7.20196 79.2132 8.76299 79.2132 11.0433C79.2132 13.3697 80.7662 14.8848 82.9434 14.8848C84.0297 14.9231 85.0919 14.5581 85.9275 13.8594L85.151 12.6809C84.5498 13.1653 83.8051 13.4345 83.0347 13.4461C82.0146 13.4461 81.0859 12.9717 80.8575 11.6555H86.2625C86.2777 11.4566 86.2929 11.2577 86.2929 11.0433C86.2777 8.76299 84.877 7.20196 82.8368 7.20196ZM82.8063 8.62533C83.8265 8.62533 84.4811 9.26803 84.6486 10.4006H80.8727C81.0402 9.34461 81.6796 8.62533 82.8063 8.62533ZM122.529 11.0433V4.44727H120.945V8.27327C120.675 7.92318 120.325 7.64324 119.925 7.45686C119.526 7.27048 119.087 7.18307 118.647 7.20196C116.606 7.20196 115.008 8.80904 115.008 11.0433C115.008 13.2778 116.606 14.8848 118.647 14.8848C119.087 14.9037 119.526 14.8163 119.925 14.6299C120.325 14.4435 120.675 14.1636 120.945 13.8135V14.7011H122.529V11.0433ZM116.637 11.0433C116.637 9.75776 117.474 8.70191 118.844 8.70191C120.154 8.70191 121.037 9.71186 121.037 11.0433C121.037 12.3748 120.154 13.3848 118.844 13.3848C117.474 13.3848 116.637 12.3289 116.637 11.0433ZM63.1658 11.0433V7.38563H61.5824V8.27327C61.3121 7.92317 60.9623 7.64321 60.5623 7.45683C60.1624 7.27045 59.7238 7.18306 59.2833 7.20196C57.2432 7.20196 55.6446 8.80904 55.6446 11.0433C55.6446 13.2778 57.2432 14.8848 59.2833 14.8848C59.7238 14.9037 60.1624 14.8163 60.5623 14.6299C60.9623 14.4436 61.3121 14.1636 61.5824 13.8135V14.7011H63.1658V11.0433ZM57.2737 11.0433C57.2737 9.75776 58.1111 8.70191 59.4813 8.70191C60.7907 8.70191 61.6737 9.71186 61.6737 11.0433C61.6737 12.3748 60.7907 13.3848 59.4813 13.3848C58.1111 13.3848 57.2737 12.3289 57.2737 11.0433Z" fill="white"/>
<path d="M22.4854 2.35254H12.9102V19.6489H22.4854V2.35254Z" fill="#FF5F00"/>
<path d="M13.5261 11C13.5245 9.33423 13.9001 7.68995 14.6242 6.19163C15.3483 4.69331 16.4021 3.38024 17.7057 2.3518C16.0914 1.0763 14.1526 0.283091 12.111 0.062824C10.0694 -0.157443 8.00728 0.204118 6.16043 1.1062C4.31358 2.00827 2.75647 3.41447 1.66709 5.16404C0.577709 6.91362 0 8.93599 0 11C0 13.064 0.577709 15.0864 1.66709 16.8359C2.75647 18.5855 4.31358 19.9917 6.16043 20.8938C8.00728 21.7959 10.0694 22.1574 12.111 21.9372C14.1526 21.7169 16.0914 20.9237 17.7057 19.6482C16.4021 18.6197 15.3483 17.3067 14.6242 15.8084C13.9001 14.31 13.5246 12.6658 13.5261 11Z" fill="#EB001B"/>
<path d="M35.4024 11C35.4025 13.064 34.8249 15.0863 33.7355 16.8359C32.6462 18.5855 31.0892 19.9917 29.2423 20.8938C27.3955 21.7959 25.3335 22.1574 23.2919 21.9372C21.2503 21.7169 19.3116 20.9237 17.6973 19.6482C18.9997 18.6187 20.0527 17.3054 20.7767 15.8073C21.5007 14.3093 21.8769 12.6655 21.8769 11C21.8769 9.3345 21.5007 7.69073 20.7767 6.19265C20.0527 4.69457 18.9997 3.38128 17.6973 2.35181C19.3116 1.07631 21.2503 0.283086 23.2919 0.0628213C25.3335 -0.157443 27.3955 0.204134 29.2423 1.10622C31.0892 2.00831 32.6462 3.41451 33.7355 5.16409C34.8249 6.91366 35.4025 8.93602 35.4024 11Z" fill="#F79E1B"/>
</svg>
