<svg width="91" height="22" viewBox="0 0 91 22" fill="none" xmlns="http://www.w3.org/2000/svg">
<path fill-rule="evenodd" clip-rule="evenodd" d="M69.8901 9.58857C69.6196 11.3783 68.2627 11.3783 66.9502 11.3783H66.2035L66.7274 8.03682C66.7589 7.83493 66.9318 7.68614 67.1349 7.68614H67.4772C68.3703 7.68614 69.2143 7.68614 69.6494 8.19883C69.9097 8.5056 69.9884 8.96025 69.8901 9.58857ZM69.3188 4.91943H64.3692C64.0309 4.91943 63.7428 5.16749 63.6901 5.50428L61.6887 18.2887C61.6492 18.5408 61.8427 18.7689 62.0963 18.7689H64.6357C64.8726 18.7689 65.0744 18.5952 65.1111 18.3595L65.6787 14.7352C65.7315 14.3984 66.0195 14.1504 66.3579 14.1504H67.9241C71.1843 14.1504 73.0657 12.561 73.5575 9.4111C73.7789 8.03346 73.5664 6.95094 72.926 6.1931C72.2222 5.35997 70.9747 4.91943 69.3188 4.91943Z" fill="#0088FF"/>
<path fill-rule="evenodd" clip-rule="evenodd" d="M34.5892 9.58857C34.3188 11.3783 32.9618 11.3783 31.6496 11.3783H30.9029L31.4265 8.03682C31.4583 7.83493 31.6312 7.68614 31.834 7.68614H32.1764C33.0697 7.68614 33.9137 7.68614 34.3486 8.19883C34.609 8.5056 34.6878 8.96025 34.5892 9.58857ZM34.0182 4.91943H29.0686C28.7303 4.91943 28.4422 5.16749 28.3895 5.50428L26.3879 18.2887C26.3485 18.5408 26.5421 18.7689 26.7954 18.7689H29.1587C29.497 18.7689 29.7853 18.5208 29.838 18.1842L30.3781 14.7352C30.4306 14.3984 30.7189 14.1504 31.0573 14.1504H32.6235C35.8834 14.1504 37.7651 12.561 38.2569 9.4111C38.4783 8.03346 38.2658 6.95094 37.6254 6.1931C36.9214 5.35997 35.6739 4.91943 34.0182 4.91943Z" fill="white"/>
<path fill-rule="evenodd" clip-rule="evenodd" d="M45.5069 14.1786C45.278 15.5428 44.2029 16.4586 42.8318 16.4586C42.1444 16.4586 41.5941 16.2359 41.2404 15.8142C40.8898 15.396 40.7579 14.8004 40.8689 14.1372C41.0825 12.7853 42.1747 11.8399 43.5249 11.8399C44.198 11.8399 44.7443 12.0649 45.1052 12.4904C45.4682 12.9191 45.6108 13.5187 45.5069 14.1786ZM48.8098 9.53188H46.4398C46.2367 9.53188 46.0639 9.68045 46.0323 9.88279L45.928 10.5503L45.7623 10.3083C45.2491 9.55787 44.1053 9.30713 42.963 9.30713C40.3446 9.30713 38.1079 11.3059 37.6726 14.1094C37.4459 15.5078 37.7676 16.8443 38.5548 17.7771C39.278 18.6342 40.3101 18.9909 41.5398 18.9909C43.6504 18.9909 44.8209 17.6252 44.8209 17.6252L44.715 18.2887C44.6754 18.541 44.8689 18.7693 45.1225 18.7693H47.2569C47.5952 18.7693 47.8833 18.5215 47.936 18.1847L49.2173 10.0121C49.2569 9.75977 49.0633 9.53188 48.8098 9.53188Z" fill="white"/>
<path fill-rule="evenodd" clip-rule="evenodd" d="M80.8076 14.1786C80.5787 15.5428 79.5038 16.4586 78.1327 16.4586C77.4451 16.4586 76.895 16.2359 76.5411 15.8142C76.1905 15.396 76.0586 14.8004 76.1698 14.1372C76.3831 12.7853 77.4753 11.8399 78.8258 11.8399C79.4987 11.8399 80.0452 12.0649 80.4058 12.4904C80.7689 12.9191 80.9114 13.5187 80.8076 14.1786ZM84.1104 9.53188H81.7405C81.5374 9.53188 81.3646 9.68045 81.333 9.88279L81.2286 10.5503L81.0631 10.3083C80.5497 9.55787 79.4059 9.30713 78.2637 9.30713C75.6455 9.30713 73.4086 11.3059 72.9733 14.1094C72.7468 15.5078 73.0685 16.8443 73.8555 17.7771C74.5789 18.6342 75.6108 18.9909 76.8405 18.9909C78.951 18.9909 80.1215 17.6252 80.1215 17.6252L80.0159 18.2887C79.9761 18.541 80.1696 18.7693 80.4234 18.7693H82.5575C82.8959 18.7693 83.1839 18.5215 83.2369 18.1847L84.5179 10.0121C84.5575 9.75977 84.364 9.53188 84.1104 9.53188Z" fill="#0088FF"/>
<mask id="mask0" mask-type="alpha" maskUnits="userSpaceOnUse" x="0" y="0" width="91" height="22">
<path d="M0.0117188 21.9999H90.0117V0H0.0117188V21.9999Z" fill="white"/>
</mask>
<g mask="url(#mask0)">
<path fill-rule="evenodd" clip-rule="evenodd" d="M61.4336 9.53125H59.0514C58.8236 9.53125 58.6105 9.64508 58.4826 9.83488L55.1967 14.7102L53.8039 10.0253C53.717 9.73225 53.4491 9.53125 53.1453 9.53125H50.8036C50.5209 9.53125 50.3218 9.81135 50.413 10.0809L53.0361 17.8367L50.5689 21.3436C50.3752 21.6187 50.5707 21.9995 50.9055 21.9995H53.2854C53.511 21.9995 53.7221 21.8881 53.8507 21.7012L61.7728 10.1838C61.9623 9.90815 61.7666 9.53125 61.4336 9.53125Z" fill="white"/>
<path fill-rule="evenodd" clip-rule="evenodd" d="M86.9037 5.27057L84.8723 18.2887C84.8329 18.541 85.0264 18.7689 85.2798 18.7689H87.323C87.6613 18.7689 87.9494 18.5208 88.0021 18.1842L90.005 5.39986C90.0446 5.14755 89.8511 4.91943 89.5975 4.91943H87.3112C87.1081 4.91943 86.9352 5.06845 86.9037 5.27057Z" fill="#0088FF"/>
<path fill-rule="evenodd" clip-rule="evenodd" d="M9.37482 21.0943L10.0402 16.8444L10.0831 16.6089C10.1151 16.4041 10.2192 16.2167 10.376 16.0819C10.5329 15.947 10.7329 15.8726 10.9391 15.8726H11.4674C12.348 15.8726 13.1571 15.7778 13.8722 15.5909C14.6352 15.3917 15.3139 15.0813 15.8891 14.6693C16.4991 14.2323 17.0114 13.6674 17.412 12.9907C17.8346 12.2768 18.1449 11.4172 18.3345 10.4362C18.502 9.56989 18.5333 8.79435 18.4281 8.13085C18.3167 7.42993 18.0486 6.83186 17.6315 6.35278C17.3786 6.0626 17.055 5.81118 16.6697 5.60548L16.6606 5.60055L16.6603 5.58935C16.7949 4.72462 16.7898 4.00331 16.645 3.38239C16.4995 2.76012 16.205 2.20015 15.7439 1.67087C14.7885 0.574231 13.0507 0.0180664 10.5791 0.0180664H3.79123C3.56433 0.0180664 3.34411 0.0998553 3.17149 0.24842C2.99888 0.396984 2.88454 0.603361 2.84895 0.829233L0.0225587 18.884C-0.00324491 19.0487 0.043691 19.216 0.151355 19.3424C0.259018 19.4695 0.415619 19.5423 0.581119 19.5423H4.79223L4.78845 19.5625L4.49927 21.4098C4.47702 21.5534 4.51795 21.6991 4.6116 21.8093C4.70525 21.9198 4.84161 21.9834 4.98576 21.9834H8.51774C8.71594 21.9834 8.90791 21.9119 9.05851 21.7822C9.2091 21.6525 9.3092 21.4725 9.34012 21.2756L9.37482 21.0943Z" fill="white"/>
<path fill-rule="evenodd" clip-rule="evenodd" d="M6.95472 5.61206C6.99943 5.32591 7.18161 5.09175 7.42697 4.97321C7.53864 4.91943 7.6632 4.88941 7.79378 4.88941H13.1144C13.7449 4.88941 14.3326 4.93109 14.87 5.01825C15.0235 5.04313 15.1727 5.07181 15.318 5.1043C15.4632 5.13679 15.6041 5.17287 15.7404 5.2132C15.8087 5.23314 15.8757 5.25421 15.9417 5.27639C16.2055 5.36468 16.4511 5.46865 16.6771 5.58921C16.9436 3.87791 16.6753 2.71337 15.7564 1.65863C14.7447 0.497456 12.9171 0 10.5788 0H3.79088C3.31307 0 2.90621 0.350236 2.83169 0.825732L0.00530543 18.8805C-0.0505283 19.2367 0.222857 19.5587 0.580771 19.5587H4.77119L6.95472 5.61206Z" fill="white"/>
</g>
<path fill-rule="evenodd" clip-rule="evenodd" d="M16.678 5.58936C16.6578 5.71999 16.6353 5.85287 16.6086 5.98979C15.7137 10.6195 12.6511 12.2201 8.73959 12.2201H6.74782C6.27001 12.2201 5.86649 12.5705 5.79197 13.046L4.48288 21.4067C4.43417 21.7181 4.6733 22 4.98628 22H8.51848C8.93646 22 9.29237 21.6937 9.35755 21.2776L9.39225 21.0968L10.0576 16.8464L10.1005 16.6116C10.1657 16.1955 10.5216 15.8892 10.9396 15.8892H11.4679C14.8898 15.8892 17.5691 14.4887 18.3521 10.4387C18.6791 8.74641 18.5101 7.33381 17.645 6.34069C17.3834 6.04043 17.0577 5.79192 16.678 5.58936Z" fill="#0088FF"/>
<path fill-rule="evenodd" clip-rule="evenodd" d="M15.7403 5.21295C15.604 5.17262 15.4632 5.13654 15.3179 5.10405C15.1726 5.07156 15.0234 5.04288 14.8699 5.01801C14.3325 4.93084 13.7448 4.88916 13.1144 4.88916H7.79369C7.66311 4.88916 7.53855 4.91919 7.42688 4.97297C7.18152 5.0915 6.99934 5.32567 6.95463 5.61182L5.82372 12.8348L5.79102 13.0456C5.86553 12.5701 6.26905 12.2197 6.74686 12.2197H8.73864C12.6501 12.2197 15.7127 10.6191 16.6076 5.98939C16.6343 5.85248 16.6568 5.7196 16.677 5.58896C16.451 5.4684 16.2055 5.36443 15.9416 5.27614C15.8756 5.25396 15.8086 5.2329 15.7403 5.21295Z" fill="#AFDAFF"/>
</svg>
