<svg width="80" height="19" viewBox="0 0 80 19" fill="none" xmlns="http://www.w3.org/2000/svg">
<path fill-rule="evenodd" clip-rule="evenodd" d="M41.972 5.73408C41.972 3.85669 40.5894 0.363878 36.1069 0.349324C34.1568 0.349324 32.7015 1.23708 32.0174 1.83377V0.509411H29.0194V1.84832C28.2918 1.17887 27.3895 0.582178 26.4872 0.436645C25.5266 0.291111 24.5807 0.334771 23.4018 0.698605C22.4268 1.00423 21.801 1.46993 21.1897 2.18305C19.9381 0.713159 17.9589 0.422091 16.3871 0.363878C14.597 0.291111 12.7779 0.523965 11.3807 1.61547C10.0127 0.873246 8.29543 0.305664 6.38894 0.305664C4.7153 0.320217 3.11442 0.713159 1.96471 1.74645C1.55721 2.12484 1.36802 2.4159 1.16427 2.93983C0.756776 3.98767 0.931417 5.1956 1.38257 5.8214C2.22667 7.00022 3.15808 7.45138 4.84628 7.65512C6.33072 7.82976 7.36401 7.82976 8.45552 8.04806C8.97944 8.14994 9.44515 8.54288 9.44515 9.13957C9.44515 9.83813 8.51373 10.9733 6.28706 10.8132C4.42423 10.6822 3.72567 10.4057 1.96471 9.21234L0 10.9005C0 10.9005 0.334728 11.177 0.567582 11.3371C0.785883 11.4827 1.01874 11.6282 1.25159 11.7737C3.2454 12.9089 5.76314 13.3746 8.04802 12.9962C9.16863 12.807 10.231 12.4141 11.1479 11.7883C11.8901 12.3122 12.8652 13.2291 15.2228 13.1126C16.7073 13.0399 17.8133 13.0981 18.8466 11.8465V13.0981H21.7428V11.8465C21.7428 11.8465 22.1939 12.2394 22.5141 12.4432C24.3478 13.6075 27.273 13.1563 29.0049 11.7883V13.4037C28.9612 14.3933 28.088 15.0773 27.1712 15.4703C25.5849 16.1252 24.1586 15.5431 22.8634 14.5825L20.6658 16.1252C21.2625 16.751 21.801 17.1148 22.6451 17.5223C25.0173 18.6575 27.797 18.2791 29.7035 17.0857C30.9696 16.2998 31.4499 15.3393 31.7555 13.8549C31.9156 13.069 31.9301 12.4868 31.9592 11.8028C31.9592 11.7883 31.9592 11.7592 31.9592 11.7446C31.9883 11.7592 32.0174 11.7883 32.032 11.8028C32.6432 12.254 33.1817 12.5887 34.0113 12.8507C35.3502 13.2727 36.8637 13.3018 38.5519 12.8361C39.3378 12.6178 40.0364 12.2685 40.6622 11.8174C40.9969 11.57 41.3171 11.2789 41.6081 10.9733L39.7162 9.56162C39.0758 10.1146 38.1153 10.6677 37.0384 10.8132C35.7868 10.9733 34.3605 10.7404 33.5892 9.86724C33.1672 9.38698 33.0216 9.24144 33.0216 8.04806H41.972V5.73408ZM23.0235 6.60728C23.0526 5.92327 23.1108 5.18105 23.1835 4.45338C23.2126 4.1041 23.6201 3.6675 24.2023 3.34732C24.7262 3.05625 25.3811 2.83795 26.0215 2.83795C26.5017 2.83795 26.9965 2.92527 27.4477 3.11447C28.219 3.42009 28.8157 3.98767 28.8739 4.70079C28.9321 5.37024 28.9903 5.99604 29.0194 6.59273C29.0631 7.3495 29.034 8.06262 28.8885 8.74663C28.7866 9.18323 28.5828 9.56162 28.1462 9.9109C27.666 10.3184 26.9092 10.6677 26.0215 10.624C24.7699 10.5512 23.6638 10.0273 23.3291 9.31421C23.038 8.68841 22.9798 7.71334 23.0235 6.60728ZM17.726 10.6386C17.1002 10.8423 16.1106 10.9442 15.0628 10.8132C14.1895 10.6968 13.3455 10.6386 13.0107 9.80902C12.8215 9.35787 12.8652 8.95037 13.1563 8.55743C13.6074 7.96074 14.6553 7.84432 15.2956 7.82976H18.7448C18.8175 8.77573 19.1086 10.1874 17.726 10.6386ZM7.49499 5.48667C6.11242 5.4139 4.84628 5.3848 4.14771 4.80266C3.75477 4.46793 3.82754 3.50741 4.38057 3.15813C5.18101 2.66331 6.15608 2.67787 6.70911 2.70697C7.84427 2.76519 9.13953 3.15813 10.1728 3.87124L11.3807 2.70697C11.3807 2.70697 12.6469 3.92946 12.6469 3.87124C14.1313 2.79429 14.6407 2.79429 16.0233 2.79429C17.9007 2.79429 18.4537 3.17268 18.7302 3.60928C18.9048 3.8858 18.7302 5.55944 18.7302 5.55944C18.7302 5.55944 17.0711 5.6031 15.8632 5.54488C14.9172 5.50122 14.3787 5.48667 13.4182 5.66131C12.5596 5.80684 11.9774 6.0688 11.3807 6.59273C11.3807 6.59273 10.8714 6.21434 10.3183 5.95238C9.29961 5.45756 8.57194 5.54488 7.49499 5.48667ZM33.1381 5.70497C33.1381 4.94819 33.3273 4.3515 33.6329 3.87124C34.2587 2.93983 35.3502 2.53233 36.4126 2.53233C37.4604 2.53233 38.5374 2.92527 39.1777 3.78392C39.5415 4.26418 39.7598 4.90453 39.7598 5.69042H33.1381V5.70497Z" fill="#009A87"/>
<path fill-rule="evenodd" clip-rule="evenodd" d="M51.2567 1.32433C49.685 1.32433 48.5498 1.8337 47.8512 2.83788C47.1527 3.84207 46.8034 5.13732 46.8034 6.72364C46.8034 8.22263 47.1672 9.50333 47.8804 10.5512C48.608 11.599 49.7286 12.1229 51.2567 12.1229C52.6248 12.1229 53.6435 11.5845 54.3566 10.5221C55.0552 9.44512 55.419 8.19353 55.419 6.72364C55.419 5.25374 55.0697 3.9876 54.3712 2.9252C53.6726 1.84825 52.6393 1.32433 51.2567 1.32433ZM45.2607 0.378361H46.687V2.79422C47.0654 1.92102 47.6621 1.25156 48.477 0.756749C49.292 0.261934 50.2234 0.0145264 51.2713 0.0145264C53.1196 0.0145264 54.5312 0.654875 55.5209 1.92102C56.496 3.18716 56.9908 4.78804 56.9908 6.72364C56.9908 8.64468 56.496 10.231 55.5209 11.5117C54.5312 12.7924 53.1341 13.4327 51.2858 13.4327C50.2817 13.4327 49.3793 13.1999 48.5789 12.7196C47.7785 12.2394 47.2109 11.5554 46.8762 10.6822L46.8325 17.7697H45.2607V0.378361Z" fill="white"/>
<path fill-rule="evenodd" clip-rule="evenodd" d="M66.4943 6.14153C66.4069 6.27251 66.276 6.37438 66.0722 6.4617C65.8685 6.54902 65.3445 6.66545 64.4713 6.81098C63.5981 6.97107 62.5066 7.16026 61.1968 7.39312C59.887 7.80061 59.2321 8.54284 59.2321 9.61979C59.2321 10.3766 59.5086 10.9733 60.0617 11.439C60.6147 11.8901 61.2841 12.123 62.0555 12.123C63.278 12.123 64.3258 11.7591 65.1844 11.0315C66.0431 10.3038 66.4797 9.34327 66.4797 8.14989V6.14153H66.4943ZM58.2279 4.26414C58.2279 2.83791 58.6936 1.77551 59.6396 1.0624C60.5856 0.363835 61.8226 0 63.3653 0C64.7333 0 65.8393 0.291068 66.7271 0.887756C67.6003 1.48445 68.0369 2.54684 68.0369 4.0895V10.8277C68.0369 11.4535 68.3425 11.7591 68.9538 11.7591C69.1139 11.7591 69.2885 11.73 69.4486 11.6573V12.9671C69.143 13.0398 68.7937 13.0689 68.4444 13.0689C67.7022 13.0689 67.2219 12.8943 66.9745 12.545C66.7417 12.1957 66.6107 11.6282 66.6107 10.8568C65.9849 11.7446 65.3445 12.3995 64.6751 12.807C64.0056 13.2145 63.1033 13.4182 61.939 13.4182C60.6875 13.4182 59.6687 13.1126 58.8828 12.4868C58.0824 11.861 57.6895 10.9441 57.6895 9.70711C57.6895 8.60105 57.9951 7.77151 58.6063 7.23303C59.2176 6.69456 59.9161 6.35983 60.702 6.18519C61.4879 6.0251 62.463 5.86501 63.6272 5.73403C64.7915 5.60305 65.5628 5.45752 65.9412 5.29743C66.3196 5.1519 66.5088 4.68619 66.5088 3.90031C66.5088 2.92523 66.2177 2.24122 65.6356 1.86283C65.0535 1.48445 64.2385 1.29525 63.1906 1.29525C62.1719 1.29525 61.3569 1.54266 60.7311 2.02292C60.1053 2.50318 59.7997 3.2454 59.7997 4.24959H58.2279V4.26414Z" fill="white"/>
<path fill-rule="evenodd" clip-rule="evenodd" d="M68.7061 0.378323L70.3651 0.36377L74.5274 11.1624L78.4423 0.378323H79.9995L74.4837 15.019C74.0471 16.096 73.6105 16.8091 73.1885 17.1875C72.7664 17.5659 72.0824 17.7551 71.151 17.7551C70.5834 17.7551 70.1905 17.726 69.9722 17.6532V16.3434C70.3797 16.4162 70.729 16.4453 71.02 16.4453C71.7332 16.4453 72.228 16.2415 72.4899 15.834C72.7519 15.4265 72.9993 14.9754 73.2176 14.466L73.7561 13.0252L68.7061 0.378323Z" fill="white"/>
</svg>
