<svg width="51" height="16" viewBox="0 0 51 16" fill="none" xmlns="http://www.w3.org/2000/svg">
<path fill-rule="evenodd" clip-rule="evenodd" d="M46.2765 15.7573L45.7865 13.4454H40.6033L39.7611 15.7573H35.5187L41.5812 1.41674C41.8713 0.729581 42.5241 0.282373 43.3013 0.282373H46.7487L50.0117 15.7573H46.2765ZM43.8942 4.46303L41.7662 10.2746H45.1157L43.8942 4.46303ZM31.7828 3.27442C30.6156 3.42534 30.082 4.01582 30.0684 4.57014C30.0313 6.39513 35.7459 6.62117 35.7295 10.7045C35.7166 13.9218 32.9393 16 28.6934 16C26.889 15.9805 25.1467 15.6077 24.2017 15.1786L24.9346 11.7867C25.8746 12.22 27.0525 12.7965 29.0848 12.7638C30.2434 12.7471 31.4899 12.2874 31.5014 11.249C31.5085 10.5723 30.9806 10.0848 29.4055 9.32667C27.8769 8.58457 25.8439 7.3424 25.8696 5.11471C25.8918 2.1018 28.7019 0 32.6957 0C34.2522 0 35.503 0.335231 36.4752 0.683677L35.7673 3.96714C33.9579 3.14088 32.3607 3.2 31.7828 3.27442ZM17.3884 15.7566L20.7286 0.282373H24.7696L21.4287 15.7566H17.3884ZM8.17861 15.7566L4.957 3.40726C4.76199 2.64777 4.59198 2.36888 3.99766 2.04755C3.02618 1.52523 1.4218 1.0356 0.0117188 0.731667L0.106724 0.282373H6.98283C7.85788 0.282373 8.64578 0.859639 8.84579 1.85907L10.548 10.815L14.7504 0.282373H18.9957L12.4496 15.7566H8.17861Z" fill="white"/>
</svg>
