<svg width="200" height="200" viewBox="0 0 200 200" fill="none" xmlns="http://www.w3.org/2000/svg">
<path d="M200 0H0V200H200V0Z" fill="#F4F5F6"/>
<path d="M36.5443 54.9927H5.72622C4.85767 54.9927 4.15356 55.6968 4.15356 56.5653V78.6128C4.15356 79.4814 4.85767 80.1855 5.72622 80.1855H36.5443C37.4129 80.1855 38.117 79.4814 38.117 78.6128V56.5653C38.117 55.6968 37.4129 54.9927 36.5443 54.9927Z" fill="#C3C77F"/>
<path d="M36.5444 81.2035H5.72628C5.04356 81.2035 4.38865 80.933 3.90495 80.4512C3.42125 79.9694 3.14817 79.3155 3.14551 78.6328V56.5652C3.14551 55.8807 3.41741 55.2243 3.9014 54.7403C4.38539 54.2563 5.04182 53.9844 5.72628 53.9844H36.5444C37.2288 53.9844 37.8853 54.2563 38.3693 54.7403C38.8532 55.2243 39.1251 55.8807 39.1251 56.5652V78.6328C39.1225 79.3155 38.8494 79.9694 38.3657 80.4512C37.882 80.933 37.2271 81.2035 36.5444 81.2035ZM5.72628 56.0006C5.65215 56.0006 5.57873 56.0152 5.51024 56.0436C5.44175 56.072 5.37951 56.1135 5.32709 56.166C5.27467 56.2184 5.23308 56.2806 5.20471 56.3491C5.17634 56.4176 5.16174 56.491 5.16174 56.5652V78.6328C5.16433 78.7817 5.22464 78.9238 5.32996 79.0291C5.43527 79.1344 5.57737 79.1947 5.72628 79.1973H36.5444C36.6933 79.1947 36.8354 79.1344 36.9407 79.0291C37.046 78.9238 37.1063 78.7817 37.1089 78.6328V56.5652C37.1089 56.491 37.0943 56.4176 37.0659 56.3491C37.0376 56.2806 36.996 56.2184 36.9436 56.166C36.8911 56.1135 36.8289 56.072 36.7604 56.0436C36.6919 56.0152 36.6185 56.0006 36.5444 56.0006H5.72628Z" fill="#404656"/>
<path d="M16.4727 65.4065L19.3055 63.3197L20.7168 65.4065L23.963 61.4849L25.7977 63.4911V54.9927H16.4727V65.4065Z" fill="#D6AA30"/>
<path d="M15.4646 67.3923V53.9844H26.8059V66.0818L24.0033 63.0574L20.6362 67.0899L19.0535 64.751L15.4646 67.3923ZM19.5475 61.888L20.7975 63.7228L23.9328 59.9524L24.7897 60.9V56.0006H17.4808V63.4103L19.5475 61.888Z" fill="#404656"/>
<path d="M17.1681 73.5825H8.31689V75.5988H17.1681V73.5825Z" fill="#404656"/>
<path d="M10.6759 69.1367H8.31689V71.1529H10.6759V69.1367Z" fill="#404656"/>
<path d="M17.168 69.1367H12.2283V71.1529H17.168V69.1367Z" fill="#404656"/>
<path d="M70.5077 54.9927H39.6896C38.821 54.9927 38.1169 55.6968 38.1169 56.5653V78.6128C38.1169 79.4814 38.821 80.1855 39.6896 80.1855H70.5077C71.3762 80.1855 72.0803 79.4814 72.0803 78.6128V56.5653C72.0803 55.6968 71.3762 54.9927 70.5077 54.9927Z" fill="#C3C77F"/>
<path d="M70.5077 81.2035H39.6897C39.0069 81.2035 38.352 80.933 37.8683 80.4512C37.3846 79.9694 37.1116 79.3155 37.1089 78.6328V56.5652C37.1089 56.2262 37.1756 55.8906 37.3053 55.5775C37.435 55.2644 37.6251 54.9799 37.8648 54.7403C38.1044 54.5006 38.3889 54.3105 38.702 54.1808C39.0152 54.0511 39.3507 53.9844 39.6897 53.9844H70.5077C71.1922 53.9844 71.8486 54.2563 72.3326 54.7403C72.8166 55.2243 73.0885 55.8807 73.0885 56.5652V78.6328C73.0859 79.3155 72.8128 79.9694 72.3291 80.4512C71.8454 80.933 71.1905 81.2035 70.5077 81.2035ZM39.6897 56.0006C39.6155 56.0006 39.5421 56.0152 39.4736 56.0436C39.4051 56.072 39.3429 56.1135 39.2905 56.166C39.238 56.2184 39.1965 56.2806 39.1681 56.3491C39.1397 56.4176 39.1251 56.491 39.1251 56.5652V78.6328C39.1277 78.7817 39.188 78.9238 39.2933 79.0291C39.3987 79.1344 39.5407 79.1947 39.6897 79.1973H70.5077C70.6567 79.1947 70.7988 79.1344 70.9041 79.0291C71.0094 78.9238 71.0697 78.7817 71.0723 78.6328V56.5652C71.0723 56.491 71.0577 56.4176 71.0293 56.3491C71.0009 56.2806 70.9594 56.2184 70.9069 56.166C70.8545 56.1135 70.7923 56.072 70.7238 56.0436C70.6553 56.0152 70.5819 56.0006 70.5077 56.0006H39.6897Z" fill="#404656"/>
<path d="M50.436 65.4065L53.2688 63.3197L54.6802 65.4065L57.9263 61.4849L59.7611 63.4911V54.9927H50.436V65.4065Z" fill="#D6AA30"/>
<path d="M49.3977 67.3923V53.9844H60.7692V66.0818L57.9667 63.0574L54.5996 67.0899L53.0168 64.7611L49.3977 67.3923ZM53.4302 61.888L54.6802 63.7228L57.8054 59.9524L58.6724 60.9V56.0006H51.4139V63.4103L53.4302 61.888Z" fill="#404656"/>
<path d="M51.1315 73.5825H42.2803V75.5988H51.1315V73.5825Z" fill="#404656"/>
<path d="M44.6393 69.1367H42.2803V71.1529H44.6393V69.1367Z" fill="#404656"/>
<path d="M51.1317 69.1367H46.1919V71.1529H51.1317V69.1367Z" fill="#404656"/>
<path d="M36.5443 80.1855H5.72622C4.85767 80.1855 4.15356 80.8896 4.15356 81.7582V103.806C4.15356 104.674 4.85767 105.378 5.72622 105.378H36.5443C37.4129 105.378 38.117 104.674 38.117 103.806V81.7582C38.117 80.8896 37.4129 80.1855 36.5443 80.1855Z" fill="#C3C77F"/>
<path d="M36.5444 106.397H5.72628C5.0453 106.397 4.3919 106.127 3.90849 105.648C3.42508 105.168 3.15083 104.517 3.14551 103.836V81.7582C3.14817 81.0755 3.42125 80.4216 3.90495 79.9398C4.38865 79.458 5.04356 79.1875 5.72628 79.1875H36.5444C37.2271 79.1875 37.882 79.458 38.3657 79.9398C38.8494 80.4216 39.1225 81.0755 39.1251 81.7582V103.836C39.1198 104.517 38.8456 105.168 38.3622 105.648C37.8787 106.127 37.2254 106.397 36.5444 106.397ZM5.72628 81.1936C5.57829 81.1936 5.4362 81.2517 5.33061 81.3554C5.22502 81.4591 5.16438 81.6001 5.16174 81.7481V103.836C5.16433 103.985 5.22464 104.127 5.32996 104.232C5.43527 104.338 5.57737 104.398 5.72628 104.4H36.5444C36.6933 104.398 36.8354 104.338 36.9407 104.232C37.046 104.127 37.1063 103.985 37.1089 103.836V81.7582C37.1063 81.6102 37.0456 81.4692 36.94 81.3655C36.8345 81.2618 36.6924 81.2037 36.5444 81.2037L5.72628 81.1936Z" fill="#404656"/>
<path d="M16.4727 90.5991L19.3055 88.5123L20.7168 90.5991L23.963 86.6775L25.7977 88.6836V80.1953H16.4727V90.5991Z" fill="#D6AA30"/>
<path d="M15.4646 92.5853V79.1875H26.8059V91.2849L24.0033 88.2605L20.6362 92.293L19.0535 89.9441L15.4646 92.5853ZM19.5475 87.081L20.7975 88.9158L23.9328 85.1455L24.7897 86.0931V81.2037H17.4808V88.6033L19.5475 87.081Z" fill="#404656"/>
<path d="M17.1681 98.7749H8.31689V100.791H17.1681V98.7749Z" fill="#404656"/>
<path d="M10.6759 94.3296H8.31689V96.3458H10.6759V94.3296Z" fill="#404656"/>
<path d="M17.168 94.3296H12.2283V96.3458H17.168V94.3296Z" fill="#404656"/>
<path d="M72.0804 105.388H4.15356V110.661H72.0804V105.388Z" fill="#84694C"/>
<path d="M73.0885 111.669H3.14551V104.38H73.0885V111.669ZM5.16174 109.653H71.0723V106.397H5.16174V109.653Z" fill="#404656"/>
<path d="M72.0804 115.943H4.15356V121.215H72.0804V115.943Z" fill="#84694C"/>
<path d="M73.0885 122.224H3.14551V114.925H73.0885V122.224ZM5.16174 120.208H71.0723V116.942H5.16174V120.208Z" fill="#404656"/>
<path d="M11.0592 110.661H4.15356V115.933H11.0592V110.661Z" fill="#84694C"/>
<path d="M12.0976 116.941H3.14551V109.643H12.0976V116.941ZM5.19198 114.925H10.0813V111.659H5.16174L5.19198 114.925Z" fill="#404656"/>
<path d="M41.5745 110.661H34.6689V115.933H41.5745V110.661Z" fill="#84694C"/>
<path d="M42.5726 116.941H33.6609V109.643H42.5726V116.941ZM35.6771 114.925H40.5564V111.659H35.6771V114.925Z" fill="#404656"/>
<path d="M72.0801 110.661H65.1746V115.933H72.0801V110.661Z" fill="#84694C"/>
<path d="M73.0883 116.941H64.1665V109.643H73.0883V116.941ZM66.1827 114.925H71.0721V111.659H66.1827V114.925Z" fill="#404656"/>
<path d="M70.5077 80.1855H39.6896C38.821 80.1855 38.1169 80.8896 38.1169 81.7582V103.806C38.1169 104.674 38.821 105.378 39.6896 105.378H70.5077C71.3762 105.378 72.0803 104.674 72.0803 103.806V81.7582C72.0803 80.8896 71.3762 80.1855 70.5077 80.1855Z" fill="#C3C77F"/>
<path d="M70.5077 106.397H39.6897C39.0087 106.397 38.3553 106.127 37.8719 105.648C37.3885 105.168 37.1142 104.517 37.1089 103.836V81.7582C37.1116 81.0755 37.3846 80.4216 37.8683 79.9398C38.352 79.458 39.0069 79.1875 39.6897 79.1875H70.5077C71.1905 79.1875 71.8454 79.458 72.3291 79.9398C72.8128 80.4216 73.0859 81.0755 73.0885 81.7582V103.836C73.0832 104.517 72.8089 105.168 72.3255 105.648C71.8421 106.127 71.1887 106.397 70.5077 106.397ZM39.6897 81.1936C39.5417 81.1936 39.3996 81.2517 39.294 81.3554C39.1884 81.4591 39.1278 81.6001 39.1251 81.7481V103.836C39.1277 103.985 39.188 104.127 39.2933 104.232C39.3987 104.338 39.5407 104.398 39.6897 104.4H70.5077C70.6567 104.398 70.7988 104.338 70.9041 104.232C71.0094 104.127 71.0697 103.985 71.0723 103.836V81.7582C71.0696 81.6102 71.009 81.4692 70.9034 81.3655C70.7978 81.2618 70.6557 81.2037 70.5077 81.2037L39.6897 81.1936Z" fill="#404656"/>
<path d="M50.436 90.5991L53.2688 88.5123L54.6802 90.5991L57.9263 86.6775L59.7611 88.6836V80.1953H50.436V90.5991Z" fill="#D6AA30"/>
<path d="M49.3977 92.5853V79.1875H60.7692V91.2849L57.9667 88.2605L54.5996 92.293L53.0168 89.9642L49.3977 92.5853ZM53.4302 87.081L54.6802 88.9158L57.8054 85.1455L58.6724 86.0931V81.2037H51.4139V88.6033L53.4302 87.081Z" fill="#404656"/>
<path d="M51.1315 98.7749H42.2803V100.791H51.1315V98.7749Z" fill="#404656"/>
<path d="M44.6393 94.3296H42.2803V96.3458H44.6393V94.3296Z" fill="#404656"/>
<path d="M51.1317 94.3296H46.1919V96.3458H51.1317V94.3296Z" fill="#404656"/>
<path d="M115.661 68.3198H131.559L131.388 72.4934H140.753V68.4811H147.417H156.48L186.249 145.007H142.729L142.406 130.692L129.805 130.41L129.412 145.007H85.7502L115.661 68.3198Z" fill="#63646B"/>
<path d="M110.58 68.3198H115.661L85.7503 145.007H76.0925L110.58 68.3198Z" fill="#B5BBC7"/>
<path d="M162.085 68.3198H157.004L186.915 145.007H196.572L162.085 68.3198Z" fill="#B5BBC7"/>
<path d="M131.388 81.0826L130.43 107.445L141.711 107.213L140.985 80.6895L131.388 81.0826Z" fill="#F2F6F7"/>
<path d="M76.2941 145.733C76.126 145.733 75.9606 145.69 75.813 145.61C75.6654 145.529 75.5404 145.413 75.4492 145.272C75.358 145.13 75.3036 144.969 75.2909 144.801C75.2783 144.633 75.3078 144.465 75.3767 144.312L109.885 67.8965C109.939 67.7761 110.018 67.6676 110.114 67.5773C110.211 67.4871 110.325 67.4167 110.449 67.3704C110.573 67.3241 110.705 67.3026 110.837 67.3073C110.97 67.3119 111.1 67.3426 111.22 67.3975C111.341 67.4525 111.449 67.5306 111.539 67.6275C111.63 67.7243 111.7 67.838 111.746 67.9621C111.793 68.0861 111.814 68.218 111.81 68.3504C111.805 68.4827 111.774 68.6128 111.719 68.7333L77.2115 145.169C77.1276 145.34 76.9969 145.484 76.8345 145.584C76.6721 145.684 76.4847 145.735 76.2941 145.733Z" fill="#404656"/>
<path d="M85.952 145.733C85.8285 145.733 85.7058 145.713 85.5891 145.673C85.465 145.625 85.3516 145.553 85.2555 145.461C85.1593 145.369 85.0824 145.259 85.0289 145.137C84.9755 145.015 84.9467 144.884 84.9443 144.751C84.9418 144.618 84.9656 144.486 85.0145 144.362L114.724 67.9469C114.768 67.8182 114.838 67.6998 114.929 67.5988C115.02 67.4978 115.131 67.4163 115.254 67.3592C115.378 67.3021 115.511 67.2706 115.647 67.2666C115.783 67.2625 115.919 67.2861 116.045 67.3358C116.172 67.3855 116.287 67.4603 116.384 67.5558C116.481 67.6512 116.558 67.7653 116.61 67.8912C116.661 68.0171 116.687 68.1521 116.685 68.2881C116.683 68.4242 116.654 68.5584 116.599 68.6828L86.8896 145.098C86.8149 145.286 86.6856 145.446 86.5184 145.56C86.3512 145.673 86.1539 145.733 85.952 145.733Z" fill="#404656"/>
<path d="M195.847 145.733C195.653 145.733 195.463 145.676 195.3 145.571C195.138 145.465 195.009 145.315 194.929 145.138L160.452 68.7333C160.341 68.49 160.331 68.2126 160.425 67.9621C160.518 67.7116 160.707 67.5085 160.951 67.3975C161.194 67.2866 161.471 67.2768 161.722 67.3704C161.972 67.464 162.176 67.6532 162.286 67.8965L196.764 144.312C196.833 144.465 196.862 144.633 196.85 144.801C196.837 144.969 196.783 145.13 196.692 145.272C196.6 145.413 196.475 145.529 196.328 145.61C196.18 145.69 196.015 145.733 195.847 145.733Z" fill="#404656"/>
<path d="M186.189 145.733C185.987 145.733 185.79 145.673 185.622 145.56C185.455 145.446 185.326 145.286 185.251 145.098L155.542 68.6828C155.487 68.5584 155.458 68.4242 155.456 68.2881C155.454 68.1521 155.479 68.0171 155.531 67.8912C155.583 67.7653 155.66 67.6512 155.756 67.5558C155.853 67.4603 155.969 67.3855 156.095 67.3358C156.222 67.2861 156.357 67.2625 156.493 67.2666C156.629 67.2706 156.763 67.3021 156.887 67.3592C157.01 67.4163 157.121 67.4978 157.212 67.5988C157.303 67.6998 157.373 67.8182 157.417 67.9469L187.136 144.362C187.185 144.486 187.209 144.618 187.207 144.751C187.204 144.884 187.175 145.015 187.122 145.137C187.069 145.259 186.992 145.369 186.895 145.461C186.799 145.553 186.686 145.625 186.562 145.673C186.442 145.713 186.316 145.733 186.189 145.733Z" fill="#404656"/>
<path d="M140.763 73.5018H131.388C131.253 73.5026 131.119 73.4762 130.994 73.4243C130.869 73.3723 130.756 73.2959 130.662 73.1994C130.569 73.1032 130.496 72.9894 130.448 72.8648C130.399 72.7402 130.376 72.6072 130.379 72.4735L130.47 68.2899C130.477 68.0225 130.59 67.7687 130.783 67.5844C130.977 67.4001 131.236 67.3003 131.504 67.307C131.771 67.3136 132.025 67.4263 132.209 67.62C132.393 67.8138 132.493 68.0729 132.486 68.3403L132.416 71.4856H139.725L139.654 68.3403C139.654 68.0729 139.76 67.8165 139.949 67.6274C140.138 67.4384 140.395 67.3322 140.662 67.3322C140.93 67.3322 141.186 67.4384 141.375 67.6274C141.564 67.8165 141.67 68.0729 141.67 68.3403L141.771 72.524C141.773 72.6583 141.749 72.7917 141.698 72.9164C141.648 73.041 141.573 73.1544 141.479 73.2498C141.282 73.4238 141.025 73.5142 140.763 73.5018Z" fill="#404656"/>
<path d="M141.711 108.453H130.43C130.162 108.453 129.906 108.347 129.717 108.158C129.528 107.969 129.422 107.712 129.422 107.445L130.147 80.6492C130.147 80.3819 130.254 80.1254 130.443 79.9364C130.632 79.7473 130.888 79.6411 131.156 79.6411H140.985C141.252 79.6411 141.509 79.7473 141.698 79.9364C141.887 80.1254 141.993 80.3819 141.993 80.6492L142.719 107.405C142.719 107.672 142.612 107.928 142.423 108.117C142.234 108.307 141.978 108.413 141.711 108.413V108.453ZM131.468 106.437H140.672L139.997 81.6573H132.144L131.468 106.437Z" fill="#404656"/>
<path d="M142.729 146.015C142.462 146.015 142.205 145.909 142.016 145.72C141.827 145.531 141.721 145.275 141.721 145.007L141.348 131.166H130.793L130.42 145.007C130.42 145.275 130.314 145.531 130.125 145.72C129.936 145.909 129.679 146.015 129.412 146.015C129.145 146.015 128.888 145.909 128.699 145.72C128.51 145.531 128.404 145.275 128.404 145.007L128.807 130.198C128.807 129.931 128.913 129.674 129.102 129.485C129.291 129.296 129.548 129.19 129.815 129.19H142.326C142.593 129.19 142.85 129.296 143.039 129.485C143.228 129.674 143.334 129.931 143.334 130.198L143.737 145.007C143.737 145.275 143.631 145.531 143.442 145.72C143.253 145.909 142.996 146.015 142.729 146.015Z" fill="#404656"/>
</svg>
