<svg width="200" height="200" viewBox="0 0 200 200" fill="none" xmlns="http://www.w3.org/2000/svg">
<path d="M200 0H0V200H200V0Z" fill="#F4F5F6"/>
<path d="M79.4396 137.789H59.8721V124.431H73.532L79.4396 129.401V137.789Z" fill="#016FD0"/>
<path d="M80.4478 138.797H58.8237V123.423H73.9455L80.4881 128.928L80.4478 138.797ZM60.8803 136.781H78.4316V129.865L73.1692 125.44H60.84L60.8803 136.781Z" fill="#404656"/>
<path d="M69.2576 96.708H63.4307V124.431H69.2576V96.708Z" fill="#016FD0"/>
<path d="M70.2657 125.44H62.4226V95.7002H70.2657V125.44ZM64.4388 123.423H68.2495V97.7164H64.4388V123.423Z" fill="#404656"/>
<path d="M79.4294 132.517V137.789H89.0065V132.517H79.4294Z" fill="#016FD0"/>
<path d="M90.0753 138.797H78.4819V131.509H90.0753V138.797ZM80.4982 136.781H88.059V133.525H80.4982V136.781Z" fill="#404656"/>
<path d="M69.6508 143.062C73.2252 143.062 76.1229 140.164 76.1229 136.59C76.1229 133.015 73.2252 130.118 69.6508 130.118C66.0764 130.118 63.1787 133.015 63.1787 136.59C63.1787 140.164 66.0764 143.062 69.6508 143.062Z" fill="#F4F5F6"/>
<path d="M69.6509 144.08C68.1695 144.08 66.7213 143.64 65.4896 142.817C64.2578 141.994 63.2977 140.825 62.7308 139.456C62.1639 138.087 62.0156 136.581 62.3046 135.128C62.5936 133.675 63.307 132.341 64.3545 131.293C65.4021 130.245 66.7367 129.532 68.1897 129.243C69.6426 128.954 71.1487 129.102 72.5174 129.669C73.886 130.236 75.0559 131.196 75.8789 132.428C76.7019 133.66 77.1413 135.108 77.1413 136.589C77.1413 137.573 76.9475 138.547 76.5711 139.456C76.1947 140.365 75.6429 141.19 74.9474 141.886C74.2519 142.581 73.4261 143.133 72.5174 143.51C71.6086 143.886 70.6346 144.08 69.6509 144.08ZM69.6509 131.125C68.5678 131.125 67.5091 131.447 66.6087 132.049C65.7083 132.651 65.0066 133.506 64.5926 134.507C64.1786 135.508 64.0708 136.609 64.2828 137.671C64.4948 138.733 65.0172 139.709 65.7838 140.474C66.5503 141.239 67.5267 141.76 68.5892 141.97C69.6517 142.18 70.7527 142.07 71.7528 141.654C72.7529 141.238 73.6071 140.535 74.2074 139.633C74.8076 138.732 75.127 137.673 75.125 136.589C75.125 135.871 74.9833 135.16 74.7081 134.496C74.4329 133.833 74.0295 133.23 73.5211 132.722C73.0126 132.215 72.4091 131.812 71.745 131.538C71.081 131.264 70.3693 131.124 69.6509 131.125Z" fill="#404656"/>
<path d="M69.6508 137.235C70.0071 137.235 70.296 136.946 70.296 136.59C70.296 136.233 70.0071 135.944 69.6508 135.944C69.2945 135.944 69.0056 136.233 69.0056 136.59C69.0056 136.946 69.2945 137.235 69.6508 137.235Z" fill="#F4F5F6"/>
<path d="M69.6509 138.243C69.3239 138.243 69.0042 138.146 68.7323 137.965C68.4605 137.783 68.2485 137.525 68.1234 137.223C67.9983 136.92 67.9655 136.588 68.0293 136.267C68.0931 135.947 68.2506 135.652 68.4818 135.421C68.713 135.19 69.0076 135.032 69.3283 134.968C69.649 134.904 69.9815 134.937 70.2836 135.062C70.5857 135.188 70.8439 135.399 71.0256 135.671C71.2072 135.943 71.3042 136.263 71.3042 136.59C71.3055 136.807 71.2637 137.023 71.1811 137.224C71.0985 137.425 70.9767 137.608 70.8229 137.762C70.6691 137.916 70.4864 138.037 70.2852 138.12C70.084 138.203 69.8684 138.244 69.6509 138.243ZM69.6509 136.227C69.6032 136.227 69.556 136.236 69.512 136.255C69.468 136.273 69.428 136.3 69.3943 136.333C69.3606 136.367 69.3338 136.407 69.3156 136.451C69.2974 136.495 69.288 136.542 69.288 136.59C69.2879 136.687 69.3258 136.78 69.3936 136.85C69.4614 136.92 69.5537 136.96 69.6509 136.963C69.749 136.96 69.8424 136.92 69.9118 136.851C69.9812 136.781 70.0213 136.688 70.0239 136.59C70.0212 136.493 69.9808 136.4 69.9111 136.333C69.8415 136.265 69.7481 136.227 69.6509 136.227Z" fill="#404656"/>
<path d="M73.26 90.0151L69.2275 97.3038H63.4006L59.3682 90.0151V85.0753C59.3682 84.7242 59.5069 84.3872 59.7543 84.1379C60.0017 83.8887 60.3376 83.7473 60.6888 83.7446H71.9293C72.2822 83.7446 72.6207 83.8848 72.8702 84.1344C73.1198 84.3839 73.26 84.7224 73.26 85.0753V90.0151Z" fill="#016FD0"/>
<path d="M69.9127 98.3117H62.8559L58.4504 90.2468V85.0752C58.4504 84.4566 58.6955 83.8632 59.1319 83.4249C59.5683 82.9866 60.1606 82.739 60.7792 82.7363H71.9289C72.5492 82.7363 73.1441 82.9827 73.5828 83.4214C74.0214 83.86 74.2678 84.4549 74.2678 85.0752V90.267L69.9127 98.3117ZM64.0858 96.2955H68.713L72.2515 89.7226V85.0752C72.2515 84.9896 72.2176 84.9075 72.1571 84.847C72.0966 84.7865 72.0145 84.7526 71.9289 84.7526H60.759C60.6752 84.7552 60.5957 84.7903 60.5374 84.8505C60.4791 84.9108 60.4464 84.9913 60.4465 85.0752V89.7226L64.0858 96.2955Z" fill="#404656"/>
<path d="M66.4348 89.3086H66.2634V97.3029H66.4348V89.3086Z" fill="#016FD0"/>
<path d="M67.443 88.3008H65.2554V98.3114H67.443V88.3008Z" fill="#404656"/>
<path d="M140.562 132.517H85.2766V137.79H140.562V132.517Z" fill="#84694C"/>
<path d="M141.57 138.797H84.2686V131.509H141.57V138.797ZM86.2848 136.781H139.554V133.525H86.2848V136.781Z" fill="#404656"/>
<path d="M92.1822 137.789H85.2766V143.062H92.1822V137.789Z" fill="#84694C"/>
<path d="M93.1803 144.08H84.2686V136.781H93.1803V144.08ZM86.2848 142.063H91.1641V138.797H86.2848V142.063Z" fill="#404656"/>
<path d="M116.377 137.789H109.471V143.062H116.377V137.789Z" fill="#84694C"/>
<path d="M117.375 144.08H108.463V136.781H117.375V144.08ZM110.479 142.063H115.359V138.797H110.479V142.063Z" fill="#404656"/>
<path d="M140.562 137.789H133.656V143.062H140.562V137.789Z" fill="#84694C"/>
<path d="M141.57 144.08H132.648V136.781H141.57V144.08ZM134.664 142.063H139.554V138.797H134.664V142.063Z" fill="#404656"/>
<path d="M111.498 107.324H86.6981C85.913 107.324 85.2766 107.96 85.2766 108.745V131.095C85.2766 131.88 85.913 132.517 86.6981 132.517H111.498C112.283 132.517 112.919 131.88 112.919 131.095V108.745C112.919 107.96 112.283 107.324 111.498 107.324Z" fill="#C3C77F"/>
<path d="M111.498 133.525H86.6981C86.3791 133.525 86.0631 133.462 85.7684 133.34C85.4736 133.218 85.2058 133.039 84.9802 132.813C84.7545 132.588 84.5756 132.32 84.4535 132.025C84.3314 131.73 84.2686 131.414 84.2686 131.095V108.735C84.2712 108.093 84.5284 107.477 84.9837 107.024C85.4391 106.57 86.0555 106.316 86.6981 106.316H111.498C112.14 106.316 112.757 106.57 113.212 107.024C113.667 107.477 113.925 108.093 113.927 108.735V131.055C113.933 131.377 113.874 131.698 113.754 131.997C113.634 132.297 113.456 132.569 113.23 132.799C113.004 133.029 112.734 133.212 112.437 133.336C112.14 133.461 111.82 133.525 111.498 133.525ZM86.6981 108.322C86.6443 108.321 86.5908 108.33 86.5407 108.35C86.4906 108.369 86.445 108.399 86.4064 108.437C86.3679 108.474 86.3373 108.519 86.3164 108.569C86.2955 108.618 86.2848 108.671 86.2848 108.725V131.055C86.2848 131.165 86.3283 131.27 86.4058 131.347C86.4834 131.425 86.5885 131.468 86.6981 131.468H111.498C111.607 131.468 111.713 131.425 111.79 131.347C111.868 131.27 111.911 131.165 111.911 131.055V108.735C111.911 108.682 111.9 108.628 111.879 108.579C111.859 108.529 111.828 108.484 111.789 108.447C111.751 108.409 111.705 108.38 111.655 108.36C111.605 108.34 111.552 108.331 111.498 108.332L86.6981 108.322Z" fill="#404656"/>
<path d="M97.3135 112.364H90.3171V119.361H97.3135V112.364Z" fill="#D6AA30"/>
<path d="M98.3216 120.359H89.3091V111.356H98.3216V120.359ZM91.3253 118.343H96.3054V113.373H91.3253V118.343Z" fill="#404656"/>
<path d="M139.14 107.324H114.34C113.555 107.324 112.919 107.96 112.919 108.745V131.095C112.919 131.88 113.555 132.517 114.34 132.517H139.14C139.925 132.517 140.561 131.88 140.561 131.095V108.745C140.561 107.96 139.925 107.324 139.14 107.324Z" fill="#C3C77F"/>
<path d="M139.14 133.525H114.34C113.696 133.525 113.078 133.269 112.622 132.813C112.167 132.358 111.911 131.74 111.911 131.095V108.735C111.914 108.093 112.171 107.477 112.626 107.024C113.081 106.57 113.698 106.316 114.34 106.316H139.14C139.783 106.316 140.399 106.57 140.854 107.024C141.31 107.477 141.567 108.093 141.57 108.735V131.055C141.575 131.377 141.516 131.698 141.396 131.997C141.277 132.297 141.099 132.569 140.872 132.799C140.646 133.029 140.377 133.212 140.079 133.336C139.782 133.461 139.463 133.525 139.14 133.525ZM114.34 108.322C114.287 108.321 114.233 108.33 114.183 108.35C114.133 108.369 114.087 108.399 114.049 108.437C114.01 108.474 113.98 108.519 113.959 108.569C113.938 108.618 113.927 108.671 113.927 108.725V131.055C113.927 131.109 113.938 131.163 113.959 131.213C113.979 131.263 114.01 131.309 114.048 131.347C114.087 131.386 114.132 131.416 114.182 131.437C114.232 131.458 114.286 131.468 114.34 131.468H139.14C139.194 131.468 139.248 131.458 139.298 131.437C139.348 131.416 139.394 131.386 139.432 131.347C139.471 131.309 139.501 131.263 139.522 131.213C139.543 131.163 139.553 131.109 139.553 131.055V108.735C139.553 108.682 139.543 108.628 139.522 108.579C139.501 108.529 139.47 108.484 139.432 108.447C139.393 108.409 139.348 108.38 139.297 108.36C139.247 108.34 139.194 108.331 139.14 108.332L114.34 108.322Z" fill="#404656"/>
<path d="M124.956 112.364H117.959V119.361H124.956V112.364Z" fill="#D6AA30"/>
<path d="M125.964 120.359H116.951V111.356H125.964V120.359ZM118.968 118.343H123.948V113.373H118.968V118.343Z" fill="#404656"/>
<path d="M111.498 82.1309H86.6981C85.913 82.1309 85.2766 82.7673 85.2766 83.5523V105.902C85.2766 106.687 85.913 107.324 86.6981 107.324H111.498C112.283 107.324 112.919 106.687 112.919 105.902V83.5523C112.919 82.7673 112.283 82.1309 111.498 82.1309Z" fill="#C3C77F"/>
<path d="M111.498 108.332H86.6981C86.3791 108.332 86.0631 108.269 85.7684 108.147C85.4736 108.025 85.2058 107.846 84.9802 107.62C84.7545 107.394 84.5756 107.127 84.4535 106.832C84.3314 106.537 84.2686 106.221 84.2686 105.902V83.542C84.2712 82.8994 84.5284 82.284 84.9837 81.8306C85.4391 81.3771 86.0555 81.1226 86.6981 81.1226H111.498C112.14 81.1226 112.757 81.3771 113.212 81.8306C113.667 82.284 113.925 82.8994 113.927 83.542V105.902C113.927 106.546 113.671 107.164 113.216 107.62C112.76 108.076 112.142 108.332 111.498 108.332ZM86.6981 83.1287C86.6443 83.1274 86.5908 83.1368 86.5407 83.1565C86.4906 83.1761 86.445 83.2056 86.4064 83.2432C86.3679 83.2808 86.3373 83.3257 86.3164 83.3753C86.2955 83.4249 86.2848 83.4781 86.2848 83.532V105.892C86.2848 106.002 86.3283 106.107 86.4058 106.184C86.4834 106.262 86.5885 106.305 86.6981 106.305H111.498C111.607 106.305 111.713 106.262 111.79 106.184C111.868 106.107 111.911 106.002 111.911 105.892V83.542C111.911 83.4882 111.9 83.435 111.879 83.3854C111.859 83.3358 111.828 83.2909 111.789 83.2533C111.751 83.2157 111.705 83.1862 111.655 83.1665C111.605 83.1469 111.552 83.1374 111.498 83.1388L86.6981 83.1287Z" fill="#404656"/>
<path d="M97.3135 87.1714H90.3171V94.1677H97.3135V87.1714Z" fill="#D6AA30"/>
<path d="M98.3216 95.166H89.3091V86.1636H98.3216V95.166ZM91.3253 93.1498H96.3054V88.1798H91.3253V93.1498Z" fill="#404656"/>
<path d="M139.14 82.1309H114.34C113.555 82.1309 112.919 82.7673 112.919 83.5523V105.902C112.919 106.687 113.555 107.324 114.34 107.324H139.14C139.925 107.324 140.561 106.687 140.561 105.902V83.5523C140.561 82.7673 139.925 82.1309 139.14 82.1309Z" fill="#C3C77F"/>
<path d="M139.14 108.332H114.34C113.696 108.332 113.078 108.076 112.622 107.62C112.167 107.164 111.911 106.546 111.911 105.902V83.542C111.914 82.8994 112.171 82.284 112.626 81.8306C113.081 81.3771 113.698 81.1226 114.34 81.1226H139.14C139.783 81.1226 140.399 81.3771 140.854 81.8306C141.31 82.284 141.567 82.8994 141.57 83.542V105.902C141.57 106.546 141.314 107.164 140.858 107.62C140.402 108.076 139.784 108.332 139.14 108.332ZM114.34 83.1287C114.287 83.1274 114.233 83.1368 114.183 83.1565C114.133 83.1761 114.087 83.2056 114.049 83.2432C114.01 83.2808 113.98 83.3257 113.959 83.3753C113.938 83.4249 113.927 83.4781 113.927 83.532V105.892C113.927 105.946 113.938 106 113.959 106.05C113.979 106.1 114.01 106.146 114.048 106.184C114.087 106.223 114.132 106.253 114.182 106.274C114.232 106.295 114.286 106.305 114.34 106.305H139.14C139.194 106.305 139.248 106.295 139.298 106.274C139.348 106.253 139.394 106.223 139.432 106.184C139.471 106.146 139.501 106.1 139.522 106.05C139.543 106 139.553 105.946 139.553 105.892V83.542C139.553 83.4882 139.543 83.435 139.522 83.3854C139.501 83.3358 139.47 83.2909 139.432 83.2533C139.393 83.2157 139.348 83.1862 139.297 83.1665C139.247 83.1469 139.194 83.1374 139.14 83.1388L114.34 83.1287Z" fill="#404656"/>
<path d="M124.956 87.1714H117.959V94.1677H124.956V87.1714Z" fill="#D6AA30"/>
<path d="M125.964 95.166H116.951V86.1636H125.964V95.166ZM118.968 93.1498H123.948V88.1798H118.968V93.1498Z" fill="#404656"/>
<path d="M111.498 56.9385H86.6981C85.913 56.9385 85.2766 57.5749 85.2766 58.3599V80.7098C85.2766 81.4949 85.913 82.1313 86.6981 82.1313H111.498C112.283 82.1313 112.919 81.4949 112.919 80.7098V58.3599C112.919 57.5749 112.283 56.9385 111.498 56.9385Z" fill="#C3C77F"/>
<path d="M111.498 83.1392H86.6981C86.3791 83.1392 86.0631 83.0764 85.7684 82.9543C85.4736 82.8322 85.2058 82.6532 84.9802 82.4276C84.7545 82.202 84.5756 81.9342 84.4535 81.6394C84.3314 81.3447 84.2686 81.0287 84.2686 80.7097V58.3497C84.2686 58.0311 84.3315 57.7156 84.4537 57.4214C84.5759 57.1272 84.755 56.8601 84.9808 56.6353C85.2065 56.4105 85.4744 56.2325 85.7691 56.1115C86.0638 55.9905 86.3795 55.9289 86.6981 55.9302H111.498C111.816 55.9289 112.132 55.9905 112.427 56.1115C112.721 56.2325 112.989 56.4105 113.215 56.6353C113.441 56.8601 113.62 57.1272 113.742 57.4214C113.864 57.7156 113.927 58.0311 113.927 58.3497V80.7097C113.927 81.354 113.671 81.972 113.216 82.4276C112.76 82.8833 112.142 83.1392 111.498 83.1392ZM86.6981 57.9363C86.6443 57.935 86.5908 57.9444 86.5407 57.9641C86.4906 57.9838 86.445 58.0132 86.4064 58.0508C86.3679 58.0884 86.3373 58.1333 86.3164 58.1829C86.2955 58.2325 86.2848 58.2858 86.2848 58.3396V80.7097C86.2848 80.8193 86.3283 80.9244 86.4058 81.0019C86.4834 81.0795 86.5885 81.123 86.6981 81.123H111.498C111.607 81.123 111.713 81.0795 111.79 81.0019C111.868 80.9244 111.911 80.8193 111.911 80.7097V58.3497C111.911 58.2959 111.9 58.2426 111.879 58.193C111.859 58.1434 111.828 58.0985 111.789 58.0609C111.751 58.0233 111.705 57.9938 111.655 57.9742C111.605 57.9545 111.552 57.9451 111.498 57.9464L86.6981 57.9363Z" fill="#404656"/>
<path d="M97.3135 61.979H90.3171V68.9753H97.3135V61.979Z" fill="#D6AA30"/>
<path d="M98.3216 69.9732H89.3091V60.9707H98.3216V69.9732ZM91.3253 67.9569H96.3054V62.9869H91.3253V67.9569Z" fill="#404656"/>
<path d="M139.14 56.9385H114.34C113.555 56.9385 112.919 57.5749 112.919 58.3599V80.7098C112.919 81.4949 113.555 82.1313 114.34 82.1313H139.14C139.925 82.1313 140.561 81.4949 140.561 80.7098V58.3599C140.561 57.5749 139.925 56.9385 139.14 56.9385Z" fill="#C3C77F"/>
<path d="M139.14 83.1392H114.34C113.696 83.1392 113.078 82.8833 112.622 82.4276C112.167 81.972 111.911 81.354 111.911 80.7097V58.3497C111.911 58.0311 111.974 57.7156 112.096 57.4214C112.218 57.1272 112.397 56.8601 112.623 56.6353C112.849 56.4105 113.117 56.2325 113.411 56.1115C113.706 55.9905 114.022 55.9289 114.34 55.9302H139.14C139.459 55.9289 139.774 55.9905 140.069 56.1115C140.364 56.2325 140.632 56.4105 140.857 56.6353C141.083 56.8601 141.262 57.1272 141.385 57.4214C141.507 57.7156 141.57 58.0311 141.57 58.3497V80.7097C141.57 81.354 141.314 81.972 140.858 82.4276C140.402 82.8833 139.784 83.1392 139.14 83.1392ZM114.34 57.9363C114.287 57.935 114.233 57.9444 114.183 57.9641C114.133 57.9838 114.087 58.0132 114.049 58.0508C114.01 58.0884 113.98 58.1333 113.959 58.1829C113.938 58.2325 113.927 58.2858 113.927 58.3396V80.7097C113.927 80.7639 113.938 80.8177 113.959 80.8678C113.979 80.918 114.01 80.9636 114.048 81.0019C114.087 81.0403 114.132 81.0708 114.182 81.0915C114.232 81.1123 114.286 81.123 114.34 81.123H139.14C139.194 81.123 139.248 81.1123 139.298 81.0915C139.348 81.0708 139.394 81.0403 139.432 81.0019C139.471 80.9636 139.501 80.918 139.522 80.8678C139.543 80.8177 139.553 80.7639 139.553 80.7097V58.3497C139.553 58.2959 139.543 58.2426 139.522 58.193C139.501 58.1434 139.47 58.0985 139.432 58.0609C139.393 58.0233 139.348 57.9938 139.297 57.9742C139.247 57.9545 139.194 57.9451 139.14 57.9464L114.34 57.9363Z" fill="#404656"/>
<path d="M124.956 61.979H117.959V68.9753H124.956V61.979Z" fill="#D6AA30"/>
<path d="M125.964 69.9732H116.951V60.9707H125.964V69.9732ZM118.968 67.9569H123.948V62.9869H118.968V67.9569Z" fill="#404656"/>
</svg>
