<svg width="200" height="200" viewBox="0 0 200 200" fill="none" xmlns="http://www.w3.org/2000/svg">
<path d="M200 0H0V200H200V0Z" fill="#F4F5F6"/>
<path d="M125.389 46.3735H72.8263C68.0938 46.3735 64.2573 50.21 64.2573 54.9425V145.905C64.2573 150.637 68.0938 154.474 72.8263 154.474H125.389C130.122 154.474 133.958 150.637 133.958 145.905V54.9425C133.958 50.21 130.122 46.3735 125.389 46.3735Z" fill="#C3C77F"/>
<path d="M126.277 155.058H73.7236C71.1844 155.056 68.75 154.046 66.9545 152.25C65.159 150.455 64.1492 148.02 64.1465 145.481V54.5291C64.1491 51.989 65.1587 49.5535 66.9539 47.7564C68.7491 45.9593 71.1835 44.9472 73.7236 44.9419H126.277C128.812 44.9552 131.24 45.9705 133.03 47.7664C134.821 49.5624 135.828 51.9932 135.834 54.5291V145.481C135.828 148.016 134.82 150.446 133.03 152.24C131.239 154.035 128.812 155.048 126.277 155.058ZM73.7236 46.9581C71.7182 46.9635 69.7966 47.7631 68.3796 49.1821C66.9625 50.6011 66.1654 52.5237 66.1627 54.5291V145.481C66.168 147.485 66.9663 149.405 68.3831 150.822C69.7999 152.238 71.7199 153.037 73.7236 153.042H126.277C128.282 153.039 130.205 152.242 131.624 150.825C133.043 149.408 133.842 147.487 133.848 145.481V54.5291C133.845 52.5219 133.046 50.5978 131.627 49.1785C130.208 47.7593 128.284 46.9608 126.277 46.9581H73.7236Z" fill="#404656"/>
<path d="M98.3647 139.673C96.2854 139.673 94.4687 139.193 92.9146 138.232C91.3604 137.272 90.1527 135.937 89.2916 134.229C88.4305 132.5 88 130.493 88 128.208C88 125.902 88.4411 123.874 89.3232 122.123C90.2263 120.351 91.4969 118.974 93.1351 117.992C94.7943 116.989 96.758 116.487 99.0263 116.487C101.61 116.487 103.752 117.117 105.453 118.376C107.154 119.636 108.257 121.376 108.761 123.597H104.256C103.92 122.55 103.311 121.739 102.429 121.163C101.547 120.565 100.412 120.266 99.0263 120.266C96.821 120.266 95.1198 120.981 93.9227 122.412C92.7255 123.821 92.127 125.764 92.127 128.24C92.127 130.717 92.715 132.638 93.8912 134.005C95.0883 135.35 96.7055 136.023 98.7427 136.023C100.738 136.023 102.24 135.478 103.248 134.389C104.277 133.279 104.896 131.827 105.106 130.034H99.5303V126.959H109.17V139.289H105.453L105.138 136.343C104.424 137.41 103.531 138.232 102.46 138.809C101.389 139.385 100.024 139.673 98.3647 139.673Z" fill="#404656"/>
<path d="M99.1119 68.0913C98.3688 68.0913 97.6956 67.9577 97.0925 67.6905C96.4893 67.4121 96.0047 66.989 95.6385 66.4212C95.2723 65.8534 95.0784 65.1408 95.0569 64.2835H97.0925C97.1032 64.8514 97.281 65.3301 97.6256 65.7198C97.981 66.0983 98.4765 66.2876 99.1119 66.2876C99.715 66.2876 100.178 66.115 100.501 65.7699C100.824 65.4248 100.986 64.9905 100.986 64.4672C100.986 63.8549 100.771 63.3928 100.34 63.0811C99.9197 62.7582 99.3758 62.5968 98.708 62.5968H97.8679V60.8432H98.7242C99.2735 60.8432 99.7312 60.7096 100.097 60.4424C100.464 60.1752 100.647 59.7799 100.647 59.2566C100.647 58.8224 100.507 58.4773 100.227 58.2212C99.9574 57.954 99.5804 57.8204 99.0958 57.8204C98.568 57.8204 98.1533 57.9818 97.8518 58.3047C97.561 58.6276 97.3994 59.0228 97.3671 59.4904H95.3477C95.3908 58.4105 95.7516 57.5587 96.4301 56.9352C97.1194 56.3117 98.0079 56 99.0958 56C99.8712 56 100.523 56.1447 101.051 56.4342C101.589 56.7126 101.993 57.0855 102.262 57.5532C102.542 58.0208 102.682 58.5385 102.682 59.1063C102.682 59.7632 102.505 60.3199 102.149 60.7764C101.804 61.2217 101.374 61.5224 100.857 61.6782C101.492 61.8118 102.009 62.1347 102.408 62.6469C102.806 63.1479 103.005 63.7825 103.005 64.5507C103.005 65.1965 102.855 65.7866 102.553 66.321C102.251 66.8554 101.81 67.2841 101.228 67.607C100.657 67.9299 99.952 68.0913 99.1119 68.0913Z" fill="#404656"/>
<path d="M95.3349 87.1483V85.5952C96.0242 85.0051 96.6919 84.4205 97.3382 83.8416C97.9951 83.2626 98.5767 82.6892 99.0829 82.1214C99.5999 81.5536 100.009 81.0025 100.311 80.4681C100.623 79.9225 100.779 79.3936 100.779 78.8815C100.779 78.4027 100.65 77.9796 100.392 77.6122C100.144 77.2448 99.7292 77.0611 99.1476 77.0611C98.5552 77.0611 98.1082 77.2615 97.8067 77.6623C97.5051 78.0632 97.3543 78.5475 97.3543 79.1153H95.351C95.3726 78.258 95.5557 77.5454 95.9003 76.9776C96.245 76.3986 96.7027 75.97 97.2735 75.6917C97.8444 75.4022 98.4852 75.2574 99.196 75.2574C100.348 75.2574 101.242 75.5859 101.878 76.2428C102.524 76.8885 102.847 77.7291 102.847 78.7646C102.847 79.4103 102.702 80.0394 102.411 80.6518C102.131 81.2641 101.759 81.8542 101.296 82.422C100.833 82.9899 100.332 83.5243 99.7938 84.0253C99.2553 84.5152 98.7329 84.9717 98.2267 85.3948H103.122V87.1483H95.3349Z" fill="#404656"/>
<path d="M98.6674 106.406V97.1536L96.8096 97.6045V95.9678L99.5398 94.7153H100.816V106.406H98.6674Z" fill="#404656"/>
</svg>
