<svg width="200" height="200" viewBox="0 0 200 200" fill="none" xmlns="http://www.w3.org/2000/svg">
<path d="M200 0H0V200H200V0Z" fill="#F4F5F6"/>
<path d="M175.412 132.275C174.544 125.73 173.255 119.248 171.551 112.869L25.5054 152.054H176.723C176.717 145.44 176.279 138.832 175.412 132.275Z" fill="#3F8167"/>
<path d="M40.1834 133.504L111.76 114.35L108.876 103.382L37.3001 122.536C37.0107 122.613 36.7394 122.747 36.5017 122.929C36.2639 123.111 36.0644 123.338 35.9146 123.598C35.7648 123.857 35.6676 124.144 35.6286 124.441C35.5895 124.737 35.6094 125.039 35.6872 125.328L37.4413 131.861C37.5935 132.439 37.9655 132.934 38.4778 133.241C38.9902 133.548 39.6022 133.642 40.1834 133.504Z" fill="#B5BBC7"/>
<path d="M113.02 115.026L40.4356 134.472C40.0179 134.585 39.5821 134.614 39.1531 134.558C38.7241 134.502 38.3105 134.362 37.9358 134.145C37.5612 133.929 37.2329 133.641 36.9699 133.297C36.7069 132.954 36.5143 132.562 36.4032 132.144L34.6491 125.621C34.427 124.778 34.5471 123.881 34.9832 123.125C35.4194 122.37 36.1363 121.818 36.9778 121.589L109.562 102.142L113.02 115.026ZM37.5121 123.544C37.1876 123.632 36.911 123.844 36.7428 124.135C36.5746 124.426 36.5286 124.772 36.6149 125.097L38.3589 131.629C38.4486 131.955 38.6631 132.231 38.9557 132.399C39.2483 132.567 39.5954 132.613 39.9215 132.527L110.55 113.604L108.141 104.612L37.5121 123.544Z" fill="#404656"/>
<path d="M108.876 103.382L37.9455 122.385L24.4771 72.141C24.2852 71.4274 24.236 70.683 24.3324 69.9503C24.4288 69.2177 24.6688 68.5113 25.0388 67.8717C25.4087 67.232 25.9013 66.6716 26.4882 66.2227C27.0751 65.7738 27.7449 65.4451 28.4591 65.2555L88.5025 49.1257C89.9449 48.7407 91.4811 48.9438 92.7739 49.6904C94.0667 50.4369 95.0105 51.666 95.398 53.1078L108.876 103.382Z" fill="#C3C77F"/>
<path d="M110.096 104.098L37.2299 123.615L23.5094 72.4029C23.2842 71.5595 23.2277 70.6801 23.3431 69.8149C23.4585 68.9496 23.7435 68.1157 24.1818 67.3609C24.6201 66.606 25.2031 65.9451 25.8973 65.416C26.5915 64.8869 27.3834 64.5 28.2274 64.2775L88.2707 48.1476C89.9698 47.6946 91.7791 47.9337 93.3022 48.8124C94.8253 49.6911 95.9379 51.1378 96.3961 52.8354L110.096 104.098ZM38.6513 121.186L107.627 102.707L94.4202 53.4402C94.1013 52.2585 93.327 51.2512 92.2671 50.639C91.2071 50.0269 89.9477 49.8596 88.7647 50.1739L28.7214 66.3038C27.5396 66.6228 26.5324 67.397 25.9202 68.457C25.308 69.517 25.1408 70.7763 25.4551 71.9593L38.6513 121.186Z" fill="#404656"/>
<path d="M97.1596 57.997L25.9412 77.0864L26.4654 79.0422L97.6838 59.9527L97.1596 57.997Z" fill="#404656"/>
<path d="M61.1724 140.985C68.4104 140.985 74.2779 135.117 74.2779 127.879C74.2779 120.641 68.4104 114.774 61.1724 114.774C53.9344 114.774 48.0669 120.641 48.0669 127.879C48.0669 135.117 53.9344 140.985 61.1724 140.985Z" fill="#777E90"/>
<path d="M64.8319 141.509C62.1361 142.231 59.2869 142.137 56.6445 141.239C54.002 140.342 51.6849 138.681 49.986 136.467C48.2871 134.253 47.2827 131.585 47.0997 128.801C46.9167 126.016 47.5634 123.24 48.9579 120.822C50.3525 118.405 52.4324 116.456 54.9347 115.22C57.437 113.985 60.2494 113.519 63.0164 113.881C65.7835 114.244 68.3809 115.419 70.4805 117.257C72.5801 119.095 74.0875 121.515 74.8123 124.21C75.294 126.001 75.4179 127.87 75.177 129.709C74.936 131.548 74.3349 133.322 73.408 134.928C72.4811 136.535 71.2465 137.943 69.775 139.072C68.3034 140.201 66.6237 141.03 64.8319 141.509ZM58.0372 116.145C55.7275 116.766 53.6538 118.058 52.0781 119.858C50.5024 121.657 49.4955 123.883 49.1846 126.255C48.8737 128.626 49.2728 131.037 50.3314 133.181C51.39 135.326 53.0606 137.109 55.1322 138.305C57.2037 139.5 59.5832 140.055 61.9699 139.899C64.3566 139.742 66.6434 138.882 68.5413 137.427C70.4392 135.971 71.8631 133.985 72.6329 131.721C73.4028 129.456 73.4841 127.015 72.8666 124.704C72.456 123.167 71.7466 121.727 70.7788 120.465C69.811 119.203 68.6039 118.145 67.2265 117.35C65.8492 116.555 64.3286 116.039 62.7518 115.832C61.175 115.626 59.5729 115.732 58.0372 116.145Z" fill="#404656"/>
<path d="M61.1723 134.21C64.6688 134.21 67.5032 131.376 67.5032 127.879C67.5032 124.383 64.6688 121.548 61.1723 121.548C57.6758 121.548 54.8413 124.383 54.8413 127.879C54.8413 131.376 57.6758 134.21 61.1723 134.21Z" fill="#D3EAED"/>
<path d="M63.0779 134.966C61.6761 135.343 60.1941 135.296 58.8191 134.831C57.4442 134.365 56.2381 133.503 55.3535 132.352C54.4688 131.201 53.9453 129.814 53.8491 128.365C53.753 126.917 54.0885 125.473 54.8132 124.215C55.5379 122.957 56.6193 121.943 57.9207 121.3C59.222 120.656 60.6848 120.414 62.1241 120.602C63.5634 120.79 64.9146 121.401 66.0067 122.357C67.0988 123.314 67.8828 124.572 68.2596 125.974C68.762 127.854 68.4987 129.856 67.5274 131.541C66.5561 133.227 64.956 134.459 63.0779 134.966ZM59.7914 122.738C58.7748 123.011 57.8621 123.58 57.1686 124.372C56.4751 125.164 56.032 126.144 55.8953 127.187C55.7587 128.231 55.9346 129.292 56.4008 130.236C56.867 131.18 57.6026 131.964 58.5146 132.49C59.4266 133.016 60.474 133.259 61.5244 133.19C62.5748 133.12 63.581 132.741 64.4158 132.099C65.2506 131.458 65.8765 130.584 66.2144 129.587C66.5522 128.59 66.5869 127.515 66.3139 126.498C66.1327 125.823 65.8201 125.19 65.3942 124.636C64.9683 124.081 64.4373 123.616 63.8316 123.267C63.2259 122.918 62.5574 122.691 61.8642 122.601C61.1709 122.51 60.4666 122.557 59.7914 122.738Z" fill="#404656"/>
<path d="M151.449 100.015L147.881 86.6977L132.063 59.7508C131.259 58.4008 130.037 57.3496 128.581 56.7566C127.126 56.1636 125.517 56.061 123.998 56.4643L98.1401 63.3901L111.79 114.31L148.959 104.35C149.409 104.231 149.83 104.024 150.199 103.741C150.567 103.458 150.877 103.105 151.108 102.702C151.34 102.298 151.489 101.853 151.548 101.392C151.606 100.931 151.573 100.463 151.449 100.015Z" fill="#C3C77F"/>
<path d="M149.201 105.328L111.054 115.551L96.9099 62.7153L123.746 55.5173C125.479 55.0599 127.314 55.1783 128.975 55.8547C130.635 56.5312 132.03 57.7289 132.95 59.2675L148.818 86.3556L152.427 99.8139C152.725 100.973 152.553 102.202 151.949 103.235C151.345 104.268 150.357 105.02 149.201 105.328ZM112.495 113.121L148.697 103.423C149.341 103.248 149.89 102.826 150.224 102.248C150.558 101.67 150.651 100.984 150.481 100.338L146.943 87.152L131.216 60.2958C130.518 59.1361 129.463 58.2346 128.208 57.7273C126.953 57.2199 125.568 57.1342 124.26 57.4831L99.3798 64.1468L112.495 113.121Z" fill="#404656"/>
<path d="M127.99 123.081C135.228 123.081 141.096 117.213 141.096 109.975C141.096 102.737 135.228 96.8696 127.99 96.8696C120.752 96.8696 114.885 102.737 114.885 109.975C114.885 117.213 120.752 123.081 127.99 123.081Z" fill="#777E90"/>
<path d="M131.64 123.615C128.944 124.337 126.095 124.243 123.452 123.345C120.81 122.448 118.493 120.787 116.794 118.573C115.095 116.359 114.091 113.691 113.908 110.907C113.725 108.122 114.371 105.346 115.766 102.928C117.16 100.511 119.24 98.5616 121.743 97.3261C124.245 96.0907 127.057 95.6248 129.824 95.9873C132.591 96.3498 135.189 97.5245 137.288 99.3629C139.388 101.201 140.895 103.621 141.62 106.316C142.102 108.107 142.226 109.976 141.985 111.815C141.744 113.654 141.143 115.428 140.216 117.034C139.289 118.641 138.054 120.049 136.583 121.178C135.111 122.307 133.432 123.135 131.64 123.615ZM124.855 98.2811C122.544 98.9006 120.469 100.191 118.892 101.99C117.315 103.789 116.306 106.015 115.994 108.387C115.682 110.759 116.08 113.17 117.138 115.316C118.196 117.461 119.866 119.245 121.938 120.442C124.009 121.638 126.389 122.193 128.776 122.038C131.164 121.882 133.451 121.021 135.349 119.566C137.248 118.11 138.672 116.124 139.442 113.859C140.212 111.594 140.293 109.151 139.674 106.84C139.264 105.305 138.555 103.865 137.588 102.604C136.62 101.343 135.414 100.285 134.038 99.4901C132.662 98.6953 131.143 98.1794 129.567 97.972C127.991 97.7645 126.39 97.8696 124.855 98.2811Z" fill="#404656"/>
<path d="M127.99 116.306C131.487 116.306 134.321 113.472 134.321 109.975C134.321 106.479 131.487 103.645 127.99 103.645C124.494 103.645 121.659 106.479 121.659 109.975C121.659 113.472 124.494 116.306 127.99 116.306Z" fill="#D3EAED"/>
<path d="M129.886 117.063C128.483 117.436 127.001 117.386 125.627 116.917C124.254 116.449 123.05 115.583 122.167 114.431C121.285 113.278 120.765 111.89 120.672 110.441C120.579 108.993 120.918 107.549 121.645 106.293C122.373 105.037 123.456 104.025 124.759 103.384C126.061 102.744 127.525 102.505 128.963 102.696C130.402 102.887 131.752 103.501 132.842 104.459C133.932 105.418 134.714 106.678 135.087 108.08C135.586 109.961 135.319 111.963 134.343 113.647C133.368 115.331 131.765 116.559 129.886 117.063ZM126.609 104.834C125.593 105.107 124.68 105.676 123.986 106.468C123.293 107.26 122.85 108.24 122.713 109.284C122.576 110.327 122.752 111.388 123.219 112.332C123.685 113.276 124.42 114.06 125.332 114.586C126.244 115.112 127.292 115.355 128.342 115.286C129.393 115.216 130.399 114.837 131.234 114.196C132.068 113.554 132.694 112.68 133.032 111.683C133.37 110.686 133.405 109.611 133.132 108.594C132.95 107.919 132.638 107.286 132.212 106.732C131.786 106.177 131.255 105.712 130.649 105.363C130.044 105.014 129.375 104.788 128.682 104.697C127.989 104.606 127.284 104.653 126.609 104.834Z" fill="#404656"/>
<path d="M134.922 63.6443L100.675 72.8208L101.197 74.7683L135.444 65.5918L134.922 63.6443Z" fill="#404656"/>
<path d="M109.723 71.4348L114.29 88.4417C114.379 88.7668 114.531 89.071 114.738 89.3367C114.945 89.6024 115.203 89.8243 115.496 89.9894C115.79 90.1545 116.114 90.2596 116.448 90.2985C116.783 90.3374 117.122 90.3093 117.446 90.216L122.345 88.9054C125.918 87.9453 129.678 87.921 133.263 88.8349C135.471 89.4047 137.789 89.4047 139.997 88.8349L147.881 86.7178L135.178 64.6099L109.723 71.4348Z" fill="#CCE7ED"/>
<path d="M148.193 87.6961L140.31 89.803C137.937 90.4231 135.444 90.4231 133.071 89.803C129.649 88.9472 126.066 88.9749 122.657 89.8837L117.758 91.1942C117.301 91.3213 116.822 91.3556 116.351 91.295C115.88 91.2344 115.426 91.0801 115.016 90.8414C114.614 90.6124 114.261 90.3055 113.979 89.9385C113.697 89.5715 113.491 89.1518 113.373 88.7042L108.816 71.6973C108.781 71.5689 108.772 71.4347 108.789 71.3027C108.806 71.1707 108.849 71.0434 108.916 70.9281C108.982 70.8129 109.071 70.7119 109.177 70.6311C109.282 70.5503 109.403 70.4912 109.532 70.4573L134.977 63.6424C135.192 63.5841 135.421 63.599 135.627 63.6847C135.833 63.7705 136.005 63.9223 136.116 64.1163L148.818 86.2141C148.894 86.3483 148.938 86.4981 148.946 86.6519C148.955 86.8056 148.928 86.9594 148.868 87.1013C148.81 87.246 148.718 87.375 148.601 87.4782C148.484 87.5814 148.344 87.656 148.193 87.6961ZM117.234 89.2486L122.133 87.938C125.875 86.9386 129.81 86.9109 133.565 87.8574C135.605 88.3819 137.745 88.3819 139.785 87.8574L146.409 86.0831L134.745 65.7897L111.014 72.1509L115.308 88.19C115.411 88.5723 115.661 88.8984 116.004 89.0974C116.378 89.3074 116.82 89.3617 117.234 89.2486Z" fill="#404656"/>
<path d="M143.667 95.9826L146.106 105.056L149 104.279C149.447 104.16 149.866 103.954 150.233 103.672C150.6 103.391 150.908 103.039 151.14 102.639C151.371 102.238 151.521 101.795 151.581 101.337C151.641 100.878 151.61 100.412 151.49 99.9647L149.473 92.4341L145.007 93.6337C144.764 93.6979 144.536 93.8099 144.336 93.9633C144.136 94.1166 143.969 94.3082 143.844 94.5269C143.719 94.7456 143.639 94.9869 143.609 95.2369C143.578 95.4868 143.598 95.7404 143.667 95.9826Z" fill="#D34A20"/>
<path d="M149.262 105.318L145.391 106.326L142.689 96.2447C142.493 95.5057 142.594 94.7193 142.971 94.0541C143.348 93.3889 143.97 92.8978 144.705 92.6861L150.149 91.2344L152.427 99.7328C152.746 100.893 152.592 102.133 151.999 103.179C151.405 104.226 150.421 104.995 149.262 105.318ZM146.822 103.886L148.737 103.372C149.382 103.197 149.931 102.775 150.265 102.197C150.599 101.619 150.691 100.933 150.522 100.287L148.758 93.7345L145.27 94.6721C145.042 94.7336 144.847 94.8823 144.729 95.0861C144.61 95.2899 144.576 95.5323 144.634 95.7608L146.822 103.886Z" fill="#404656"/>
<path d="M26.1606 151.873L171.521 112.929" stroke="#404656" stroke-width="2" stroke-linecap="round" stroke-linejoin="round"/>
</svg>
