<svg width="200" height="200" viewBox="0 0 200 200" fill="none" xmlns="http://www.w3.org/2000/svg">
<path d="M200 0H0V200H200V0Z" fill="#F4F5F6"/>
<path d="M65.6284 134.634C66.406 133.61 66.8273 132.361 66.828 131.075C66.8254 130.655 66.7815 130.236 66.697 129.825C67.5632 129.599 68.3487 129.134 68.9643 128.484C69.5799 127.834 70.0009 127.024 70.1795 126.147C70.3581 125.27 70.2872 124.36 69.9748 123.521C69.6624 122.682 69.121 121.947 68.4121 121.4C67.7032 120.854 66.8552 120.516 65.9643 120.427C65.0734 120.338 64.1754 120.5 63.3722 120.896C62.5689 121.291 61.8926 121.904 61.42 122.664C60.9475 123.425 60.6975 124.303 60.6987 125.198C59.6261 125.243 58.5862 125.58 57.692 126.174C56.7978 126.769 56.0834 127.596 55.6263 128.567C55.1692 129.539 54.9869 130.617 55.0991 131.684C55.2113 132.752 55.6138 133.769 56.263 134.624L65.6284 134.634Z" fill="#3F8167"/>
<path d="M66.1325 135.642H55.7993L55.4969 135.239C54.5774 134.046 54.0808 132.581 54.0855 131.075C54.0836 129.454 54.6555 127.885 55.6999 126.645C56.7442 125.405 58.1936 124.574 59.7914 124.301C59.946 123.304 60.3577 122.364 60.9858 121.575C61.614 120.786 62.4369 120.173 63.3737 119.799C64.3104 119.424 65.3285 119.3 66.3278 119.439C67.327 119.578 68.2729 119.974 69.0722 120.59C69.8716 121.205 70.4968 122.018 70.8862 122.949C71.2757 123.88 71.4159 124.896 71.2932 125.897C71.1705 126.898 70.789 127.85 70.1863 128.659C69.5837 129.468 68.7806 130.106 67.8563 130.511C67.8563 130.702 67.8563 130.894 67.8563 131.075C67.8594 132.579 67.3669 134.043 66.4551 135.239L66.1325 135.642ZM56.7973 133.626H65.0941C65.5734 132.862 65.8251 131.977 65.82 131.075C65.8161 130.736 65.779 130.399 65.7091 130.067L65.4974 129.12L66.445 128.878C67.128 128.701 67.7483 128.337 68.2359 127.828C68.7235 127.318 69.0592 126.682 69.2051 125.992C69.351 125.301 69.3014 124.584 69.0618 123.92C68.8222 123.257 68.4022 122.673 67.849 122.235C67.2958 121.798 66.6314 121.523 65.9305 121.442C65.2296 121.361 64.5201 121.478 63.8818 121.778C63.2435 122.079 62.7018 122.551 62.3175 123.143C61.9333 123.735 61.7218 124.422 61.7068 125.127V126.226H60.6987C59.8504 126.26 59.0256 126.515 58.3066 126.966C57.5876 127.418 56.9994 128.05 56.6007 128.799C56.202 129.549 56.0066 130.39 56.034 131.239C56.0614 132.087 56.3107 132.914 56.757 133.636L56.7973 133.626Z" fill="#404656"/>
<path d="M134.372 134.634C133.594 133.611 133.173 132.361 133.172 131.075C133.173 130.655 133.22 130.236 133.313 129.825C132.446 129.601 131.659 129.138 131.042 128.488C130.425 127.839 130.002 127.029 129.822 126.152C129.642 125.274 129.712 124.364 130.023 123.524C130.335 122.684 130.876 121.948 131.585 121.4C132.294 120.853 133.142 120.515 134.034 120.425C134.925 120.335 135.824 120.497 136.627 120.893C137.431 121.289 138.108 121.902 138.581 122.663C139.053 123.424 139.303 124.302 139.301 125.198C140.374 125.243 141.414 125.581 142.308 126.175C143.202 126.769 143.917 127.596 144.374 128.568C144.831 129.539 145.013 130.617 144.901 131.685C144.789 132.752 144.386 133.769 143.737 134.624L134.372 134.634Z" fill="#3F8167"/>
<path d="M144.241 135.642H133.878L133.575 135.239C132.656 134.046 132.159 132.581 132.164 131.075C132.154 130.887 132.154 130.699 132.164 130.511C131.24 130.106 130.437 129.468 129.834 128.659C129.231 127.85 128.85 126.898 128.727 125.897C128.604 124.896 128.745 123.88 129.134 122.949C129.524 122.018 130.149 121.205 130.948 120.59C131.748 119.974 132.693 119.578 133.693 119.439C134.692 119.3 135.71 119.424 136.647 119.799C137.583 120.173 138.406 120.786 139.035 121.575C139.663 122.364 140.074 123.304 140.229 124.301C141.391 124.504 142.482 125.003 143.396 125.75C144.309 126.497 145.015 127.467 145.446 128.566C145.876 129.664 146.016 130.855 145.853 132.024C145.69 133.193 145.228 134.3 144.513 135.239L144.241 135.642ZM134.906 133.626H143.203C143.649 132.904 143.899 132.077 143.926 131.228C143.953 130.38 143.758 129.539 143.359 128.789C142.961 128.04 142.372 127.408 141.653 126.956C140.934 126.505 140.11 126.25 139.261 126.216H138.253V125.208C138.246 124.5 138.041 123.809 137.661 123.211C137.282 122.614 136.742 122.135 136.104 121.829C135.466 121.522 134.755 121.4 134.051 121.477C133.348 121.554 132.68 121.826 132.123 122.263C131.566 122.7 131.143 123.284 130.901 123.949C130.659 124.614 130.608 125.334 130.754 126.027C130.9 126.719 131.237 127.357 131.726 127.868C132.216 128.379 132.839 128.743 133.525 128.918L134.463 129.16L134.251 130.107C134.18 130.439 134.143 130.777 134.14 131.116C134.159 132.007 134.424 132.876 134.906 133.626Z" fill="#404656"/>
<path d="M124.502 53.2788H112.909C111.79 53.2788 110.883 54.186 110.883 55.3051V57.8052C110.883 58.9243 111.79 59.8316 112.909 59.8316H124.502C125.622 59.8316 126.529 58.9243 126.529 57.8052V55.3051C126.529 54.186 125.622 53.2788 124.502 53.2788Z" fill="#C3C77F"/>
<path d="M124.502 60.8398H112.899C112.097 60.8398 111.328 60.5212 110.761 59.954C110.193 59.3868 109.875 58.6176 109.875 57.8155V55.3154C109.875 54.5133 110.193 53.744 110.761 53.1768C111.328 52.6096 112.097 52.291 112.899 52.291H124.502C125.305 52.291 126.074 52.6096 126.641 53.1768C127.208 53.744 127.527 54.5133 127.527 55.3154V57.8155C127.527 58.6176 127.208 59.3868 126.641 59.954C126.074 60.5212 125.305 60.8398 124.502 60.8398ZM112.899 54.2871C112.632 54.2871 112.375 54.3933 112.186 54.5823C111.997 54.7714 111.891 55.0278 111.891 55.2952V57.7953C111.891 58.0627 111.997 58.3191 112.186 58.5082C112.375 58.6972 112.632 58.8034 112.899 58.8034H124.502C124.77 58.8034 125.026 58.6972 125.215 58.5082C125.404 58.3191 125.511 58.0627 125.511 57.7953V55.2952C125.511 55.0278 125.404 54.7714 125.215 54.5823C125.026 54.3933 124.77 54.2871 124.502 54.2871H112.899Z" fill="#404656"/>
<path d="M124.472 59.8315H112.929V76.6973H124.472V59.8315Z" fill="#C3C77F"/>
<path d="M125.48 77.7057H111.921V58.8237H125.48V77.7057ZM113.937 75.6895H123.464V60.84H113.937V75.6895Z" fill="#404656"/>
<path d="M133.414 90.236L100.005 67.5938L66.5862 90.236V134.633H133.414V90.236Z" fill="#C3C77F"/>
<path d="M134.432 135.642H65.5779V89.7018L100.005 66.374L134.432 89.7018V135.642ZM67.6042 133.625H132.416V90.7704L100.015 68.8136L67.5941 90.7704L67.6042 133.625Z" fill="#404656"/>
<path d="M100.005 58.5112L61.6362 85.317C61.4976 85.4113 61.3817 85.5352 61.297 85.6799C61.2123 85.8245 61.1608 85.9861 61.1463 86.1531C61.1318 86.3201 61.1547 86.4882 61.2133 86.6453C61.2719 86.8023 61.3647 86.9444 61.485 87.0611L65.8804 91.4363L100.005 67.5944L134.12 91.4363L138.525 87.0611C138.644 86.9435 138.735 86.8012 138.793 86.6444C138.85 86.4876 138.873 86.32 138.858 86.1536C138.844 85.9872 138.793 85.826 138.709 85.6814C138.625 85.5369 138.511 85.4125 138.374 85.317L100.005 58.5112Z" fill="#84694C"/>
<path d="M134.241 92.7466L99.9649 68.824L65.689 92.7466L60.6484 87.7765C60.4265 87.5542 60.2558 87.2861 60.1482 86.991C60.0407 86.6958 59.9989 86.3807 60.0257 86.0677C60.0526 85.7547 60.1475 85.4514 60.3039 85.1789C60.4602 84.9064 60.6741 84.6713 60.9307 84.4901L99.8843 57.271L138.828 84.4901C139.086 84.6706 139.302 84.9062 139.459 85.1798C139.616 85.4535 139.71 85.7584 139.735 86.0729C139.764 86.3855 139.724 86.7007 139.615 86.9954C139.507 87.2902 139.335 87.5571 139.11 87.7765L134.241 92.7466ZM99.9649 59.7409L62.1707 86.1434C62.1535 86.1543 62.139 86.1692 62.1285 86.1867C62.118 86.2042 62.1117 86.2239 62.1102 86.2442C62.103 86.26 62.0992 86.2773 62.0992 86.2946C62.0992 86.312 62.103 86.3292 62.1102 86.345L65.9108 90.1255L99.9246 66.3642L133.928 90.1255L137.729 86.345C137.736 86.3292 137.74 86.312 137.74 86.2946C137.74 86.2773 137.736 86.26 137.729 86.2442C137.729 86.2234 137.724 86.203 137.713 86.1852C137.702 86.1673 137.687 86.1529 137.668 86.1434L99.9649 59.7409Z" fill="#404656"/>
<path d="M105.197 99.5011H120.621C121.247 99.5011 121.847 99.7496 122.289 100.192C122.732 100.634 122.98 101.234 122.98 101.86V134.634H102.818V101.86C102.818 101.549 102.88 101.24 102.999 100.953C103.119 100.665 103.295 100.404 103.516 100.185C103.737 99.9655 104 99.7922 104.288 99.6748C104.577 99.5575 104.886 99.4984 105.197 99.5011Z" fill="#F4F5F6"/>
<path d="M124.039 135.642H101.86V101.86C101.863 100.968 102.218 100.113 102.849 99.4823C103.48 98.8514 104.335 98.4958 105.227 98.4932H120.651C121.544 98.4958 122.398 98.8514 123.029 99.4823C123.66 100.113 124.016 100.968 124.018 101.86L124.039 135.642ZM103.876 133.626H122.022V101.86C122.022 101.502 121.88 101.158 121.627 100.905C121.373 100.652 121.03 100.509 120.672 100.509H105.247C104.889 100.509 104.545 100.652 104.292 100.905C104.039 101.158 103.896 101.502 103.896 101.86L103.876 133.626Z" fill="#404656"/>
<path d="M92.5451 99.501H78.1088C76.5332 99.501 75.2559 100.778 75.2559 102.354V117.929C75.2559 119.505 76.5332 120.782 78.1088 120.782H92.5451C94.1207 120.782 95.398 119.505 95.398 117.929V102.354C95.398 100.778 94.1207 99.501 92.5451 99.501Z" fill="#F4F5F6"/>
<path d="M92.535 121.791H78.1089C77.0857 121.788 76.1051 121.38 75.3816 120.657C74.6581 119.933 74.2505 118.953 74.2478 117.93V102.364C74.2478 101.339 74.6543 100.356 75.3781 99.6306C76.1019 98.9049 77.084 98.4958 78.1089 98.4932H92.535C93.5617 98.4932 94.5464 98.901 95.2724 99.627C95.9984 100.353 96.4062 101.338 96.4062 102.364V117.93C96.4035 118.955 95.9945 119.937 95.2688 120.66C94.5431 121.384 93.56 121.791 92.535 121.791ZM78.1089 100.509C77.6187 100.512 77.1495 100.709 76.8038 101.056C76.4581 101.404 76.264 101.874 76.264 102.364V117.93C76.264 118.419 76.4584 118.888 76.8044 119.234C77.1504 119.58 77.6196 119.774 78.1089 119.774H92.535C93.0252 119.775 93.4955 119.58 93.8431 119.235C94.1907 118.889 94.3873 118.42 94.39 117.93V102.364C94.3873 101.873 94.191 101.403 93.8437 101.056C93.4964 100.708 93.0262 100.512 92.535 100.509H78.1089Z" fill="#404656"/>
<path d="M107.546 117.425C108.22 117.425 108.766 116.879 108.766 116.206C108.766 115.532 108.22 114.986 107.546 114.986C106.872 114.986 106.326 115.532 106.326 116.206C106.326 116.879 106.872 117.425 107.546 117.425Z" fill="#404656"/>
<path d="M86.3351 99.501H84.3188V120.782H86.3351V99.501Z" fill="#404656"/>
<path d="M95.398 109.138H75.2559V111.154H95.398V109.138Z" fill="#404656"/>
<path d="M100.005 168.507C84.1418 168.524 68.7631 163.04 56.4906 152.988C44.2182 142.936 35.8118 128.939 32.7044 113.383C29.597 97.8267 31.9809 81.6742 39.4498 67.679C46.9187 53.6837 59.0103 42.7119 73.6633 36.634C88.3163 30.556 104.624 29.7481 119.806 34.348C134.988 38.9479 148.105 48.6707 156.92 61.8592C165.736 75.0477 169.705 90.8855 168.15 106.673C166.595 122.46 159.614 137.219 148.395 148.435C142.056 154.812 134.515 159.87 126.209 163.315C117.904 166.76 108.997 168.524 100.005 168.507ZM100.005 33.5198C84.6101 33.5133 69.689 38.8457 57.7849 48.6082C45.8809 58.3708 37.7307 71.9593 34.7233 87.058C31.7159 102.157 34.0374 117.831 41.2923 131.41C48.5471 144.988 60.2863 155.631 74.5091 161.524C88.7319 167.417 104.558 168.195 119.29 163.726C134.023 159.258 146.75 149.818 155.302 137.017C163.854 124.216 167.703 108.845 166.191 93.5238C164.68 78.2029 157.902 63.8802 147.014 52.9966C140.858 46.7961 133.534 41.8784 125.465 38.5282C117.396 35.1781 108.742 33.462 100.005 33.4795V33.5198Z" fill="#404656"/>
<path d="M147.018 51.5618L51.6536 146.926L53.0793 148.352L148.444 52.9875L147.018 51.5618Z" fill="#404656"/>
</svg>
