<svg width="200" height="200" viewBox="0 0 200 200" fill="none" xmlns="http://www.w3.org/2000/svg">
<path d="M200 0H0V200H200V0Z" fill="#F4F5F6"/>
<path d="M82.111 127.93H156.258V116.608H82.111C81.504 116.608 80.922 116.85 80.4928 117.279C80.0636 117.708 79.8225 118.29 79.8225 118.897V125.651C79.8252 126.256 80.0675 126.836 80.4963 127.263C80.9252 127.69 81.5058 127.93 82.111 127.93Z" fill="#B5BBC7"/>
<path d="M157.266 128.938H82.111C81.2385 128.938 80.4015 128.592 79.7836 127.976C79.1656 127.36 78.8171 126.524 78.8145 125.651V118.897C78.8145 118.023 79.1618 117.184 79.78 116.566C80.3982 115.948 81.2367 115.601 82.111 115.601H157.266V128.938ZM82.1312 117.617C81.7916 117.617 81.4659 117.752 81.2258 117.992C80.9857 118.232 80.8509 118.558 80.8509 118.897V125.651C80.8535 125.989 80.9896 126.312 81.2294 126.55C81.4692 126.788 81.7933 126.922 82.1312 126.922H155.25V117.617H82.1312Z" fill="#404656"/>
<path d="M156.258 116.609H82.8267V64.5898C82.8267 63.1006 83.4183 61.6723 84.4713 60.6193C85.5244 59.5662 86.9526 58.9746 88.4419 58.9746H150.612C151.351 58.9733 152.082 59.1176 152.764 59.3991C153.447 59.6807 154.067 60.0941 154.589 60.6157C155.112 61.1372 155.526 61.7567 155.809 62.4386C156.092 63.1206 156.238 63.8516 156.238 64.5898L156.258 116.609Z" fill="#C3C77F"/>
<path d="M157.266 117.617H81.8186V64.5904C81.8213 62.8337 82.5196 61.1495 83.7608 59.9064C85.0021 58.6633 86.6852 57.9624 88.4419 57.957H150.612C152.371 57.9597 154.057 58.6594 155.3 59.9028C156.543 61.1463 157.243 62.8319 157.246 64.5904L157.266 117.617ZM83.855 115.601H155.25V64.5904C155.247 63.3667 154.76 62.1938 153.894 61.3285C153.029 60.4632 151.856 59.9759 150.633 59.9733H88.4419C87.2191 59.9759 86.0473 60.4635 85.1836 61.3291C84.3199 62.1947 83.8348 63.3676 83.8348 64.5904L83.855 115.601Z" fill="#404656"/>
<path d="M156.238 68.5723H82.8267V70.5885H156.238V68.5723Z" fill="#404656"/>
<path d="M103.836 141.035C111.074 141.035 116.941 135.168 116.941 127.93C116.941 120.692 111.074 114.824 103.836 114.824C96.598 114.824 90.7305 120.692 90.7305 127.93C90.7305 135.168 96.598 141.035 103.836 141.035Z" fill="#777E90"/>
<path d="M103.836 142.043C101.044 142.043 98.3157 141.215 95.9947 139.665C93.6737 138.114 91.8647 135.91 90.7965 133.331C89.7283 130.752 89.4488 127.914 89.9934 125.176C90.5379 122.438 91.8822 119.924 93.856 117.95C95.8298 115.976 98.3446 114.632 101.082 114.087C103.82 113.543 106.658 113.822 109.237 114.89C111.816 115.958 114.02 117.767 115.571 120.088C117.122 122.409 117.949 125.138 117.949 127.93C117.949 131.673 116.462 135.263 113.816 137.909C111.169 140.556 107.579 142.043 103.836 142.043ZM103.836 115.832C101.443 115.832 99.1042 116.542 97.1148 117.871C95.1254 119.2 93.5749 121.09 92.6593 123.3C91.7436 125.511 91.5041 127.943 91.9709 130.29C92.4376 132.636 93.5898 134.792 95.2816 136.484C96.9735 138.176 99.1291 139.328 101.476 139.794C103.822 140.261 106.255 140.022 108.465 139.106C110.676 138.19 112.565 136.64 113.894 134.65C115.224 132.661 115.933 130.322 115.933 127.93C115.933 124.721 114.659 121.644 112.39 119.375C110.121 117.107 107.044 115.832 103.836 115.832Z" fill="#404656"/>
<path d="M103.836 134.261C107.332 134.261 110.167 131.427 110.167 127.93C110.167 124.434 107.332 121.599 103.836 121.599C100.339 121.599 97.5049 124.434 97.5049 127.93C97.5049 131.427 100.339 134.261 103.836 134.261Z" fill="#D3EAED"/>
<path d="M103.836 135.299C102.385 135.297 100.967 134.865 99.7612 134.058C98.5557 133.25 97.6166 132.103 97.0626 130.762C96.5087 129.421 96.3648 127.945 96.6491 126.522C96.9334 125.099 97.6332 123.792 98.66 122.767C99.6867 121.742 100.995 121.044 102.418 120.761C103.841 120.479 105.316 120.625 106.657 121.181C107.997 121.736 109.143 122.677 109.949 123.884C110.755 125.091 111.185 126.509 111.185 127.96C111.182 129.908 110.407 131.774 109.029 133.15C107.651 134.526 105.783 135.299 103.836 135.299ZM103.836 122.637C102.784 122.639 101.755 122.953 100.881 123.539C100.007 124.125 99.3267 124.957 98.9253 125.93C98.524 126.903 98.4201 127.973 98.6266 129.005C98.8331 130.037 99.3409 130.984 100.086 131.728C100.83 132.471 101.779 132.977 102.811 133.181C103.843 133.386 104.913 133.28 105.885 132.877C106.857 132.474 107.688 131.791 108.272 130.916C108.857 130.041 109.169 129.012 109.169 127.96C109.171 127.258 109.035 126.562 108.769 125.913C108.502 125.264 108.109 124.674 107.614 124.176C107.118 123.679 106.53 123.284 105.881 123.015C105.233 122.746 104.538 122.607 103.836 122.607V122.637Z" fill="#404656"/>
<path d="M198.246 124.411V110.62L189.959 80.4777C189.534 78.9627 188.626 77.6282 187.371 76.678C186.117 75.7279 184.587 75.2141 183.013 75.2153H156.258V127.93H194.738C195.668 127.924 196.559 127.552 197.216 126.893C197.873 126.234 198.243 125.342 198.246 124.411Z" fill="#C3C77F"/>
<path d="M194.728 128.938H155.25V74.207H183.033C184.833 74.214 186.581 74.8087 188.011 75.9006C189.442 76.9925 190.476 78.5218 190.957 80.2557L199.274 110.499V124.411C199.273 125.007 199.154 125.597 198.925 126.146C198.696 126.696 198.36 127.196 197.938 127.616C197.516 128.036 197.015 128.369 196.464 128.596C195.913 128.823 195.323 128.939 194.728 128.938ZM157.246 126.921H194.728C195.392 126.919 196.029 126.653 196.5 126.183C196.97 125.713 197.235 125.076 197.238 124.411V110.751L188.991 80.7396C188.621 79.4394 187.837 78.2953 186.759 77.4804C185.68 76.6654 184.365 76.2241 183.013 76.2233H157.266L157.246 126.921Z" fill="#404656"/>
<path d="M173.013 141.035C180.251 141.035 186.118 135.168 186.118 127.93C186.118 120.692 180.251 114.824 173.013 114.824C165.775 114.824 159.907 120.692 159.907 127.93C159.907 135.168 165.775 141.035 173.013 141.035Z" fill="#777E90"/>
<path d="M173.013 142.043C170.221 142.043 167.493 141.215 165.172 139.665C162.851 138.114 161.042 135.91 159.974 133.331C158.905 130.752 158.626 127.914 159.17 125.176C159.715 122.438 161.059 119.924 163.033 117.95C165.007 115.976 167.522 114.632 170.259 114.087C172.997 113.543 175.835 113.822 178.414 114.89C180.993 115.958 183.197 117.767 184.748 120.088C186.299 122.409 187.126 125.138 187.126 127.93C187.126 131.673 185.639 135.263 182.993 137.909C180.346 140.556 176.756 142.043 173.013 142.043ZM173.013 115.832C170.62 115.832 168.281 116.542 166.292 117.871C164.302 119.2 162.752 121.09 161.836 123.3C160.921 125.511 160.681 127.943 161.148 130.29C161.615 132.636 162.767 134.792 164.459 136.484C166.151 138.176 168.306 139.328 170.653 139.794C172.999 140.261 175.432 140.022 177.642 139.106C179.853 138.19 181.742 136.64 183.071 134.65C184.401 132.661 185.11 130.322 185.11 127.93C185.11 124.721 183.836 121.644 181.567 119.375C179.298 117.107 176.221 115.832 173.013 115.832Z" fill="#404656"/>
<path d="M173.013 134.261C176.509 134.261 179.344 131.427 179.344 127.93C179.344 124.434 176.509 121.599 173.013 121.599C169.516 121.599 166.682 124.434 166.682 127.93C166.682 131.427 169.516 134.261 173.013 134.261Z" fill="#D3EAED"/>
<path d="M173.013 135.299C171.561 135.299 170.142 134.869 168.935 134.062C167.728 133.256 166.788 132.11 166.232 130.769C165.677 129.428 165.531 127.952 165.815 126.528C166.098 125.105 166.797 123.797 167.823 122.771C168.85 121.744 170.157 121.045 171.581 120.762C173.005 120.479 174.48 120.624 175.821 121.18C177.162 121.735 178.308 122.676 179.115 123.883C179.921 125.09 180.352 126.509 180.352 127.96C180.352 129.907 179.579 131.773 178.202 133.15C176.826 134.526 174.959 135.299 173.013 135.299ZM173.013 122.637C171.96 122.637 170.931 122.949 170.055 123.534C169.18 124.119 168.498 124.951 168.095 125.923C167.692 126.896 167.587 127.966 167.792 128.999C167.998 130.031 168.504 130.98 169.249 131.724C169.993 132.468 170.942 132.975 171.974 133.181C173.007 133.386 174.077 133.281 175.05 132.878C176.022 132.475 176.854 131.793 177.438 130.917C178.023 130.042 178.336 129.013 178.336 127.96C178.338 127.259 178.203 126.564 177.936 125.915C177.67 125.267 177.279 124.677 176.784 124.18C176.29 123.683 175.702 123.288 175.055 123.018C174.408 122.748 173.714 122.608 173.013 122.607V122.637Z" fill="#404656"/>
<path d="M191.693 84.9741H156.238V86.9904H191.693V84.9741Z" fill="#404656"/>
<path d="M165.331 85.9824V103.594C165.333 103.931 165.403 104.264 165.535 104.573C165.666 104.883 165.858 105.164 166.099 105.399C166.34 105.634 166.625 105.819 166.938 105.944C167.251 106.069 167.585 106.13 167.922 106.125H172.962C176.662 106.118 180.301 107.066 183.527 108.877C185.514 110.002 187.756 110.603 190.04 110.621H198.195L191.643 85.9824H165.331Z" fill="#CCE7ED"/>
<path d="M198.246 111.628H190.08C187.627 111.605 185.22 110.96 183.084 109.753C180.002 108.034 176.532 107.132 173.003 107.132H167.962C167.474 107.144 166.988 107.055 166.536 106.871C166.083 106.687 165.673 106.412 165.331 106.064C165.007 105.737 164.752 105.35 164.579 104.924C164.406 104.499 164.319 104.043 164.323 103.584V85.9819C164.323 85.7145 164.429 85.4581 164.618 85.269C164.807 85.08 165.064 84.9737 165.331 84.9737H191.673C191.901 84.9659 192.124 85.0354 192.307 85.1709C192.49 85.3064 192.622 85.4998 192.681 85.7198L199.234 110.358C199.275 110.51 199.28 110.67 199.248 110.825C199.216 110.979 199.148 111.124 199.05 111.247C198.952 111.371 198.827 111.47 198.683 111.536C198.54 111.602 198.383 111.634 198.226 111.628H198.246ZM167.942 105.116H172.983C176.864 105.111 180.682 106.1 184.072 107.989C185.916 109.039 187.999 109.598 190.121 109.612H196.976L190.927 86.99H166.339V103.594C166.338 103.79 166.376 103.984 166.45 104.166C166.525 104.348 166.634 104.513 166.773 104.652C167.08 104.951 167.493 105.117 167.922 105.116H167.942Z" fill="#404656"/>
<path d="M191.764 118.504V127.93H194.788C195.25 127.93 195.708 127.839 196.134 127.662C196.561 127.485 196.949 127.226 197.276 126.899C197.603 126.572 197.862 126.184 198.039 125.758C198.215 125.331 198.306 124.873 198.306 124.411V116.608H193.659C193.156 116.608 192.674 116.808 192.319 117.164C191.963 117.519 191.764 118.001 191.764 118.504Z" fill="#D34A20"/>
<path d="M194.768 128.938H190.735V118.504C190.738 117.735 191.045 116.998 191.589 116.454C192.133 115.91 192.87 115.603 193.639 115.601H199.274V124.412C199.271 125.608 198.796 126.754 197.953 127.602C197.109 128.45 195.964 128.93 194.768 128.938ZM192.752 126.922H194.768C195.433 126.919 196.07 126.654 196.54 126.184C197.01 125.713 197.275 125.076 197.278 124.412V117.617H193.659C193.424 117.619 193.2 117.714 193.034 117.88C192.869 118.045 192.774 118.269 192.772 118.504L192.752 126.922Z" fill="#404656"/>
<path d="M49.0046 100.126H30.3747C29.8123 100.126 29.3564 100.582 29.3564 101.144V116.558C29.3564 117.121 29.8123 117.576 30.3747 117.576H49.0046C49.5669 117.576 50.0228 117.121 50.0228 116.558V101.144C50.0228 100.582 49.5669 100.126 49.0046 100.126Z" fill="#C3C77F"/>
<path d="M49.0043 118.585H30.3744C29.8396 118.585 29.3268 118.372 28.9487 117.994C28.5706 117.616 28.3582 117.103 28.3582 116.568V101.144C28.3582 100.609 28.5706 100.097 28.9487 99.7185C29.3268 99.3404 29.8396 99.1279 30.3744 99.1279H49.0043C49.5391 99.1279 50.0519 99.3404 50.43 99.7185C50.8081 100.097 51.0206 100.609 51.0206 101.144V116.548C51.0232 116.815 50.9731 117.079 50.8729 117.326C50.7728 117.573 50.6247 117.798 50.4372 117.987C50.2497 118.176 50.0266 118.327 49.7806 118.429C49.5347 118.532 49.2708 118.585 49.0043 118.585ZM30.3744 101.134V116.548H49.0144V101.144L30.3744 101.134Z" fill="#404656"/>
<path d="M36.4534 107.324L38.4192 105.882L39.397 107.324L41.6452 104.622L42.9154 106.003V100.126H36.4534V107.324Z" fill="#D6AA30"/>
<path d="M35.4453 109.32V99.1177H43.9236V108.594L41.6855 106.154L39.3165 109.007L38.1773 107.314L35.4453 109.32ZM38.6612 104.451L39.4778 105.65L41.615 103.09L41.9073 103.412V101.134H37.4615V105.338L38.6612 104.451Z" fill="#404656"/>
<path d="M62.7654 117.708V128.242C62.7694 129.838 63.4035 131.367 64.5296 132.497L72.1812 140.148C72.45 140.419 72.7697 140.633 73.1218 140.78C73.4738 140.926 73.8514 141.001 74.2327 141.001C74.614 141.001 74.9915 140.926 75.3436 140.78C75.6957 140.633 76.0153 140.419 76.2842 140.148C76.8253 139.603 77.129 138.865 77.129 138.097C77.129 137.328 76.8253 136.591 76.2842 136.045L69.1568 128.918V114.804L62.7654 117.708Z" fill="#3F8167"/>
<path d="M74.2376 142.043C73.7248 142.045 73.2168 141.945 72.7428 141.75C72.2687 141.554 71.838 141.267 71.4753 140.904L63.8137 133.283C62.5137 131.956 61.7892 130.17 61.7974 128.313V117.708C61.7978 117.514 61.8542 117.324 61.9597 117.161C62.0652 116.999 62.2154 116.87 62.3922 116.79L68.7736 113.887C68.933 113.809 69.1101 113.774 69.2871 113.787C69.4641 113.799 69.6348 113.858 69.7817 113.957C69.9237 114.048 70.0405 114.174 70.1216 114.322C70.2026 114.47 70.2452 114.636 70.2454 114.804V128.545L77.0805 135.38C77.6275 135.925 78.0002 136.621 78.1513 137.379C78.3025 138.137 78.2252 138.922 77.9293 139.636C77.6335 140.35 77.1323 140.96 76.4894 141.388C75.8466 141.817 75.0909 142.045 74.3182 142.043H74.2376ZM63.7734 118.353V128.242C63.7717 128.9 63.901 129.552 64.1537 130.16C64.4064 130.767 64.7774 131.318 65.2452 131.781L72.8968 139.443C73.2582 139.766 73.7301 139.939 74.2152 139.926C74.7004 139.912 75.1617 139.712 75.5042 139.369C75.8468 139.025 76.0443 138.563 76.0563 138.078C76.0682 137.592 75.8935 137.121 75.5683 136.761L68.4409 129.634C68.3475 129.539 68.2736 129.428 68.2234 129.305C68.1732 129.182 68.1478 129.05 68.1486 128.918V116.367L63.7734 118.353Z" fill="#404656"/>
<path d="M62.3721 115.58L54.8919 123.06C53.7658 124.19 53.1318 125.719 53.1277 127.315V138.142C53.1277 138.523 53.2029 138.9 53.3489 139.251C53.4949 139.603 53.7089 139.922 53.9787 140.191C54.2484 140.46 54.5686 140.673 54.9207 140.818C55.2729 140.962 55.6502 141.036 56.031 141.035C56.4114 141.036 56.7882 140.962 57.1398 140.817C57.4915 140.673 57.8109 140.459 58.0799 140.191C58.3488 139.922 58.5619 139.602 58.7068 139.25C58.8517 138.899 58.9257 138.522 58.9243 138.142V128.061L67.5841 119.401C68.0869 118.902 68.4857 118.308 68.7573 117.654C69.029 117 69.1682 116.298 69.1668 115.59H62.3721V115.58Z" fill="#3F8167"/>
<path d="M56.0312 142.043C54.9955 142.043 54.0022 141.633 53.2689 140.901C52.5356 140.17 52.1224 139.178 52.1197 138.142V127.315C52.1115 125.457 52.8359 123.672 54.1359 122.345L61.6161 114.875C61.7095 114.779 61.8209 114.704 61.9437 114.652C62.0666 114.6 62.1985 114.573 62.3319 114.572H69.1266C69.394 114.572 69.6504 114.678 69.8394 114.868C70.0285 115.057 70.1347 115.313 70.1347 115.58C70.1374 116.421 69.9731 117.255 69.6512 118.032C69.3293 118.809 68.8563 119.514 68.2596 120.107L59.8923 128.474V138.142C59.8923 139.17 59.4868 140.156 58.7639 140.887C58.0409 141.617 57.0589 142.033 56.0312 142.043ZM62.7855 116.588L55.6078 123.766C54.668 124.708 54.1389 125.984 54.1359 127.315V138.142C54.1708 138.619 54.3851 139.066 54.7358 139.392C55.0864 139.718 55.5474 139.899 56.0261 139.899C56.5049 139.899 56.9659 139.718 57.3165 139.392C57.6672 139.066 57.8815 138.619 57.9164 138.142V128.061C57.9201 127.795 58.0288 127.541 58.2188 127.355L66.8684 118.695C67.4505 118.123 67.8564 117.395 68.0378 116.599L62.7855 116.588Z" fill="#404656"/>
<path d="M63.0877 104.844L61.8174 106.235C58.3698 110.046 53.8209 112.688 48.8027 113.796C48.4688 113.87 48.1226 113.868 47.7896 113.79C47.4566 113.713 47.1452 113.561 46.8783 113.348C46.6114 113.134 46.3958 112.863 46.2473 112.555C46.0988 112.247 46.0212 111.91 46.0203 111.568C46.0213 111.034 46.2096 110.518 46.5522 110.109C46.8949 109.7 47.3702 109.424 47.8954 109.33C50.1076 108.916 52.1934 107.994 53.9884 106.637C55.7834 105.279 57.2384 103.523 58.2386 101.507L59.1762 99.6016H67.846C68.1962 99.6016 68.5321 99.7407 68.7798 99.9884C69.0275 100.236 69.1666 100.572 69.1666 100.922V115.58H59.0854V109.088" fill="#72BAA2"/>
<path d="M69.1667 116.588H59.0856C58.8182 116.588 58.5618 116.482 58.3727 116.293C58.1837 116.104 58.0775 115.847 58.0775 115.58V110.822C55.3363 112.714 52.2556 114.059 49.0044 114.784C48.5211 114.896 48.0185 114.898 47.5344 114.789C47.0503 114.679 46.5973 114.462 46.2093 114.152C45.8213 113.843 45.5084 113.45 45.2941 113.002C45.0798 112.554 44.9697 112.064 44.972 111.568C44.9726 110.801 45.2407 110.058 45.7302 109.467C46.2197 108.876 46.8999 108.475 47.6535 108.332C49.7122 107.946 51.6533 107.088 53.324 105.825C54.9946 104.562 56.3492 102.929 57.2811 101.053L58.2186 99.1578C58.3017 98.9881 58.4309 98.8452 58.5913 98.7454C58.7517 98.6456 58.937 98.5929 59.1259 98.5933H67.7957C68.4125 98.5959 69.0033 98.8421 69.4395 99.2783C69.8756 99.7144 70.1218 100.305 70.1245 100.922V115.58C70.1248 115.839 70.0255 116.088 69.8472 116.276C69.6689 116.463 69.4253 116.575 69.1667 116.588ZM60.0937 114.572H68.1586V100.922C68.1586 100.839 68.1257 100.76 68.0671 100.701C68.0085 100.642 67.929 100.609 67.8461 100.609H59.7812L59.1158 101.95C58.0417 104.109 56.4808 105.988 54.5564 107.44C52.632 108.892 50.3967 109.877 48.0266 110.318C47.7879 110.364 47.5675 110.478 47.3911 110.645C47.2146 110.812 47.0895 111.027 47.0302 111.262C46.971 111.498 46.9802 111.746 47.0566 111.977C47.1331 112.208 47.2737 112.412 47.462 112.566C47.6103 112.684 47.7831 112.769 47.9679 112.812C48.1528 112.856 48.345 112.858 48.5306 112.818C53.3468 111.754 57.7123 109.217 61.0212 105.559L62.2914 104.168C62.3774 104.061 62.4845 103.973 62.6059 103.908C62.7274 103.844 62.8607 103.805 62.9977 103.794C63.1347 103.784 63.2724 103.801 63.4025 103.845C63.5326 103.889 63.6522 103.96 63.754 104.052C63.8559 104.144 63.9378 104.256 63.9948 104.381C64.0518 104.506 64.0826 104.642 64.0854 104.779C64.0881 104.917 64.0627 105.053 64.0108 105.18C63.9589 105.308 63.8815 105.423 63.7834 105.519L62.5233 106.92C61.758 107.755 60.9433 108.542 60.0836 109.279L60.0937 114.572Z" fill="#404656"/>
<path d="M57.9768 83.1792H66.4551C66.8085 83.1792 67.1585 83.2488 67.4851 83.3841C67.8117 83.5194 68.1084 83.7176 68.3584 83.9676C68.6083 84.2175 68.8065 84.5143 68.9418 84.8408C69.0771 85.1674 69.1467 85.5174 69.1467 85.8709V90.9115C69.1467 92.3927 68.5583 93.8132 67.5109 94.8606C66.4635 95.908 65.043 96.4964 63.5617 96.4964C62.0805 96.4964 60.66 95.908 59.6126 94.8606C58.5652 93.8132 57.9768 92.3927 57.9768 90.9115V83.1792Z" fill="#E2C093"/>
<path d="M58.1379 83.3311H67.6646L68.582 84.3392L68.9852 87.9482C68.9852 87.9482 68.9248 89.9644 68.9248 90.0854C68.9248 90.2064 68.8643 92.3739 68.8643 92.3739C68.535 92.4608 68.1966 92.5082 67.8562 92.515C67.7553 92.515 65.6585 91.7287 65.5778 91.648L64.0757 90.0451L63.3499 88.9362L59.9223 88.5833L58.2287 88.4926L58.1379 83.3311Z" fill="#BA7F6C"/>
<path d="M63.5819 97.525C61.8333 97.525 60.1563 96.8304 58.9198 95.5939C57.6834 94.3575 56.9888 92.6805 56.9888 90.9319V83.1795C56.9888 82.9121 57.095 82.6557 57.2841 82.4667C57.4731 82.2776 57.7295 82.1714 57.9969 82.1714H66.4751C67.4564 82.1714 68.3974 82.5612 69.0913 83.255C69.7851 83.9489 70.1749 84.8899 70.1749 85.8712V90.9118C70.1776 91.7793 70.009 92.6388 69.6788 93.441C69.3487 94.2432 68.8635 94.9725 68.251 95.5868C67.6385 96.2012 66.9108 96.6886 66.1096 97.0212C65.3084 97.3538 64.4494 97.525 63.5819 97.525ZM59.005 84.1876V90.942C59.005 92.1559 59.4872 93.32 60.3455 94.1783C61.2039 95.0366 62.368 95.5189 63.5819 95.5189C64.7957 95.5189 65.9598 95.0366 66.8182 94.1783C67.6765 93.32 68.1587 92.1559 68.1587 90.942V85.9014C68.1587 85.4549 67.9813 85.0267 67.6656 84.711C67.3499 84.3952 66.9216 84.2179 66.4751 84.2179L59.005 84.1876Z" fill="#404656"/>
<path d="M68.552 93.5531C65.2655 93.5531 62.594 91.1638 62.594 88.2201V87.6858C62.594 87.4185 62.7002 87.1621 62.8893 86.973C63.0783 86.784 63.3347 86.6777 63.6021 86.6777C63.8695 86.6777 64.1259 86.784 64.315 86.973C64.504 87.1621 64.6102 87.4185 64.6102 87.6858V88.2201C64.6102 90.0549 66.3744 91.5369 68.552 91.5369C68.8193 91.5369 69.0757 91.6431 69.2648 91.8321C69.4538 92.0212 69.5601 92.2776 69.5601 92.545C69.5601 92.8123 69.4538 93.0688 69.2648 93.2578C69.0757 93.4469 68.8193 93.5531 68.552 93.5531Z" fill="#404656"/>
<path d="M63.6321 89.5309H58.6722C58.4048 89.5309 58.1484 89.4247 57.9593 89.2356C57.7703 89.0465 57.6641 88.7901 57.6641 88.5228C57.6641 88.2554 57.7703 87.999 57.9593 87.8099C58.1484 87.6208 58.4048 87.5146 58.6722 87.5146H63.6321C63.8995 87.5146 64.1559 87.6208 64.3449 87.8099C64.534 87.999 64.6402 88.2554 64.6402 88.5228C64.6402 88.7901 64.534 89.0465 64.3449 89.2356C64.1559 89.4247 63.8995 89.5309 63.6321 89.5309Z" fill="#404656"/>
<path d="M16.6038 117.708V128.242C16.5997 129.838 15.9656 131.367 14.8396 132.497L7.18798 140.148C6.92066 140.419 6.60207 140.635 6.25075 140.782C5.89942 140.929 5.52236 141.005 5.14151 141.005C4.76065 141.005 4.38359 140.929 4.03226 140.782C3.68094 140.635 3.36235 140.419 3.09503 140.148C2.82467 139.879 2.6101 139.56 2.4637 139.208C2.3173 138.856 2.24194 138.478 2.24194 138.097C2.24194 137.715 2.3173 137.338 2.4637 136.986C2.6101 136.634 2.82467 136.314 3.09503 136.045L10.2224 128.918V114.804L16.6038 117.708Z" fill="#016FD0"/>
<path d="M5.14135 142.043C4.62842 142.046 4.12008 141.947 3.64589 141.751C3.17169 141.555 2.74108 141.268 2.3791 140.904C1.64775 140.171 1.23706 139.178 1.23706 138.142C1.23706 137.106 1.64775 136.113 2.3791 135.38L9.21415 128.545V114.804C9.21443 114.635 9.25702 114.469 9.33804 114.321C9.41906 114.174 9.5359 114.048 9.67787 113.957C9.81905 113.867 9.98055 113.813 10.1478 113.801C10.315 113.788 10.4827 113.818 10.6356 113.887L17.027 116.79C17.202 116.871 17.3501 117 17.4538 117.163C17.5574 117.326 17.6122 117.515 17.6117 117.707V128.242C17.6202 129.163 17.4464 130.076 17.1003 130.929C16.7543 131.782 16.2429 132.558 15.5955 133.212L7.94391 140.864C7.58021 141.239 7.14451 141.537 6.66294 141.739C6.18137 141.942 5.66383 142.045 5.14135 142.043ZM11.19 116.367V128.958C11.1908 129.091 11.1654 129.222 11.1152 129.345C11.065 129.468 10.9911 129.58 10.8977 129.674L3.76024 136.801C3.40464 137.157 3.20487 137.639 3.20487 138.142C3.20487 138.645 3.40464 139.127 3.76024 139.483C4.11584 139.838 4.59813 140.038 5.10102 140.038C5.60392 140.038 6.08623 139.838 6.44183 139.483L14.0934 131.821C15.0271 130.88 15.5522 129.608 15.5552 128.283V118.353L11.19 116.367Z" fill="#404656"/>
<path d="M17.0069 115.58L24.477 123.06C25.603 124.19 26.2371 125.719 26.2412 127.315V138.142C26.2425 138.522 26.1686 138.899 26.0237 139.25C25.8788 139.602 25.6657 139.922 25.3967 140.191C25.1278 140.459 24.8083 140.673 24.4567 140.817C24.1051 140.962 23.7282 141.036 23.3479 141.035C22.9671 141.036 22.5898 140.962 22.2376 140.818C21.8854 140.673 21.5653 140.46 21.2955 140.191C21.0258 139.922 20.8118 139.603 20.6657 139.251C20.5197 138.9 20.4445 138.523 20.4445 138.142V128.061L11.7848 119.401C11.2852 118.9 10.8891 118.306 10.6193 117.652C10.3494 116.998 10.2111 116.298 10.2122 115.59H17.0069V115.58Z" fill="#016FD0"/>
<path d="M23.3477 142.043C22.3121 142.043 21.3187 141.633 20.5855 140.901C19.8522 140.17 19.4389 139.178 19.4363 138.142V128.474L11.079 120.107C10.4823 119.514 10.0093 118.809 9.6874 118.032C9.36551 117.255 9.20116 116.421 9.20389 115.58C9.20389 115.313 9.31009 115.057 9.49914 114.868C9.6882 114.678 9.94464 114.572 10.212 114.572H17.0067C17.1401 114.573 17.272 114.6 17.3949 114.652C17.5178 114.704 17.6291 114.779 17.7224 114.875L25.1926 122.345C25.8399 122.999 26.3514 123.775 26.6974 124.628C27.0435 125.481 27.2173 126.394 27.2088 127.315V138.142C27.2089 139.17 26.8034 140.156 26.0804 140.887C25.3575 141.617 24.3755 142.033 23.3477 142.043ZM11.331 116.588C11.5166 117.383 11.9218 118.11 12.5004 118.685L21.1601 127.345C21.3464 127.533 21.4514 127.786 21.4525 128.051V138.132C21.4874 138.609 21.7017 139.056 22.0523 139.382C22.403 139.708 22.864 139.889 23.3427 139.889C23.8214 139.889 24.2824 139.708 24.6331 139.382C24.9837 139.056 25.198 138.609 25.2329 138.132V127.315C25.237 126.657 25.1098 126.006 24.8588 125.398C24.6078 124.791 24.238 124.239 23.7711 123.776L16.5833 116.588H11.331Z" fill="#404656"/>
<path d="M16.281 104.844L17.5513 106.235C21.0023 110.042 25.5497 112.683 30.566 113.796C30.9001 113.872 31.2469 113.871 31.5807 113.794C31.9146 113.718 32.2268 113.566 32.4942 113.352C32.7615 113.138 32.9772 112.867 33.1251 112.558C33.273 112.249 33.3493 111.91 33.3484 111.568C33.3478 111.036 33.161 110.521 32.8204 110.112C32.4797 109.703 32.0067 109.426 31.4834 109.33C29.2767 108.912 27.1968 107.988 25.4074 106.631C23.618 105.273 22.1677 103.519 21.1704 101.507L20.2228 99.6016H11.5631C11.2128 99.6016 10.8769 99.7407 10.6292 99.9884C10.3816 100.236 10.2424 100.572 10.2424 100.922V115.58H20.3236V109.088" fill="#CCE7ED"/>
<path d="M20.2531 116.588H10.1719C9.90456 116.588 9.64816 116.482 9.4591 116.293C9.27004 116.104 9.16382 115.847 9.16382 115.58V100.922C9.16382 100.304 9.40916 99.7121 9.84588 99.2753C10.2826 98.8386 10.8749 98.5933 11.4926 98.5933H20.1624C20.3513 98.5929 20.5365 98.6456 20.697 98.7454C20.8574 98.8452 20.9865 98.9881 21.0697 99.1578L22.0072 101.053C22.9391 102.929 24.2937 104.562 25.9643 105.825C27.635 107.088 29.5761 107.946 31.6347 108.332C32.0776 108.397 32.5025 108.552 32.8834 108.788C33.2644 109.023 33.5934 109.333 33.8505 109.7C34.1076 110.066 34.2873 110.481 34.3788 110.92C34.4702 111.358 34.4714 111.81 34.3823 112.249C34.2931 112.688 34.1156 113.104 33.8604 113.471C33.6052 113.839 33.2778 114.151 32.8981 114.389C32.5184 114.626 32.0943 114.783 31.6518 114.851C31.2093 114.919 30.7575 114.896 30.3241 114.784C27.0724 114.061 23.9913 112.716 21.2511 110.822V115.58C21.2511 115.846 21.1463 116.101 20.9594 116.289C20.7725 116.478 20.5187 116.585 20.2531 116.588ZM11.18 114.572H19.245V109.279C18.3829 108.545 17.5681 107.757 16.8053 106.92L15.5351 105.519C15.437 105.423 15.3596 105.308 15.3077 105.18C15.2558 105.053 15.2304 104.917 15.2332 104.779C15.2359 104.642 15.2667 104.506 15.3237 104.381C15.3807 104.256 15.4626 104.144 15.5645 104.052C15.6663 103.96 15.786 103.889 15.916 103.845C16.0461 103.801 16.1839 103.784 16.3209 103.794C16.4578 103.805 16.5911 103.844 16.7126 103.908C16.834 103.973 16.9411 104.061 17.0271 104.168L18.2973 105.559C21.6079 109.215 25.9727 111.751 30.7879 112.818C30.9752 112.858 31.1689 112.856 31.3554 112.812C31.5419 112.769 31.7164 112.685 31.8666 112.566C32.0549 112.412 32.1955 112.208 32.272 111.977C32.3484 111.746 32.3576 111.498 32.2984 111.262C32.2391 111.027 32.114 110.812 31.9375 110.645C31.7611 110.478 31.5407 110.364 31.302 110.318C28.9322 109.876 26.6971 108.891 24.7729 107.439C22.8486 105.987 21.2876 104.108 20.2128 101.95L19.5474 100.609H11.4825C11.3996 100.609 11.3201 100.642 11.2615 100.701C11.2029 100.76 11.17 100.839 11.17 100.922L11.18 114.572Z" fill="#404656"/>
<path d="M15.8071 96.517C14.3259 96.517 12.9054 95.9285 11.858 94.8811C10.8106 93.8338 10.2222 92.4132 10.2222 90.932L10.2222 85.8914C10.2222 85.1775 10.5058 84.4929 11.0105 83.9881C11.5153 83.4833 12.2 83.1997 12.9138 83.1997H21.3921V90.9521C21.3921 92.4334 20.8037 93.8539 19.7563 94.9013C18.7089 95.9487 17.2883 96.5371 15.8071 96.5371V96.517Z" fill="#E2C093"/>
<path d="M21.241 83.3311H11.7042L10.7868 84.3392L10.3835 87.9482C10.3835 87.9482 10.444 89.9644 10.444 90.0854C10.444 90.2064 10.5146 92.3739 10.5146 92.3739C10.8438 92.4609 11.1823 92.5083 11.5227 92.515C11.6336 92.515 13.7305 91.7287 13.8112 91.648L15.3132 90.0451L16.029 88.9362L19.4566 88.5833L21.1502 88.4926L21.241 83.3311Z" fill="#FBF4B5"/>
<path d="M15.797 97.5253C14.0484 97.5253 12.3714 96.8307 11.1349 95.5942C9.8985 94.3578 9.20387 92.6808 9.20387 90.9322V85.8917C9.20254 85.4063 9.297 84.9254 9.48184 84.4766C9.66667 84.0278 9.93824 83.6198 10.281 83.2761C10.6237 82.9324 11.0309 82.6598 11.4792 82.4737C11.9276 82.2876 12.4082 82.1919 12.8936 82.1919H21.3718C21.6392 82.1919 21.8956 82.2981 22.0847 82.4871C22.2737 82.6762 22.3799 82.9326 22.3799 83.2V90.9423C22.3773 92.6874 21.6828 94.3603 20.4489 95.5942C19.2149 96.8282 17.5421 97.5227 15.797 97.5253ZM12.8936 84.1879C12.673 84.1879 12.4545 84.2316 12.2508 84.3163C12.0471 84.401 11.8622 84.5252 11.7067 84.6817C11.5511 84.8381 11.4281 85.0238 11.3446 85.228C11.2611 85.4322 11.2188 85.6509 11.2201 85.8715V90.9121C11.1911 91.5305 11.2878 92.1484 11.5044 92.7284C11.7211 93.3084 12.0531 93.8384 12.4805 94.2863C12.9079 94.7342 13.4217 95.0908 13.9909 95.3344C14.5601 95.5781 15.1728 95.7037 15.7919 95.7037C16.411 95.7037 17.0237 95.5781 17.5929 95.3344C18.162 95.0908 18.6759 94.7342 19.1033 94.2863C19.5307 93.8384 19.8627 93.3084 20.0794 92.7284C20.296 92.1484 20.3928 91.5305 20.3637 90.9121V84.1879H12.8936Z" fill="#404656"/>
<path d="M10.7867 93.5531C10.5193 93.5531 10.2629 93.4469 10.0738 93.2578C9.88476 93.0688 9.77856 92.8123 9.77856 92.545C9.77856 92.2776 9.88476 92.0212 10.0738 91.8321C10.2629 91.6431 10.5193 91.5369 10.7867 91.5369C12.9642 91.5369 14.7385 90.0549 14.7385 88.2201V87.6858C14.7385 87.4185 14.8447 87.1621 15.0338 86.973C15.2228 86.784 15.4792 86.6777 15.7466 86.6777C16.014 86.6777 16.2704 86.784 16.4595 86.973C16.6485 87.1621 16.7547 87.4185 16.7547 87.6858V88.2201C16.7547 91.1638 14.1135 93.5531 10.7867 93.5531Z" fill="#404656"/>
<path d="M20.6967 89.5309H15.7469C15.4795 89.5309 15.2231 89.4247 15.0341 89.2356C14.845 89.0465 14.7388 88.7901 14.7388 88.5228C14.7388 88.2554 14.845 87.999 15.0341 87.8099C15.2231 87.6208 15.4795 87.5146 15.7469 87.5146H20.6967C20.9641 87.5146 21.2205 87.6208 21.4096 87.8099C21.5987 87.999 21.7048 88.2554 21.7048 88.5228C21.7048 88.7901 21.5987 89.0465 21.4096 89.2356C21.2205 89.4247 20.9641 89.5309 20.6967 89.5309Z" fill="#404656"/>
</svg>
