<svg width="200" height="200" viewBox="0 0 200 200" fill="none" xmlns="http://www.w3.org/2000/svg">
<path d="M200 0H0V200H200V0Z" fill="#F4F5F6"/>
<path d="M115.812 63.3398H33.5801V69.7313H115.812V63.3398Z" fill="#84694C"/>
<path d="M117.072 70.9512H32.3906V62.1201H117.072V70.9512ZM34.8302 68.5116H114.623V64.5597H34.8L34.8302 68.5116Z" fill="#404656"/>
<path d="M115.812 76.1128H33.5801V82.5042H115.812V76.1128Z" fill="#84694C"/>
<path d="M117.072 83.7242H32.3906V74.8931H117.072V83.7242ZM34.8302 81.2845H114.623V77.3428H34.8L34.8302 81.2845Z" fill="#404656"/>
<path d="M41.9373 69.7314H33.5801V76.1229H41.9373V69.7314Z" fill="#84694C"/>
<path d="M43.1573 77.3428H32.3906V68.5117H43.1876L43.1573 77.3428ZM34.8 74.8931H40.7177V70.9514H34.8V74.8931Z" fill="#404656"/>
<path d="M78.8748 69.7314H70.5176V76.1229H78.8748V69.7314Z" fill="#84694C"/>
<path d="M80.0945 77.3428H69.2976V68.5117H80.0945V77.3428ZM71.707 74.8931H77.6146V70.9514H71.707V74.8931Z" fill="#404656"/>
<path d="M115.822 69.7314H107.465V76.1229H115.822V69.7314Z" fill="#84694C"/>
<path d="M117.072 77.3428H106.245V68.5117H117.072V77.3428ZM108.715 74.8931H114.623V70.9514H108.715V74.8931Z" fill="#404656"/>
<path d="M166.419 90.2466H84.1875V96.638H166.419V90.2466Z" fill="#84694C"/>
<path d="M167.649 97.8579H82.9678V89.0269H167.649V97.8579ZM85.4075 95.4183H165.21V91.4665H85.4075V95.4183Z" fill="#404656"/>
<path d="M166.419 103.03H84.1875V109.421H166.419V103.03Z" fill="#84694C"/>
<path d="M167.649 110.641H82.9678V101.81H167.649V110.641ZM85.4075 108.191H165.21V104.249H85.4075V108.191Z" fill="#404656"/>
<path d="M92.5448 96.6377H84.1875V103.029H92.5448V96.6377Z" fill="#84694C"/>
<path d="M93.7647 104.249H82.9678V95.418H93.7647V104.249ZM85.4075 101.809H91.3251V97.8576H85.4075V101.809Z" fill="#404656"/>
<path d="M129.492 96.6377H121.135V103.029H129.492V96.6377Z" fill="#84694C"/>
<path d="M130.712 104.249H119.915V95.418H130.712V104.249ZM122.355 101.809H128.262V97.8576H122.355V101.809Z" fill="#404656"/>
<path d="M166.43 96.6377H158.072V103.029H166.43V96.6377Z" fill="#84694C"/>
<path d="M167.649 104.249H156.853V95.418H167.649V104.249ZM159.292 101.809H165.21V97.8576H159.292V101.809Z" fill="#404656"/>
<path d="M139.342 117.506H57.1096V123.897H139.342V117.506Z" fill="#84694C"/>
<path d="M140.572 125.117H55.8899V116.286H140.572V125.117ZM58.3295 122.667H138.122V118.726H58.3295V122.667Z" fill="#404656"/>
<path d="M139.342 130.279H57.1096V136.67H139.342V130.279Z" fill="#84694C"/>
<path d="M140.572 137.89H55.8899V129.059H140.572V137.89ZM58.3295 135.451H138.122V131.499H58.3295V135.451Z" fill="#404656"/>
<path d="M65.4669 123.897H57.1096V130.289H65.4669V123.897Z" fill="#84694C"/>
<path d="M66.6666 131.498H55.8899V122.667H66.6666V131.498ZM58.3094 129.058H64.227V125.117H58.3094V129.058Z" fill="#404656"/>
<path d="M102.404 123.897H94.0469V130.289H102.404V123.897Z" fill="#84694C"/>
<path d="M103.624 131.498H92.8774V122.667H103.674L103.624 131.498ZM95.2667 129.058H101.184V125.117H95.2667V129.058Z" fill="#404656"/>
<path d="M139.352 123.897H130.994V130.289H139.352V123.897Z" fill="#84694C"/>
<path d="M140.572 131.498H129.775V122.667H140.572V131.498ZM132.194 129.058H138.102V125.117H132.194V129.058Z" fill="#404656"/>
</svg>
