<svg width="400" height="400" viewBox="0 0 400 400" fill="none" xmlns="http://www.w3.org/2000/svg">
<path d="M355.195 354.653C357.158 370.664 352.006 387.003 342.353 400H253.498C246.146 382.535 237.947 365.436 228.932 348.766C210.851 315.456 189.582 283.979 165.424 254.776C142.359 227.191 116.772 203.778 88.869 178.076C107.197 169.206 128.08 165.403 148.351 167.617C183.984 171.509 216.863 193.266 235.848 223.672C256.812 257.253 260.846 298.337 264.346 337.77C270.705 317.317 294.572 304.82 315.51 309.334C336.447 313.849 352.588 333.393 355.195 354.653Z" fill="url(#paint0_linear)"/>
<path d="M85.499 180.5C101.03 193.277 116.857 207.809 130.968 222.141C157.152 248.744 180.693 277.825 201.259 308.974C220.306 337.784 236.708 368.25 250.269 400H173.415C147.501 390.873 122.659 378.734 99.6224 363.745C77.4896 349.343 56.3665 331.641 44.8997 307.853C29.3353 275.564 34.7767 234.676 56.9993 206.551C65.0775 196.327 74.2041 186.928 85.499 180.5Z" fill="url(#paint1_linear)"/>
<path d="M278.496 388.412H266.015L260.078 340.272H278.498L278.496 388.412Z" fill="#DFACA1"/>
<path d="M257.102 384.846H281.172V400.001H241.947C241.947 395.981 243.544 392.127 246.386 389.284C249.228 386.442 253.083 384.846 257.102 384.846Z" fill="#404656"/>
<path d="M340.594 388.412H328.113L322.176 340.272H340.596L340.594 388.412Z" fill="#DFACA1"/>
<path d="M319.2 384.845H343.27V400H304.045C304.045 395.98 305.642 392.126 308.484 389.283C311.326 386.441 315.181 384.845 319.2 384.845Z" fill="#404656"/>
<path d="M215.887 216.252C214.99 214.929 214.393 213.426 214.139 211.847C213.885 210.269 213.98 208.654 214.418 207.116C214.856 205.578 215.625 204.155 216.673 202.947C217.72 201.739 219.019 200.776 220.479 200.124L262.906 83.1885L283.782 94.5814L235.34 206.329C236.272 208.854 236.246 211.634 235.265 214.141C234.285 216.648 232.419 218.708 230.021 219.931C227.624 221.154 224.86 221.455 222.255 220.777C219.65 220.099 217.385 218.489 215.887 216.252Z" fill="#DFACA1"/>
<path d="M334.221 238.226C332.834 237.431 331.638 236.341 330.718 235.034C329.798 233.726 329.175 232.233 328.895 230.659C328.614 229.085 328.681 227.469 329.093 225.924C329.504 224.379 330.25 222.943 331.276 221.717L318.133 98.0195L341.891 99.105L347.353 220.778C349.298 222.639 350.493 225.149 350.711 227.831C350.929 230.514 350.156 233.184 348.537 235.335C346.918 237.486 344.567 238.968 341.928 239.501C339.29 240.033 336.548 239.58 334.221 238.226V238.226Z" fill="#DFACA1"/>
<path d="M296.318 61.5292C310.127 61.5292 321.321 50.3348 321.321 36.5259C321.321 22.7169 310.127 11.5225 296.318 11.5225C282.509 11.5225 271.314 22.7169 271.314 36.5259C271.314 50.3348 282.509 61.5292 296.318 61.5292Z" fill="#DFACA1"/>
<path d="M334.058 210.093H258.678L258.768 209.507C258.904 208.63 272.203 121.511 262.394 93.0098C261.41 90.2089 261.497 87.143 262.637 84.4021C263.778 81.6613 265.892 79.4392 268.573 78.1636H268.573C282.593 71.5615 309.505 63.4318 332.219 83.1612C335.562 86.1123 338.172 89.8005 339.843 93.9342C341.515 98.0679 342.201 102.534 341.849 106.979L334.058 210.093Z" fill="#F4F5F6"/>
<path d="M273.156 134.385L239.219 127.5L255.126 89.8032C256.078 86.1519 258.44 83.0273 261.692 81.1147C264.945 79.2021 268.823 78.6576 272.477 79.6008C276.13 80.544 279.26 82.8978 281.181 86.1458C283.101 89.3939 283.655 93.271 282.72 96.9268L273.156 134.385Z" fill="#F4F5F6"/>
<path d="M316.622 147.168L314.582 100.399C313.035 91.6077 318.068 83.2966 325.808 81.9381C333.551 80.5845 341.111 86.6822 342.665 95.5386L350.333 139.239L316.622 147.168Z" fill="#F4F5F6"/>
<path d="M331.552 204.492C343.682 250.686 345.005 309.418 341.733 373.482L325.444 371.446L295.922 249.285L279.634 373.482L261.31 372.464C255.835 305.245 250.505 247.538 259.274 209.582L331.552 204.492Z" fill="#404656"/>
<path d="M312.793 55.8499C308.128 60.8186 299.466 58.1513 298.858 51.3633C298.81 50.8363 298.814 50.306 298.868 49.7796C299.182 46.7729 300.919 44.0431 300.503 40.8684C300.409 40.0782 300.114 39.3252 299.648 38.6807C295.931 33.7033 287.205 40.907 283.697 36.4011C281.546 33.6382 284.075 29.2882 282.424 26.2001C280.245 22.1245 273.793 24.135 269.746 21.9029C265.244 19.4195 265.513 12.5115 268.477 8.30977C272.091 3.18551 278.428 0.451231 284.687 0.0571697C290.945 -0.336892 297.16 1.35487 303.003 3.63186C309.642 6.21897 316.225 9.79438 320.31 15.6317C325.278 22.7304 325.756 32.2741 323.272 40.5747C321.76 45.6241 316.602 51.7924 312.793 55.8499Z" fill="#404656"/>
<path d="M56.1243 274.469H60.5474L82.6755 396.065C83.256 398.24 85.5489 400 87.7959 400H170.203C172.452 400 174.743 398.24 175.325 396.065L197.454 274.469H201.875C202.999 274.469 204.053 273.567 204.225 272.457L208.976 242.013C209.148 240.903 208.376 240 207.256 240H50.7453C49.6208 240 48.8488 240.903 49.0251 242.013L53.7757 272.457C53.9482 273.569 55.0017 274.469 56.1243 274.469Z" fill="#404656"/>
<rect y="399" width="400" height="1" fill="#404656"/>
<defs>
<linearGradient id="paint0_linear" x1="195.815" y1="167" x2="195.815" y2="400" gradientUnits="userSpaceOnUse">
<stop stop-color="#5EB191"/>
<stop offset="1" stop-color="#3F8167"/>
</linearGradient>
<linearGradient id="paint1_linear" x1="195.815" y1="167" x2="195.815" y2="400" gradientUnits="userSpaceOnUse">
<stop stop-color="#5EB191"/>
<stop offset="1" stop-color="#3F8167"/>
</linearGradient>
</defs>
</svg>
