<svg width="400" height="358" viewBox="0 0 400 358" fill="none" xmlns="http://www.w3.org/2000/svg">
<path fill-rule="evenodd" clip-rule="evenodd" d="M130.754 241.38L149.056 253.039L131.481 248.549C131.882 251.955 132.371 255.388 132.96 258.818C98.4859 246.794 62 245.596 62 245.596C62 245.596 65.3455 253.354 71.4618 264.484L82.5689 264.751L73.1881 267.582C78.2233 276.533 83.7594 285.193 89.7699 293.521L111.464 294.041L94.0973 299.282C103.133 310.911 113.808 322.153 125.775 330.31C164.377 356.622 204.264 365.346 214.865 349.794C215.695 348.576 216.321 347.245 216.751 345.814C224.41 330.004 220.09 297.102 204.534 263.116C202.591 258.91 200.386 254.829 197.931 250.9L188.334 270.169L192.358 242.615C168.758 210.036 131.755 186 131.755 186C131.755 186 130.608 194.371 130.091 207.06L139.461 213.03L129.968 210.604C129.651 220.869 129.914 231.144 130.754 241.38Z" fill="url(#paint0_linear)"/>
<path d="M209.74 100.415L198.379 99.0781L194.369 133.83L184.132 181.819C182.708 182.512 181.547 183.646 180.82 185.053C180.093 186.459 179.84 188.063 180.098 189.625C180.357 191.187 181.112 192.624 182.253 193.722C183.394 194.82 184.859 195.52 186.43 195.718C188.001 195.916 189.594 195.602 190.971 194.821C192.349 194.041 193.438 192.837 194.076 191.388C194.714 189.939 194.867 188.322 194.512 186.779C194.157 185.236 193.313 183.849 192.107 182.824L202.389 154.547L209.74 100.415Z" fill="#DFACA1"/>
<path d="M226.243 348.161H216.883L212.43 312.057L226.245 312.057L226.243 348.161Z" fill="#DFACA1"/>
<path d="M228.631 357.235L198.449 357.234V356.852C198.449 353.736 199.687 350.748 201.89 348.545C204.093 346.342 207.081 345.105 210.197 345.104H210.198L228.632 345.105L228.631 357.235Z" fill="#404656"/>
<path d="M298.08 343.056L288.889 344.83L277.67 310.226L291.234 307.606L298.08 343.056Z" fill="#DFACA1"/>
<path d="M302.144 351.511L272.51 357.234L272.438 356.859C271.847 353.8 272.496 350.632 274.241 348.051C275.986 345.47 278.685 343.688 281.744 343.097L281.745 343.097L299.845 339.602L302.144 351.511Z" fill="#404656"/>
<path d="M211.567 43.4651L217.006 53.8996L257.739 44.9154L253.277 24.6845C249.745 8.67095 235.585 -2.89399 219.572 0.63791C203.559 4.16981 196.087 19.8215 199.619 35.835L206.182 56.2868L212.824 54.822L211.567 43.4651Z" fill="#404656"/>
<path d="M197.043 158.558C197.043 158.558 193.033 178.606 198.38 208.011C203.726 237.417 205.063 250.114 205.063 250.114C205.063 250.114 201.053 254.792 203.726 257.465C206.399 260.139 203.726 265.485 203.726 265.485L209.741 330.31L230.458 326.968L227.785 266.153C227.785 266.153 230.458 260.807 229.121 259.47C227.785 258.134 230.458 250.114 230.458 250.114L233.799 186.626L254.517 256.129C254.517 256.129 252.512 258.802 254.517 260.807C256.522 262.812 260.531 272.836 260.531 272.836L273.897 319.617L295.283 315.607L283.253 262.144C283.253 262.144 284.59 258.802 282.585 256.797C282 256.184 281.573 255.438 281.34 254.623C281.108 253.808 281.076 252.949 281.249 252.119C281.249 252.119 283.253 250.114 280.58 247.441C277.907 244.768 276.57 234.075 276.57 234.075C276.57 234.075 274.566 162.567 267.883 158.558C261.2 154.548 197.043 158.558 197.043 158.558Z" fill="#404656"/>
<path d="M227.261 47.9793C237.596 47.9793 245.973 39.6015 245.973 29.267C245.973 18.9325 237.596 10.5547 227.261 10.5547C216.927 10.5547 208.549 18.9325 208.549 29.267C208.549 39.6015 216.927 47.9793 227.261 47.9793Z" fill="#DFACA1"/>
<path d="M253.63 53.2206C253.63 53.2206 267.212 51.6296 271.222 55.6394L267.212 136.503C267.212 136.503 269.886 138.508 268.549 143.186C267.773 146.257 267.773 149.472 268.549 152.542C268.549 152.542 272.559 157.221 270.554 159.225C268.549 161.23 196.373 159.894 196.373 159.894C196.373 159.894 193.7 155.216 197.709 152.542C201.719 149.869 199.714 142.518 199.714 142.518C199.714 142.518 198.378 140.513 201.719 137.172C205.061 133.83 207.734 106.43 207.734 106.43L199.046 73.0151C199.046 73.0151 207.791 63.144 217.787 62.3991L253.63 53.2206Z" fill="#F4F5F6"/>
<path d="M209.401 73.4736L199.047 73.0137C199.047 73.0137 193.032 85.043 192.364 95.7358L188.684 135.625L212.413 139.175L209.401 73.4736Z" fill="#F4F5F6"/>
<path d="M211.23 30.194L204.278 21.251C203.868 19.3681 204.22 17.3995 205.258 15.7754C206.295 14.1513 207.933 13.0038 209.813 12.5837L236.072 6.79189C237.955 6.38201 239.924 6.7341 241.548 7.77123C243.172 8.80837 244.32 10.4462 244.74 12.3269L244.754 12.3915L242.874 23.1906L242.544 23.1316C226.247 20.226 221.605 21.248 211.495 29.9653L211.23 30.194Z" fill="#404656"/>
<path d="M281.166 173.086L279.913 120.464L278.576 83.0391L262.537 85.044L271.151 174.493C270.234 175.643 269.684 177.042 269.571 178.508C269.458 179.975 269.788 181.441 270.517 182.718C271.246 183.996 272.342 185.025 273.662 185.673C274.983 186.32 276.467 186.557 277.923 186.353C279.38 186.148 280.741 185.511 281.832 184.525C282.923 183.538 283.693 182.247 284.042 180.818C284.391 179.389 284.303 177.889 283.791 176.51C283.278 175.132 282.364 173.939 281.166 173.086Z" fill="#DFACA1"/>
<path d="M259.523 56.7669L271.224 55.6387C271.224 55.6387 273.228 55.6387 275.233 62.3216C277.238 69.0046 288.26 139.636 288.26 139.636L263.872 141.849L259.523 56.7669Z" fill="#F4F5F6"/>
<path d="M101.117 302.08H103.052L112.733 355.279C112.987 356.23 113.99 357 114.973 357H151.026C152.01 357 153.013 356.23 153.267 355.279L162.948 302.08H164.883C165.375 302.08 165.836 301.686 165.911 301.2L167.989 287.881C168.065 287.395 167.727 287 167.237 287H98.7636C98.2716 287 97.9339 287.395 98.011 287.881L100.089 301.2C100.165 301.687 100.626 302.08 101.117 302.08Z" fill="#404656"/>
<rect y="357" width="400" height="1" fill="#404656"/>
<defs>
<linearGradient id="paint0_linear" x1="141.224" y1="186" x2="141.224" y2="357.502" gradientUnits="userSpaceOnUse">
<stop stop-color="#5EB191"/>
<stop offset="1" stop-color="#3F8167"/>
</linearGradient>
</defs>
</svg>
