<svg width="400" height="357" viewBox="0 0 400 357" fill="none" xmlns="http://www.w3.org/2000/svg">
<path fill-rule="evenodd" clip-rule="evenodd" d="M108.023 100.01C107.486 143.441 117.588 186.344 137.447 224.974C131.826 225.1 126.402 227.067 122.008 230.572C121.315 231.152 120.657 231.774 120.039 232.434C120.049 232.441 120.06 232.45 120.07 232.458L124.264 235.826L157.964 262.894C169.156 271.884 180.348 280.874 191.541 289.863C202.175 298.402 212.82 306.93 223.613 315.268C234.349 323.561 245.235 331.667 256.388 339.392C264.735 345.173 273.233 350.736 281.915 356H289.325L288.873 354.943L259.727 286.776C250.049 264.136 240.369 241.496 230.687 218.857C221.489 197.35 212.266 175.851 202.663 154.52C193.111 133.303 183.182 112.249 172.54 91.5543C162.132 71.3154 151.032 51.4281 138.985 32.1165C128.854 37.2048 120.804 46.5169 115.976 56.9385C109.797 70.2852 108.252 85.2988 108.023 100.01ZM141.851 30.8101C143.075 32.7721 144.289 34.7401 145.494 36.714C157.602 56.5577 168.734 76.9847 179.191 97.7416C189.664 118.528 199.464 139.647 208.93 160.908C217.981 181.238 226.729 201.7 235.477 222.162C235.959 223.29 236.441 224.417 236.923 225.544L266.068 293.711L292.485 355.495C292.312 338.909 290.656 274.212 275.609 225.987C260.344 177.056 240.752 129.367 218.318 83.4517C211.264 69.0264 203.605 54.5029 191.92 43.4941C180.24 32.4853 163.689 25.4321 148.014 28.8809C147.234 29.0513 146.461 29.248 145.697 29.4702C144.978 29.6787 144.265 29.9102 143.56 30.1641C142.984 30.3626 142.415 30.5792 141.851 30.8101ZM112.951 253.792C112.625 246.691 114.512 239.257 118.89 233.773C118.944 233.854 119.013 233.93 119.099 233.999L152.799 261.067L186.499 288.134L188.175 289.48L188.18 289.485C198.292 297.607 208.404 305.73 218.636 313.702C229.34 322.041 240.177 330.216 251.269 338.034C260.138 344.287 269.172 350.312 278.415 356H210.878C203.649 353.661 196.57 350.78 189.703 347.366C159.736 332.468 135.428 308.227 120.447 278.302C116.597 270.603 113.344 262.389 112.951 253.792Z" fill="url(#paint0_linear)"/>
<path d="M277.391 150.688C277.9 150.536 278.419 150.425 278.946 150.355L299.946 107.683L293.535 98.0713L306.774 86.5L323.419 106.868L289.52 156.202C290.355 158.069 290.603 160.145 290.23 162.156C289.856 164.166 288.88 166.016 287.43 167.457C285.98 168.899 284.125 169.865 282.112 170.227C280.099 170.589 278.024 170.33 276.163 169.483C274.301 168.637 272.742 167.244 271.691 165.489C270.641 163.734 270.15 161.702 270.283 159.661C270.417 157.62 271.168 155.669 272.438 154.066C273.708 152.463 275.435 151.284 277.391 150.688Z" fill="#DFACA1"/>
<path d="M313.24 92.4035C312.954 92.7046 312.625 92.963 312.266 93.1706L290.78 105.626C289.79 106.2 288.612 106.357 287.506 106.063C286.4 105.768 285.457 105.047 284.883 104.057C284.823 103.953 284.767 103.847 284.716 103.739L274.263 81.6616C273.819 80.7326 273.723 79.6747 273.994 78.6809C274.264 77.6872 274.883 76.8238 275.737 76.2485L289.056 67.1886C289.887 66.623 290.89 66.3656 291.891 66.4608C292.893 66.5561 293.829 66.998 294.539 67.7102L313.155 86.391C313.947 87.1855 314.4 88.2577 314.415 89.3801C314.43 90.5024 314.008 91.5866 313.237 92.4025L313.24 92.4035Z" fill="#F4F5F6"/>
<path d="M343.409 336.9L332.065 339.987L314.761 297.698L331.504 293.143L343.409 336.9Z" fill="#DFACA1"/>
<path d="M323.079 338.944L344.956 332.992L348.703 346.763L313.052 356.463C312.058 352.81 312.556 348.912 314.436 345.626C316.316 342.339 319.425 339.935 323.078 338.941H323.078L323.079 338.944Z" fill="#404656"/>
<path d="M246.432 345.557H234.674L229.081 300.211H246.432V345.557Z" fill="#DFACA1"/>
<path d="M226.275 342.198H248.948V356.475H212C212 354.6 212.369 352.744 213.086 351.012C213.804 349.28 214.855 347.706 216.18 346.38C217.506 345.054 219.08 344.003 220.812 343.285C222.544 342.568 224.4 342.198 226.275 342.198H226.275Z" fill="#404656"/>
<path d="M258.817 52.1355C271.824 52.1355 282.369 41.5909 282.369 28.5834C282.369 15.5759 271.824 5.03125 258.817 5.03125C245.809 5.03125 235.265 15.5759 235.265 28.5834C235.265 41.5909 245.809 52.1355 258.817 52.1355Z" fill="#DFACA1"/>
<path d="M245.709 313.227H229.644C228.545 313.226 227.487 312.807 226.686 312.055C225.884 311.303 225.399 310.274 225.329 309.178C220.542 233.076 223.342 178.487 234.141 137.383C234.188 137.203 234.247 137.027 234.316 136.854L235.179 134.703C235.497 133.901 236.049 133.212 236.764 132.729C237.479 132.245 238.323 131.987 239.186 131.99H272.223C272.845 131.99 273.461 132.124 274.026 132.384C274.592 132.644 275.095 133.024 275.5 133.497L279.986 138.732C280.074 138.834 280.156 138.939 280.235 139.048C300.468 167.265 318.602 222.43 339.604 296.578C339.914 297.656 339.791 298.812 339.261 299.8C338.731 300.788 337.836 301.531 336.767 301.869L319.507 307.394C318.515 307.706 317.445 307.652 316.49 307.242C315.536 306.831 314.76 306.092 314.304 305.158L269.501 212.231C269.187 211.582 268.673 211.05 268.034 210.716C267.396 210.382 266.666 210.262 265.954 210.374C265.242 210.487 264.585 210.826 264.08 211.341C263.576 211.856 263.25 212.52 263.152 213.234L249.985 309.496C249.84 310.528 249.328 311.474 248.543 312.159C247.757 312.845 246.751 313.224 245.709 313.227Z" fill="#404656"/>
<path d="M278.178 139.114H278.043L237.911 137.845C236.879 137.816 235.892 137.417 235.13 136.721C234.368 136.025 233.882 135.078 233.76 134.053C228.678 92.8759 242.624 81.8445 248.859 79.0108C249.38 78.7757 249.831 78.41 250.169 77.9491C250.507 77.4883 250.721 76.948 250.788 76.3805L251.328 72.0653C251.42 71.303 251.715 70.5792 252.181 69.9691C261.956 57.3065 275.303 53.2513 282.387 51.9625C283.512 51.7604 284.67 52.0133 285.609 52.6657C286.547 53.3181 287.187 54.3164 287.389 55.4411C287.402 55.5119 287.413 55.5829 287.422 55.6543L288.231 61.8518C288.313 62.4428 288.549 63.0019 288.914 63.4734C309.3 90.1238 286.59 129.473 281.83 137.091C281.441 137.709 280.903 138.219 280.264 138.573C279.626 138.926 278.908 139.113 278.178 139.114Z" fill="#F4F5F6"/>
<path d="M287.63 11.6535C294.78 17.2409 301.08 23.8368 306.334 31.2348C307.113 32.3337 307.907 33.6455 307.552 34.9506C307.176 36.3075 305.726 37.0123 304.429 37.5541L276.269 49.3095L268.461 52.5651C266.83 53.2421 264.982 53.921 263.378 53.2008C261.676 52.4366 260.983 50.4315 260.466 48.6383L253.112 23.1155L235.845 26.6031L235.154 26.5072C232.768 26.9263 232.152 23.6487 232.165 21.2255C232.207 13.6845 239.093 6.65177 245.752 3.11238C252.411 -0.427011 260.476 -0.74922 267.772 1.14753C275.068 3.04429 281.685 7.01135 287.63 11.6535Z" fill="#404656"/>
<path d="M274.435 197.644C275.667 196.779 276.696 195.654 277.447 194.349C278.198 193.044 278.654 191.59 278.782 190.09C278.911 188.589 278.709 187.079 278.191 185.665C277.672 184.251 276.85 182.968 275.783 181.906L283.236 91.8906L261.043 94.9438L260.621 182.398C258.953 184.309 258.045 186.766 258.068 189.303C258.091 191.839 259.045 194.279 260.748 196.16C262.45 198.04 264.784 199.23 267.306 199.504C269.828 199.777 272.363 199.116 274.43 197.645L274.435 197.644Z" fill="#DFACA1"/>
<path d="M284.687 104.851C284.272 104.851 283.859 104.791 283.46 104.673L259.635 97.6655C259.091 97.5056 258.584 97.2402 258.143 96.8844C257.702 96.5286 257.335 96.0894 257.064 95.592C256.793 95.0945 256.622 94.5484 256.562 93.985C256.501 93.4215 256.553 92.8517 256.712 92.308C256.746 92.1933 256.785 92.0801 256.828 91.9685L265.645 69.1902C266.013 68.2279 266.714 67.4299 267.621 66.9419C268.529 66.4539 269.581 66.3084 270.587 66.5321L286.327 69.9535C287.31 70.1672 288.187 70.7173 288.807 71.5088C289.427 72.3004 289.751 73.2837 289.724 74.2888L288.991 100.652C288.961 101.774 288.494 102.84 287.691 103.623C286.887 104.407 285.81 104.847 284.687 104.85V104.851Z" fill="#F4F5F6"/>
<path d="M57.7885 254.006H61.3822L79.3614 352.803C79.833 354.57 81.696 356 83.5217 356H150.478C152.305 356 154.166 354.57 154.639 352.803L172.619 254.006H176.211C177.124 254.006 177.98 253.273 178.121 252.371L181.98 227.636C182.121 226.734 181.493 226 180.583 226H53.418C52.5044 226 51.8772 226.734 52.0204 227.636L55.8803 252.371C56.0204 253.275 56.8764 254.006 57.7885 254.006Z" fill="#404656"/>
<rect y="356" width="400" height="1" fill="#404656"/>
<defs>
<linearGradient id="paint0_linear" x1="200.244" y1="28" x2="200.244" y2="356" gradientUnits="userSpaceOnUse">
<stop stop-color="#5EB191"/>
<stop offset="1" stop-color="#3F8167"/>
</linearGradient>
</defs>
</svg>
