<svg width="400" height="400" viewBox="0 0 400 400" fill="none" xmlns="http://www.w3.org/2000/svg">
<path d="M109 147C129.667 176.307 135.127 343.107 136.343 396.573C136.374 397.778 136.406 398.92 136.421 400H188.737C189.376 398.858 189.969 397.731 190.53 396.573C221.539 335.174 204.335 261.553 203.43 257.829C205.785 269.533 195.132 303.457 183.09 336.316C175.744 235.282 112.931 152.101 109 147Z" fill="url(#paint0_linear)"/>
<path d="M303.999 400L263 399.998V399.463C263 395.097 264.682 390.91 267.674 387.822C270.667 384.735 274.726 383 278.958 383H278.959L304 383.001L303.999 400Z" fill="#404656"/>
<path d="M239.999 400L199 399.998V399.463C199 395.097 200.682 390.91 203.674 387.822C206.667 384.735 210.726 383 214.958 383H214.959L240 383.001L239.999 400Z" fill="#404656"/>
<path d="M306.35 196L313.941 204.819L304.124 384.033H283.154L272.581 246.134L239.801 387.731L217.5 383.5L237.822 202.537L306.35 196Z" fill="#404656"/>
<path d="M242.866 79.6132L263.745 69.1406L295.854 69.705L323.485 83.844L307.764 162.357L314.555 203.294H314.555C288.308 209.987 260.828 210.214 234.474 203.953L234.264 203.903C234.264 203.903 249.871 148.525 243.227 131.625L242.866 79.6132Z" fill="#F4F5F6"/>
<path d="M303.273 37.7698C303.25 31.5035 300.741 25.5023 296.298 21.0836C291.855 16.6648 285.84 14.1896 279.573 14.2012C273.307 14.2128 267.301 16.7103 262.874 21.1454C258.447 25.5805 255.961 31.5909 255.961 37.8574C255.961 44.1238 258.447 50.1342 262.874 54.5694C267.301 59.0045 273.307 61.502 279.573 61.5136C285.84 61.5252 291.855 59.0499 296.298 54.6312C300.741 50.2125 303.25 44.2113 303.273 37.9449C303.273 37.8866 303.273 37.8282 303.273 37.7698Z" fill="#845453"/>
<path d="M269.021 24.2527C270.246 23.0993 271.86 22.4483 273.542 22.4286C276.07 22.3465 279.857 23.244 281.468 25.2987C282.763 26.95 282.825 29.2219 282.83 31.3206L282.844 37.1128C282.848 38.8265 282.869 40.6132 283.647 42.1398C284.426 43.6664 286.213 44.8259 287.846 44.3055C289.783 43.6882 290.634 41.114 292.614 40.6511C294.1 40.3035 295.627 41.3898 296.277 42.7712C296.826 44.2032 297.008 45.7497 296.806 47.27C296.619 50.3029 292.269 51.5061 291.653 54.4817C291.297 56.2029 290.049 59.6365 291.653 58.9169C299.045 58.1777 302.29 53.8601 305.673 49.7957L313.303 40.629C314.175 39.7188 314.844 38.6351 315.269 37.4486C315.458 36.6174 315.526 35.7632 315.47 34.9126C315.429 32.6342 315.367 30.3564 315.285 28.0792C315.213 26.0895 314.712 23.5792 312.764 23.1703C311.75 22.9577 310.409 23.3285 309.873 22.4423C309.673 21.9981 309.64 21.4961 309.782 21.0297C310.212 18.7557 310.938 16.3772 310.189 14.1872C309.06 10.8844 305.174 9.52913 301.739 8.90599C298.305 8.28285 294.45 7.74675 292.294 5.00159C291.717 4.09003 291.091 3.21034 290.419 2.36635C289.43 1.46729 288.215 0.854486 286.905 0.593688C282.641 -0.485253 278.138 -0.0855762 274.131 1.72735C272.47 2.48543 270.801 3.50629 268.979 3.39079C267.086 3.2708 265.469 1.93858 263.6 1.61449C260.581 1.09097 257.695 3.35254 256.208 6.03088C254.364 9.3496 254.195 13.8944 256.799 16.6568C258.098 18.0349 260.037 18.9816 260.576 20.7971C260.796 21.536 260.745 22.3319 260.939 23.078C261.165 23.8206 261.597 24.4842 262.184 24.9921C262.771 25.5001 263.49 25.8317 264.257 25.9488C266.103 26.2495 267.665 25.4038 269.021 24.2527Z" fill="#404656"/>
<path d="M239.983 136.858C240.433 138.013 241.13 139.054 242.025 139.91C242.92 140.766 243.993 141.415 245.166 141.812C246.34 142.208 247.586 142.343 248.817 142.206C250.048 142.068 251.234 141.663 252.291 141.018L294.687 163.429L296.06 153.101L254.864 128.809C253.663 127.105 251.878 125.9 249.848 125.424C247.817 124.947 245.683 125.232 243.849 126.224C242.014 127.216 240.608 128.847 239.895 130.807C239.183 132.767 239.214 134.92 239.983 136.858V136.858Z" fill="#845453"/>
<path d="M296.481 138.645C295.79 139.673 294.882 140.537 293.821 141.176C292.76 141.815 291.572 142.214 290.34 142.344C289.108 142.474 287.863 142.332 286.691 141.929C285.52 141.526 284.452 140.871 283.561 140.01L237.289 152.602L237.692 139.49L283.721 127.535C285.267 126.134 287.272 125.349 289.357 125.329C291.443 125.308 293.463 126.053 295.036 127.422C296.609 128.792 297.624 130.691 297.891 132.759C298.157 134.827 297.655 136.921 296.481 138.645Z" fill="#845453"/>
<path d="M314.465 84.41L323.487 83.8447C323.487 83.8447 334.05 97.7825 328.191 112.907C328.191 112.907 329.206 167.237 305.811 165.006C282.415 162.774 275.023 162.774 275.023 162.774L282.046 143.185L297.756 138.335C297.756 138.335 292.914 116.976 302.079 108.089L314.465 84.41Z" fill="#F4F5F6"/>
<path d="M249.317 83.9342L248.042 77.3979C248.042 77.3979 229.237 76.9561 225.519 105.451C225.519 105.451 208.608 148.098 225.183 153.589C241.759 159.08 259.991 153.589 259.991 153.589L258.618 134.782L240.38 131.06C240.38 131.06 249.801 118.871 244.671 108.298L249.317 83.9342Z" fill="#F4F5F6"/>
<path d="M74.4527 321.543H77.2171L91.0472 397.541C91.41 398.9 92.8431 400 94.2474 400H145.752C147.158 400 148.589 398.9 148.953 397.541L162.784 321.543H165.547C166.25 321.543 166.908 320.98 167.016 320.286L169.985 301.258C170.093 300.564 169.61 300 168.91 300H71.0908C70.388 300 69.9055 300.564 70.0157 301.258L72.9848 320.286C73.0926 320.981 73.7511 321.543 74.4527 321.543Z" fill="#404656"/>
<rect y="399" width="400" height="1" fill="#404656"/>
<defs>
<linearGradient id="paint0_linear" x1="159" y1="147" x2="159" y2="400" gradientUnits="userSpaceOnUse">
<stop stop-color="#5EB191"/>
<stop offset="1" stop-color="#3F8167"/>
</linearGradient>
</defs>
</svg>
