<svg width="24" height="31" viewBox="0 0 24 31" fill="none" xmlns="http://www.w3.org/2000/svg">
<path fill-rule="evenodd" clip-rule="evenodd" d="M24 10.4421L19.167 9.91249C19.4838 11.4748 19.4305 13.0884 19.0112 14.627L22.9063 13.0196L20.8154 15.597L22.9063 17.6325H19.6531L19.008 20.2838L18.0265 17.2722C17.3109 18.7163 16.3231 20.0122 15.1161 21.0906L13.9849 21.1122L15.2656 17.8203L17.1353 15.6647L14.954 13.5092L17.1353 10.1219L13.396 7.35045L14.3308 10.7378L13.0844 13.5092L14.3308 16.2806L12.268 21.1399H11.4266L9.34511 16.9365L10.5448 14.0912L9.0927 11.2828L10.3391 7.44591L6.5531 10.67L7.73409 14.2267L7.18878 16.6902L8.60036 18.156L9.73461 21.2015L7.82758 21.2384C7.0773 20.3944 6.41734 19.4759 5.85822 18.4978L5.11348 21.1399L4.67099 18.9843L0.782134 19.4832L3.97922 16.4808L1.72319 14.5377L4.43106 15.1289C3.89821 13.2474 3.80784 11.3721 4.22851 9.74312L0.345883 10.5438L2.62062 8.23731L0 6.9409L3.84835 6.69147L3.36847 2.97159L5.45624 7.30118C6.46585 6.06943 8.01766 5.1795 10.1927 4.86848L7.32589 1.6413L10.5105 2.75603L11.7227 0L12.7884 2.9254L16.3126 1.40727L13.3617 4.83769C15.543 5.11791 17.0636 6.06943 18.0358 7.37817L19.2823 3.64905L19.7279 6.60217L22.5323 6.3435L20.5318 8.53909L24 10.4421ZM17.7865 25.257H16.8891L15.867 30.8707L7.76525 31L6.70267 25.3093H5.76785L5.64009 22.5379L17.7585 22.7073L17.7865 25.257Z" fill="#404656"/>
</svg>
