<svg width="26" height="27" viewBox="0 0 26 27" fill="none" xmlns="http://www.w3.org/2000/svg">
<path fill-rule="evenodd" clip-rule="evenodd" d="M24.5352 14.4777L25.4642 16.8298C24.6064 18.5883 23.1757 19.8992 21.4941 20.3214L18.6697 18.4708L18.4437 18.6994L20.2243 21.8736C19.9797 23.4385 19.0413 24.9304 17.5456 26.1398L15.1548 25.3684L13.2626 27C11.1691 26.6826 9.36365 25.5049 8.5213 23.7274L8.96105 21.4007L8.85576 20.5658L6.75299 23.3147C5.29746 23.4703 3.72426 22.9973 2.22847 21.9847L2.2006 19.4104L0.0978283 18.0677C-0.211858 16.0806 0.212412 14.1063 1.38922 12.7382L3.86671 12.5604L4.1795 12.0621L1.414 10.7924C0.738879 9.3862 0.64907 7.6372 1.16005 5.7771L3.53844 4.95497L4.13614 2.49177C5.89516 1.55537 7.87405 1.37444 9.51539 2.11721L10.5095 4.25029L10.9988 4.62803L11.3302 1.71726C12.4233 0.676112 13.978 0.0730073 15.8113 0L17.3226 2.06642L19.8001 1.88549C21.1132 3.21232 21.875 4.92958 21.8285 6.64684L19.5678 8.51329L19.6731 9.03703L22.77 8.40219C24.1945 9.11004 25.3249 10.5067 26 12.3827L24.5352 14.4777ZM14.6717 13.0143L17.5889 11.7447L16.8797 10.2591L14.4022 11.6399L17.3226 6.29767L15.672 5.32001L12.9467 11.9605L13.2161 7.96097L11.5407 8.07841L11.8257 11.3034L8.79692 6.66588L7.22681 8.11651L10.5745 12.0621L7.83689 10.913L7.21752 12.5001L10.5281 13.2429L4.44892 15.3347L4.94442 16.979L10.8687 14.6015L8.98273 16.9155L10.2215 17.9281L11.8504 15.468L12.4698 20.7944L14.0895 20.4325L13.2967 15.2966L14.969 17.363L16.474 16.3282L14.3837 14.3316L19.958 15.7505L20.4195 14.0523L14.6717 13.0143Z" fill="#3F8167"/>
</svg>
