<svg width="25" height="33" viewBox="0 0 25 33" fill="none" xmlns="http://www.w3.org/2000/svg">
<path fill-rule="evenodd" clip-rule="evenodd" d="M20.8853 13.7811C23.6329 12.4725 25.3212 14.44 24.9487 17.6856C22.6102 17.9832 19.9083 16.6928 20.8853 13.7811ZM21.6516 11.334C21.7737 9.51228 23.7337 9.4212 24.9732 10.2349C24.4725 11.6922 22.9979 12.7215 21.6516 11.334ZM20.1007 6.26967C21.3676 7.63594 21.8653 9.67016 19.6427 10.3381C17.3835 8.76842 19.0046 7.02263 20.1007 6.26967ZM14.242 7.23516C11.4303 5.66547 12.4408 2.05548 16.3058 0C17.756 2.39856 18.3666 7.50235 14.242 7.23516ZM15.4815 8.5225L15.2861 14.1515L20.2808 11.3674L21.0165 12.4118L15.1762 17.3456L15.048 20.9495L12.9109 21.0436L12.7766 18.8636L5.97769 15.0593L7.48585 13.2376L12.6392 16.7019L12.1294 8.68038L15.4815 8.5225ZM8.3712 4.01987C10.6518 4.2658 12.972 5.46508 11.4058 8.00028C8.90242 8.66823 7.81862 6.16947 8.3712 4.01987ZM7.63239 11.8228C5.19002 11.5738 5.9441 8.89594 6.75924 8.02153C8.23687 8.39194 9.79083 10.6964 7.63239 11.8228ZM6.41121 20.8736C5.09538 19.5802 5.40373 17.6431 7.09812 17.552C8.64902 18.8424 7.69955 20.0417 6.41731 20.8736H6.41121ZM0 10.2106C2.26224 9.12973 6.02043 9.86751 5.51058 13.2832C3.2056 15.1565 0.116012 12.7336 0.00915907 10.2106H0ZM4.98853 15.6757C5.56554 18.138 2.52785 18.7118 0.952522 18.0226C1.35551 16.3558 2.68049 13.851 4.99769 15.6696L4.98853 15.6757ZM20.8273 24.936L7.47363 25.1515L7.20803 22.2034L20.9158 22.3856L20.8273 24.936ZM19.3008 32.8603L9.60765 33L8.24603 26.3903L20.2136 26.618L19.3008 32.8603Z" fill="#404656"/>
</svg>
