<svg width="23" height="26" viewBox="0 0 23 26" fill="none" xmlns="http://www.w3.org/2000/svg">
<path fill-rule="evenodd" clip-rule="evenodd" d="M20.4959 12.7261C20.9749 11.9397 20.978 10.9147 20.978 9.90185C20.978 5.13452 15.7613 6.08921 15.7613 6.08921C15.7613 6.08921 15.8788 2.14805 11.6109 2.14805C7.67057 2.14805 7.22864 6.03719 7.22864 6.03719C7.22864 6.03719 1.9749 5.55373 1.9749 10.3455C1.96833 11.0919 2.14997 11.8281 2.50336 12.4875L0.846888 13.2402C0.285897 12.2821 -0.00643832 11.1929 0.000107562 10.0854C0.000107562 7.13569 2.0707 4.05437 5.87194 4.05437C6.67236 1.57279 8.86966 0 11.6263 0C14.8744 0 16.6297 1.99506 17.2633 4.05131C20.6411 4.05131 22.9991 6.86336 22.9991 9.97223C23.0209 11.326 22.6346 12.6555 21.8897 13.791L20.4959 12.7261ZM9.30232 17.876C9.32704 12.31 11.7747 12.9036 12.0837 9.25621L13.0417 9.11851C14.8651 11.8938 15.3719 14.5407 14.0369 18.0137C15.817 17.4261 16.1538 14.6233 20.808 14.9537L21.2283 15.1159C21.2283 15.1159 19.9489 20.8349 13.1499 21.9303L12.4237 26L8.65333 25.3666L9.79679 22.0007C4.28036 21.2327 1.67821 14.8711 1.67821 14.8711L2.3952 14.1674C4.63576 15.9513 6.9814 14.7028 9.30232 17.876Z" fill="#404656"/>
</svg>
