<svg width="23" height="28" viewBox="0 0 23 28" fill="none" xmlns="http://www.w3.org/2000/svg">
<path fill-rule="evenodd" clip-rule="evenodd" d="M14.3668 23.8446L14.4431 21.9685C18.7134 21.7778 20.7905 19.4953 20.7905 15.64C20.7905 10.9717 17.0205 9.43964 14.5498 9.98369C14.8549 9.07069 16.1268 2.24813 10.6731 2.24813C5.39927 2.24813 6.52174 7.74807 6.72 8.81429C2.77916 8.81429 2.04406 12.3882 2.04406 14.0829C2.04406 16.3404 3.95348 18.7261 7.98583 18.7261V20.6553C-1.74732 20.6553 -2.13775 9.3177 4.40186 7.10084C3.80707 2.87348 6.63765 0 10.6548 0C14.315 0 17.2554 2.78906 16.8497 7.7512C25.985 9.36773 24.768 24.3542 14.3668 23.8446ZM5.67379 12.8134L6.10692 11.4752L9.83425 13.5982L9.99286 7.99821L12.0182 7.61675L12.5581 16.1215L17.0907 13.148L17.8501 14.5956L12.799 19.8705L13.3145 28L9.43162 27.8061L9.73664 17.3409L5.67379 12.8134Z" fill="#404656"/>
</svg>
