<svg width="40" height="25" viewBox="0 0 40 25" fill="none" xmlns="http://www.w3.org/2000/svg">
<path d="M32.4067 25C31.8064 25 31.2197 24.8284 30.7206 24.507C30.2216 24.1855 29.8326 23.7286 29.6029 23.1941C29.3732 22.6595 29.3131 22.0713 29.4302 21.5038C29.5473 20.9363 29.8364 20.4151 30.2608 20.0059C30.6852 19.5968 31.226 19.3182 31.8146 19.2053C32.4033 19.0924 33.0135 19.1504 33.568 19.3718C34.1226 19.5932 34.5965 19.9682 34.93 20.4493C35.2635 20.9304 35.4414 21.496 35.4414 22.0746C35.4414 22.4587 35.363 22.8392 35.2104 23.1941C35.0579 23.549 34.8344 23.8715 34.5526 24.1432C34.2708 24.4148 33.9362 24.6303 33.568 24.7773C33.1998 24.9243 32.8052 25 32.4067 25ZM39.6235 12.566C39.8711 13.0433 40 13.5697 40 14.1034V20.5024C40 20.8202 39.8691 21.1249 39.636 21.3496C39.4029 21.5742 39.0868 21.7005 38.7572 21.7005H37.0216C36.9252 20.5845 36.3973 19.5442 35.5425 18.7859C34.6876 18.0276 33.5684 17.6067 32.4067 17.6067C31.245 17.6067 30.1257 18.0276 29.2709 18.7859C28.4161 19.5442 27.8881 20.5845 27.7918 21.7005H16.2113C16.1149 20.5845 15.5869 19.5442 14.7321 18.7859C13.8772 18.0276 12.7579 17.6067 11.5962 17.6067C10.4345 17.6067 9.31528 18.0276 8.46044 18.7859C7.60559 19.5442 7.07762 20.5845 6.98123 21.7005H6.31141C6.1482 21.7005 5.98659 21.6695 5.8358 21.6093C5.68501 21.5491 5.548 21.4608 5.43259 21.3496C5.31718 21.2383 5.22563 21.1062 5.16318 20.9609C5.10072 20.8155 5.06858 20.6597 5.06858 20.5024V14.8564H11.0404C11.1959 14.8564 11.3498 14.8249 11.4919 14.764C11.6341 14.703 11.7614 14.614 11.8656 14.5026C11.9698 14.3912 12.0486 14.26 12.0968 14.1175C12.1451 13.9749 12.1617 13.8241 12.1457 13.675C12.1071 13.4045 11.9666 13.1572 11.7512 12.9801C11.5357 12.803 11.2602 12.7083 10.9771 12.7142H1.33333C0.979711 12.7142 0.640573 12.5788 0.390524 12.3378C0.140476 12.0967 0 11.7698 0 11.4289C0 11.088 0.140476 10.7611 0.390524 10.5201C0.640573 10.279 0.979711 10.1436 1.33333 10.1436H13.2626C13.4182 10.1436 13.572 10.1121 13.7142 10.0512C13.8563 9.99024 13.9836 9.90121 14.0878 9.78984C14.192 9.67847 14.2708 9.54725 14.319 9.40468C14.3673 9.2621 14.384 9.11135 14.3679 8.96217C14.3293 8.69175 14.1889 8.44446 13.9734 8.26733C13.7579 8.09019 13.4824 7.99556 13.1993 8.00144H4.17969C3.82607 8.00144 3.48693 7.86602 3.23688 7.62498C2.98683 7.38394 2.84636 7.05702 2.84636 6.71614C2.84636 6.37525 2.98683 6.04833 3.23688 5.80729C3.48693 5.56625 3.82607 5.43083 4.17969 5.43083H15.4848C15.6404 5.43084 15.7942 5.39935 15.9364 5.33841C16.0785 5.27746 16.2058 5.18843 16.31 5.07706C16.4142 4.96569 16.493 4.83448 16.5413 4.6919C16.5895 4.54933 16.6062 4.39857 16.5902 4.2494C16.5515 3.97897 16.4111 3.73168 16.1956 3.55455C15.9801 3.37741 15.7047 3.28279 15.4216 3.28866H5.06858V1.66383C5.06858 1.44533 5.11322 1.22898 5.19996 1.02711C5.2867 0.825244 5.41384 0.641824 5.57412 0.487322C5.73439 0.332821 5.92467 0.210265 6.13408 0.12665C6.34349 0.0430347 6.56793 -1.12524e-06 6.7946 0H27.7945C28.0212 -1.12525e-06 28.2457 0.0430347 28.4551 0.12665C28.6645 0.210266 28.8547 0.332824 29.015 0.487327C29.1753 0.64183 29.3024 0.825252 29.3892 1.02712C29.4759 1.22899 29.5206 1.44535 29.5206 1.66385V6.7346H36.1195C36.2635 6.73459 36.4047 6.77325 36.5272 6.84624C36.6497 6.91923 36.7487 7.02368 36.8132 7.14787L39.6235 12.566ZM38.4475 13.6458L35.639 8.23117H29.5206V14.082H38.4475L38.4475 13.6458ZM14.6312 22.0746C14.6312 21.496 14.4533 20.9304 14.1198 20.4493C13.7863 19.9682 13.3124 19.5933 12.7579 19.3718C12.2033 19.1504 11.5931 19.0925 11.0045 19.2053C10.4158 19.3182 9.87504 19.5968 9.45062 20.006C9.0262 20.4151 8.73716 20.9363 8.62006 21.5038C8.50295 22.0713 8.56304 22.6595 8.79273 23.194C9.02242 23.7286 9.41138 24.1855 9.91044 24.507C10.4095 24.8284 10.9962 25 11.5964 25C11.995 25 12.3896 24.9243 12.7578 24.7773C13.126 24.6303 13.4606 24.4148 13.7424 24.1432C14.0242 23.8715 14.2477 23.549 14.4002 23.1941C14.5527 22.8392 14.6312 22.4588 14.6312 22.0746Z" fill="#3F8167"/>
</svg>
