<svg width="30" height="34" viewBox="0 0 30 34" fill="none" xmlns="http://www.w3.org/2000/svg">
<path d="M22.6108 20C22.0364 20.7293 21.2956 21.0939 20.3882 21.0939C19.4694 21.0939 18.7228 20.7293 18.1485 20C17.5857 19.2707 17.3043 18.2707 17.3043 17C17.3043 15.7293 17.5857 14.7293 18.1485 14C18.7228 13.2707 19.4694 12.9061 20.3882 12.9061C21.2956 12.9061 22.0364 13.2707 22.6108 14C23.185 14.7293 23.4722 15.7293 23.4722 17C23.4722 18.2707 23.185 19.2707 22.6108 20Z" fill="#3F8167"/>
<path fill-rule="evenodd" clip-rule="evenodd" d="M15.775 0.261597C15.8375 0.310181 21.8 4.85272 28.75 4.85272C29.0815 4.85272 29.3995 4.98065 29.6339 5.20844C29.8683 5.43622 30 5.74518 30 6.06726V16.9985C30 25.1483 26.6125 29.1442 15.5125 33.8932C15.3513 33.9636 15.1767 34 15 34C14.8233 34 14.6487 33.9636 14.4875 33.8932C3.3875 29.1442 0 25.1483 0 16.9985V6.06726C0 5.74518 0.131692 5.43622 0.366119 5.20844C0.600546 4.98065 0.918486 4.85272 1.24999 4.85272C8.22501 4.85272 14.1625 0.310181 14.225 0.261597C14.4457 0.0921631 14.7187 0 15 0C15.2813 0 15.5543 0.0921631 15.775 0.261597ZM7.31667 22.6022C7.95986 22.8674 8.67775 23 9.47026 23C10.3662 23 11.1185 22.8398 11.7272 22.5193C12.3475 22.1989 12.8184 21.7735 13.14 21.2431C13.4616 20.7127 13.6224 20.1271 13.6224 19.4862C13.6224 18.7238 13.4099 18.0939 12.9849 17.5967C12.56 17.0884 12.0087 16.7679 11.331 16.6354C11.8823 16.4807 12.3417 16.1823 12.7093 15.7404C13.0883 15.2873 13.2778 14.7348 13.2778 14.0829C13.2778 13.5193 13.1285 13.0056 12.8299 12.5414C12.5427 12.0773 12.112 11.7072 11.5377 11.4309C10.9749 11.1436 10.28 11 9.45305 11C8.29297 11 7.34537 11.3094 6.61028 11.9282C5.88667 12.5469 5.5019 13.3923 5.45595 14.4641H7.60954C7.644 14 7.8163 13.6077 8.12642 13.2873C8.44803 12.9669 8.89022 12.8066 9.45305 12.8066C9.96989 12.8066 10.3719 12.9392 10.659 13.2044C10.9577 13.4586 11.107 13.8011 11.107 14.2321C11.107 14.7514 10.9117 15.1437 10.5212 15.4088C10.1307 15.674 9.64256 15.8066 9.05678 15.8066H8.14366V17.5469H9.03953C9.75167 17.5469 10.3317 17.7072 10.7796 18.0276C11.2391 18.337 11.4688 18.7956 11.4688 19.4033C11.4688 19.9227 11.2965 20.3536 10.9519 20.6961C10.6074 21.0387 10.1135 21.21 9.47026 21.21C8.79261 21.21 8.26423 21.0221 7.88521 20.6464C7.51767 20.2596 7.32816 19.7845 7.31667 19.221H5.14583C5.16879 20.0718 5.37555 20.779 5.76607 21.3425C6.15659 21.9061 6.67347 22.326 7.31667 22.6022ZM17.5282 22.2542C18.3207 22.7514 19.2741 23 20.3882 23C21.5023 23 22.4557 22.7514 23.2482 22.2542C24.0407 21.7458 24.6495 21.0442 25.0745 20.1492C25.5109 19.2431 25.7292 18.1934 25.7292 17C25.7292 15.8177 25.5109 14.7735 25.0745 13.8674C24.6495 12.9613 24.0407 12.2596 23.2482 11.7625C22.4557 11.2542 21.5023 11 20.3882 11C19.2741 11 18.3207 11.2542 17.5282 11.7625C16.7357 12.2596 16.1212 12.9613 15.6848 13.8674C15.2598 14.7735 15.0473 15.8177 15.0473 17C15.0473 18.1934 15.2598 19.2431 15.6848 20.1492C16.1212 21.0442 16.7357 21.7458 17.5282 22.2542Z" fill="#3F8167"/>
</svg>
