<svg width="34" height="34" viewBox="0 0 34 34" fill="none" xmlns="http://www.w3.org/2000/svg">
<path fill-rule="evenodd" clip-rule="evenodd" d="M32.7334 19.1964C32.2256 19.7575 31.7236 20.3126 31.5654 20.9036C31.3994 21.5259 31.5596 22.2839 31.7197 23.0384C31.9121 23.9452 32.1035 24.847 31.7246 25.5019C31.3379 26.17 30.4482 26.4574 29.5615 26.744C28.833 26.9796 28.1055 27.2147 27.6602 27.6601C27.2139 28.1058 26.9785 28.8336 26.7432 29.5628C26.457 30.4495 26.1699 31.3383 25.502 31.7246C24.8467 32.1035 23.9443 31.9123 23.0381 31.72C22.2832 31.56 21.5254 31.3994 20.9033 31.5656C20.3125 31.7234 19.7568 32.2254 19.1963 32.7329C18.5 33.3622 17.7949 34 17 34C16.2051 34 15.5 33.3622 14.8037 32.7329C14.2432 32.2254 13.6875 31.7234 13.0967 31.5656C12.4746 31.3994 11.7168 31.56 10.9619 31.72C10.0557 31.9123 9.15332 32.1035 8.49805 31.7246C7.83008 31.3381 7.54297 30.4489 7.25586 29.5619C7.02051 28.833 6.78516 28.1056 6.33984 27.6601C5.89453 27.2144 5.16699 26.9792 4.4375 26.7436C3.55078 26.457 2.66211 26.1696 2.27539 25.5019C1.89648 24.847 2.08789 23.9452 2.28027 23.0384C2.44043 22.2839 2.60059 21.5259 2.43457 20.9036C2.27637 20.3126 1.77441 19.7575 1.2666 19.1964C0.637695 18.5004 0 17.795 0 17C0 16.205 0.637695 15.4996 1.2666 14.8036C1.77441 14.2425 2.27637 13.6874 2.43457 13.0964C2.60059 12.4741 2.44043 11.7161 2.28027 10.9616C2.08789 10.0548 1.89648 9.15303 2.27539 8.49811C2.66211 7.83 3.55176 7.5426 4.43848 7.25597C5.16699 7.0204 5.89453 6.78534 6.33984 6.33986C6.78613 5.89421 7.02148 5.16641 7.25684 4.43716C7.54297 3.55052 7.83008 2.66174 8.49805 2.27536C9.15332 1.89655 10.0557 2.08774 10.9619 2.28C11.7168 2.43996 12.4746 2.60065 13.0967 2.4344C13.6875 2.27657 14.2432 1.77458 14.8037 1.26714C15.5 0.637772 16.2051 0 17 0C17.7949 0 18.5 0.637772 19.1963 1.26714C19.7568 1.77458 20.3125 2.27657 20.9033 2.4344C21.5254 2.60065 22.2832 2.43996 23.0381 2.28C23.9443 2.08774 24.8467 1.89655 25.502 2.27536C26.1699 2.66188 26.457 3.55115 26.7441 4.4381C26.9795 5.16702 27.2148 5.89439 27.6602 6.33986C28.1055 6.78563 28.833 7.0208 29.5625 7.25644C30.4492 7.54303 31.3379 7.83035 31.7246 8.49811C32.1035 9.15303 31.9121 10.0548 31.7197 10.9616C31.5596 11.7161 31.3994 12.4741 31.5654 13.0964C31.7236 13.6874 32.2256 14.2425 32.7334 14.8036C33.3623 15.4996 34 16.205 34 17C34 17.795 33.3623 18.5004 32.7334 19.1964ZM14.4307 23.4691C15.1689 23.823 16.0449 24 17.0596 24C18.0342 24 18.8906 23.7837 19.6289 23.3511C20.3799 22.9185 20.959 22.3287 21.3672 21.5815C21.7891 20.8343 22 19.9822 22 19.0253C22 18.1863 21.8291 17.4129 21.4863 16.7051C21.1436 15.9841 20.6426 15.4073 19.9844 14.9747C19.3252 14.529 18.502 14.3062 17.5137 14.3062C16.8945 14.3062 16.335 14.4111 15.834 14.6208C15.333 14.8174 14.9385 15.073 14.6484 15.3876L15.2803 12.2023H21.0518V10H13.3838L12.1973 17.8652H14.6289C14.8125 17.4326 15.1221 17.0721 15.5576 16.7837C15.9922 16.4953 16.5059 16.3511 17.0986 16.3511C17.8105 16.3511 18.3965 16.5936 18.8574 17.0787C19.332 17.5637 19.5693 18.2191 19.5693 19.045C19.5693 19.8446 19.332 20.5131 18.8574 21.0506C18.3965 21.588 17.7969 21.8567 17.0596 21.8567C16.374 21.8567 15.8008 21.6732 15.3398 21.3062C14.8789 20.926 14.5889 20.4541 14.4707 19.8905H12C12.0654 20.677 12.3027 21.3848 12.7119 22.0141C13.1328 22.6302 13.7061 23.1152 14.4307 23.4691Z" fill="#3F8167"/>
</svg>
