<svg width="26" height="34" viewBox="0 0 26 34" fill="none" xmlns="http://www.w3.org/2000/svg">
<path fill-rule="evenodd" clip-rule="evenodd" d="M13 34C13 34 0 20.0625 0 12.9468C7.26573e-08 9.51311 1.36964 6.22004 3.80761 3.79204C6.24558 1.36404 9.55218 0 13 0C16.4478 0 19.7544 1.36404 22.1924 3.79204C24.6304 6.22004 26 9.51311 26 12.9468C26 20.0625 13 34 13 34ZM18.5336 12.6756C18.5426 11.5838 18.2257 10.5139 17.6232 9.60166C17.0206 8.68945 16.1596 7.97607 15.1493 7.55202C14.1389 7.12797 13.0249 7.01236 11.9485 7.21987C10.8722 7.42738 9.88192 7.94865 9.10348 8.71754C8.32505 9.48643 7.7935 10.4683 7.57628 11.5385C7.35906 12.6088 7.46596 13.7191 7.88342 14.7288C8.30087 15.7384 9.01007 16.6018 9.92103 17.2094C10.832 17.8169 11.9036 18.1413 13 18.1414C13.7237 18.1443 14.4409 18.0053 15.1107 17.7323C15.7804 17.4592 16.3896 17.0574 16.9035 16.5499C17.4173 16.0423 17.8257 15.4389 18.1054 14.7742C18.3851 14.1095 18.5306 13.3963 18.5336 12.6756Z" fill="#3F8167"/>
</svg>
