<svg width="36" height="24" viewBox="0 0 36 24" fill="none" xmlns="http://www.w3.org/2000/svg">
<path d="M32.625 0H3.375C1.51875 0 0 1.47273 0 3.27273V20.7273C0 22.5273 1.51875 24 3.375 24H32.625C34.4813 24 36 22.5273 36 20.7273V3.27273C36 1.47273 34.4813 0 32.625 0ZM11.25 18C11.25 18.3273 11.025 18.5455 10.6875 18.5455H5.0625C4.725 18.5455 4.5 18.3273 4.5 18V14.7273C4.5 14.4 4.725 14.1818 5.0625 14.1818H10.6875C11.025 14.1818 11.25 14.4 11.25 14.7273V18ZM32.625 9.81818H3.375C2.75625 9.81818 2.25 9.32727 2.25 8.72727C2.25 8.12727 2.75625 7.63636 3.375 7.63636H32.625C33.2438 7.63636 33.75 8.12727 33.75 8.72727C33.75 9.32727 33.2438 9.81818 32.625 9.81818Z" fill="#3F8167"/>
</svg>
