<svg width="7" height="11" viewBox="0 0 7 11" fill="none" xmlns="http://www.w3.org/2000/svg">
<path d="M6.18285 5.5987C6.161 5.81501 6.06969 6.01956 5.92147 6.18426L1.95949 10.6056C1.86723 10.7157 1.75276 10.807 1.62289 10.8739C1.49303 10.9409 1.35041 10.9822 1.20352 10.9954C1.05664 11.0086 0.908484 10.9934 0.767858 10.9507C0.627233 10.9081 0.497015 10.8388 0.384936 10.747C0.272857 10.6552 0.181199 10.5429 0.115427 10.4165C0.0496563 10.2902 0.0111074 10.1525 0.0020675 10.0117C-0.00697239 9.87084 0.0136804 9.72969 0.0628046 9.59663C0.111929 9.46356 0.18853 9.3413 0.288033 9.23711L3.63783 5.5L0.288033 1.76289C0.188529 1.6587 0.111928 1.53644 0.0628041 1.40338C0.0136798 1.27031 -0.00697298 1.12916 0.00206689 0.988305C0.0111068 0.847452 0.0496557 0.709775 0.115427 0.583457C0.181198 0.457139 0.272856 0.344759 0.384935 0.252994C0.497015 0.161228 0.627232 0.0919515 0.767857 0.0492822C0.908483 0.00661287 1.05664 -0.00857917 1.20352 0.00460919C1.35041 0.0177976 1.49303 0.0590993 1.62289 0.126056C1.75276 0.193012 1.86722 0.284258 1.95949 0.394371L5.92147 4.81574C6.01771 4.92281 6.09043 5.04731 6.13534 5.18182C6.18024 5.31632 6.1964 5.4581 6.18285 5.5987Z" fill="#3F8167"/>
</svg>
