<svg width="12" height="14" viewBox="0 0 12 14" fill="none" xmlns="http://www.w3.org/2000/svg">
<path d="M5.89232 6.74493C5.65635 6.72109 5.43321 6.62148 5.25354 6.45979L0.430276 2.13763C0.310154 2.03697 0.210613 1.9121 0.137572 1.77043C0.06453 1.62876 0.0194778 1.47317 0.00509216 1.31294C-0.00929348 1.1527 0.0072813 0.991074 0.0538315 0.837664C0.100382 0.684255 0.175957 0.5422 0.276066 0.419931C0.376175 0.297663 0.498774 0.197672 0.636577 0.125922C0.774379 0.0541716 0.924572 0.0121183 1.07823 0.00225639C1.23189 -0.00760508 1.38587 0.014925 1.53103 0.0685153C1.67619 0.122106 1.80957 0.20567 1.92323 0.314219L6.00003 3.96854L10.0769 0.314219C10.1906 0.20567 10.324 0.122106 10.4691 0.0685153C10.6143 0.014925 10.7683 -0.00760508 10.9219 0.00225639C11.0756 0.0121183 11.2258 0.0541716 11.3636 0.125922C11.5014 0.197672 11.624 0.297663 11.7241 0.419931C11.8242 0.5422 11.8998 0.684255 11.9463 0.837664C11.9929 0.991074 12.0094 1.1527 11.995 1.31294C11.9806 1.47317 11.9356 1.62876 11.8625 1.77043C11.7895 1.9121 11.69 2.03697 11.5698 2.13763L6.74647 6.45979C6.62966 6.56477 6.49385 6.64411 6.34711 6.69309C6.20037 6.74208 6.04571 6.75971 5.89232 6.74493Z" fill="#777E90"/>
<path d="M5.89232 13.4949C5.65635 13.4711 5.43321 13.3715 5.25354 13.2098L0.430276 8.88763C0.310154 8.78697 0.210613 8.6621 0.137572 8.52043C0.06453 8.37876 0.0194778 8.22317 0.00509216 8.06294C-0.00929347 7.9027 0.0072813 7.74107 0.0538315 7.58766C0.100382 7.43425 0.175957 7.2922 0.276066 7.16993C0.376175 7.04766 0.498774 6.94767 0.636577 6.87592C0.774379 6.80417 0.924572 6.76212 1.07823 6.75226C1.23189 6.74239 1.38587 6.76493 1.53103 6.81852C1.67619 6.87211 1.80957 6.95567 1.92323 7.06422L6.00003 10.7185L10.0769 7.06422C10.1906 6.95567 10.324 6.87211 10.4691 6.81852C10.6143 6.76493 10.7683 6.74239 10.9219 6.75226C11.0756 6.76212 11.2258 6.80417 11.3636 6.87592C11.5014 6.94767 11.624 7.04766 11.7241 7.16993C11.8242 7.2922 11.8998 7.43425 11.9463 7.58766C11.9929 7.74107 12.0094 7.9027 11.995 8.06294C11.9806 8.22317 11.9356 8.37876 11.8625 8.52043C11.7895 8.6621 11.69 8.78697 11.5698 8.88763L6.74647 13.2098C6.62966 13.3148 6.49385 13.3941 6.34711 13.4431C6.20037 13.4921 6.04571 13.5097 5.89232 13.4949Z" fill="#3F8167"/>
</svg>
