<svg width="11" height="16" viewBox="0 0 11 16" fill="none" xmlns="http://www.w3.org/2000/svg">
<path d="M5.4013 15.1829C5.18499 15.161 4.98044 15.0697 4.81574 14.9215L0.394369 10.9595C0.284256 10.8672 0.193009 10.7528 0.126053 10.6229C0.0590963 10.493 0.0177967 10.3504 0.00460809 10.2035C-0.00858051 10.0566 0.00661126 9.90848 0.0492806 9.76786C0.09195 9.62723 0.161226 9.49702 0.252991 9.38494C0.344756 9.27286 0.457138 9.1812 0.583456 9.11543C0.709774 9.04966 0.84745 9.01111 0.988303 9.00207C1.12916 8.99303 1.27031 9.01368 1.40337 9.0628C1.53644 9.11193 1.6587 9.18853 1.76289 9.28803L5.5 12.6378L9.23711 9.28803C9.3413 9.18853 9.46356 9.11193 9.59662 9.0628C9.72969 9.01368 9.87084 8.99303 10.0117 9.00207C10.1525 9.01111 10.2902 9.04966 10.4165 9.11543C10.5429 9.1812 10.6552 9.27286 10.747 9.38494C10.8388 9.49702 10.908 9.62723 10.9507 9.76786C10.9934 9.90848 11.0086 10.0566 10.9954 10.2035C10.9822 10.3504 10.9409 10.493 10.8739 10.6229C10.807 10.7528 10.7157 10.8672 10.6056 10.9595L6.18426 14.9215C6.07719 15.0177 5.95269 15.0904 5.81818 15.1353C5.68368 15.1802 5.5419 15.1964 5.4013 15.1829V15.1829Z" fill="#3F8167"/>
<path d="M5.4013 6.18285C5.18499 6.161 4.98044 6.06969 4.81574 5.92147L0.394369 1.95949C0.284256 1.86723 0.193009 1.75276 0.126053 1.62289C0.0590963 1.49303 0.0177967 1.35041 0.00460809 1.20352C-0.00858051 1.05664 0.00661126 0.908483 0.0492806 0.767858C0.09195 0.627233 0.161226 0.497015 0.252991 0.384936C0.344756 0.272857 0.457138 0.181199 0.583456 0.115428C0.709774 0.0496563 0.84745 0.0111074 0.988303 0.00206762C1.12916 -0.00697213 1.27031 0.0136805 1.40337 0.0628048C1.53644 0.111929 1.6587 0.18853 1.76289 0.288033L5.5 3.63783L9.23711 0.288033C9.3413 0.18853 9.46356 0.111929 9.59662 0.0628048C9.72969 0.0136805 9.87084 -0.00697213 10.0117 0.00206762C10.1525 0.0111074 10.2902 0.0496563 10.4165 0.115428C10.5429 0.181199 10.6552 0.272857 10.747 0.384936C10.8388 0.497015 10.908 0.627233 10.9507 0.767858C10.9934 0.908483 11.0086 1.05664 10.9954 1.20352C10.9822 1.35041 10.9409 1.49303 10.8739 1.62289C10.807 1.75276 10.7157 1.86723 10.6056 1.95949L6.18426 5.92147C6.07719 6.01771 5.95269 6.09043 5.81818 6.13534C5.68368 6.18024 5.5419 6.1964 5.4013 6.18285V6.18285Z" fill="#404656"/>
</svg>
