<svg width="60" height="60" viewBox="0 0 60 60" fill="none" xmlns="http://www.w3.org/2000/svg">
<circle cx="30" cy="30" r="30" fill="url(#paint0_linear)"/>
<path d="M15.4735 41.6328C14.4242 41.914 13.4544 42.0055 12.5643 41.9074C11.6701 41.7944 10.9128 41.4924 10.2922 41.0015C9.66772 40.4956 9.23924 39.809 9.00682 38.9416C8.96675 38.792 8.93629 38.6479 8.91543 38.5092C8.89056 38.3556 8.8657 38.202 8.84083 38.0483L11.9432 37.2171C11.9721 37.3857 12.0045 37.5372 12.0406 37.6718C12.2129 38.3149 12.5813 38.7772 13.1457 39.0588C13.7213 39.3213 14.4045 39.3466 15.1953 39.1347C16.0774 38.8983 16.7112 38.4961 17.0969 37.9279C17.4785 37.3448 17.5731 36.6943 17.3808 35.9765C17.2365 35.4381 16.9322 35.0628 16.4679 34.8506C16.0035 34.6384 15.4468 34.5071 14.7976 34.4566C14.1636 34.4021 13.4972 34.3483 12.7983 34.2951C11.6985 34.2051 10.7982 33.9174 10.0977 33.4319C9.3971 32.9464 8.93261 32.2774 8.7042 31.425C8.43572 30.423 8.45983 29.4788 8.77653 28.5925C9.10442 27.6872 9.6685 26.9029 10.4688 26.2397C11.2842 25.5724 12.2927 25.0777 13.4941 24.7558C14.9388 24.3687 16.1943 24.401 17.2607 24.8525C18.3271 25.3041 19.0185 26.1207 19.3351 27.3021C19.3632 27.4068 19.3856 27.521 19.4025 27.6447C19.4345 27.7644 19.459 27.886 19.4758 28.0098L16.3507 28.8471C16.3298 28.7085 16.3033 28.5793 16.2713 28.4597C16.1471 27.9961 15.8564 27.6412 15.3992 27.395C14.9421 27.1488 14.3637 27.1195 13.6642 27.3069C12.8886 27.5147 12.3268 27.8817 11.9787 28.4077C11.6419 28.9147 11.5536 29.4673 11.7139 30.0655C11.8382 30.5291 12.0904 30.8623 12.4707 31.0649C12.847 31.2526 13.3217 31.3819 13.8949 31.4527C14.464 31.5086 15.0904 31.5651 15.774 31.6224C16.4881 31.6715 17.1613 31.8117 17.7938 32.0429C18.4374 32.2552 18.989 32.5802 19.4486 33.0181C19.9235 33.4518 20.257 34.0276 20.4494 34.7455C20.7299 35.7924 20.7006 36.778 20.3615 37.7023C20.0224 38.6267 19.4319 39.4341 18.59 40.1245C17.7442 40.8 16.7053 41.3027 15.4735 41.6328Z" fill="white"/>
<path d="M26.9138 38.5674C25.6364 38.9097 24.6249 38.8761 23.8796 38.4667C23.1302 38.0424 22.6473 37.4265 22.4309 36.6189C22.1103 35.4225 22.3653 34.3363 23.1959 33.3604C24.0265 32.3845 25.2934 31.6683 26.9967 31.212L29.8709 30.4418L29.8444 30.1604C29.8356 30.0666 29.8191 29.9748 29.7951 29.8851C29.7822 29.7763 29.7658 29.6846 29.7458 29.6098C29.5935 29.0415 29.2988 28.6716 28.8617 28.5002C28.4206 28.3139 27.9186 28.2961 27.356 28.4469C26.7629 28.6058 26.2535 28.8946 25.8278 29.3132C25.4132 29.7128 25.1717 30.2103 25.103 30.8057L22.2516 31.5698C22.2633 30.7011 22.4704 29.8922 22.8728 29.1432C23.2904 28.3902 23.8677 27.7466 24.6047 27.2125C25.3378 26.6635 26.1834 26.2606 27.1414 26.0039C28.5405 25.629 29.7176 25.6422 30.6727 26.0434C31.643 26.4406 32.2825 27.215 32.591 28.3665C32.6311 28.5161 32.6676 28.6826 32.7004 28.8662C32.7293 29.0347 32.7506 29.2054 32.7643 29.378L33.3657 36.5501L30.7652 37.2469L30.4165 35.489C30.1277 36.1754 29.7009 36.8027 29.1359 37.3709C28.5822 37.92 27.8415 38.3188 26.9138 38.5674ZM27.3848 36.0368C28.2213 35.8127 28.8411 35.3581 29.2443 34.673C29.6627 33.9839 29.895 33.2083 29.9412 32.3464L27.4775 33.0066C26.7171 33.2103 26.1565 33.5208 25.7956 33.9381C25.4348 34.3554 25.3244 34.8257 25.4647 35.3492C25.5649 35.723 25.7855 35.9685 26.1265 36.0855C26.4788 36.1834 26.8982 36.1672 27.3848 36.0368Z" fill="white"/>
<path d="M35.697 35.9254L34.289 18.9915L37.2089 18.2091L38.6168 35.143L35.697 35.9254Z" fill="white"/>
<path d="M46.6904 33.2682C45.1849 33.6716 43.8693 33.5673 42.7436 32.9553C41.6331 32.3392 40.8836 31.3058 40.4949 29.8552C40.2424 28.913 40.1713 27.9784 40.2814 27.0512C40.3916 26.1241 40.6743 25.2629 41.1295 24.4678C41.5807 23.6576 42.184 22.959 42.9395 22.3719C43.7061 21.7657 44.6065 21.3241 45.6406 21.047C46.6443 20.7781 47.5557 20.7423 48.3746 20.9396C49.1895 21.1219 49.8773 21.4987 50.4378 22.0698C51.0095 22.6219 51.4096 23.3241 51.638 24.1766C51.7342 24.5355 51.7963 24.9195 51.8245 25.3288C51.8638 25.7189 51.8759 26.0683 51.8608 26.3769L43.2609 28.6813C43.293 28.8009 43.327 28.928 43.3631 29.0626C43.5635 29.8104 43.9499 30.34 44.5223 30.6514C45.0907 30.9479 45.7399 30.9984 46.4699 30.8028C47.0478 30.6479 47.5232 30.3843 47.8961 30.0119C48.2802 29.6205 48.5606 29.1767 48.7373 28.6805L51.7028 27.8859C51.5454 28.6975 51.2387 29.4689 50.7826 30.2002C50.3418 30.9274 49.7701 31.5615 49.0674 32.1024C48.38 32.6392 47.5877 33.0278 46.6904 33.2682ZM45.878 23.4839C45.1784 23.6714 44.571 24.0505 44.0557 24.6214C43.5363 25.1773 43.2404 25.8977 43.1678 26.7827L48.8023 25.273C48.7854 25.1493 48.771 25.065 48.759 25.0201C48.5978 24.358 48.2523 23.8896 47.7223 23.6149C47.1923 23.3401 46.5775 23.2965 45.878 23.4839Z" fill="white"/>
<defs>
<linearGradient id="paint0_linear" x1="30" y1="0" x2="30" y2="60" gradientUnits="userSpaceOnUse">
<stop stop-color="#3F4C81"/>
<stop offset="1" stop-color="#3F4C81" stop-opacity="0.5"/>
</linearGradient>
</defs>
</svg>
