<svg width="90" height="90" viewBox="0 0 90 90" fill="none" xmlns="http://www.w3.org/2000/svg">
<circle cx="45" cy="45" r="45" fill="url(#paint0_linear)"/>
<path d="M33.502 59.3854V51H38.9603V52.2339H35.0477V54.5818H38.2116V55.7917H35.0477V59.3854H33.502Z" fill="white"/>
<path d="M39.8754 59.3854V53.4438H41.252L41.3969 54.5578C41.6143 54.1745 41.9082 53.871 42.2785 53.6474C42.6569 53.4158 43.0996 53.3 43.6068 53.3V54.9172H43.1721C42.834 54.9172 42.5321 54.9691 42.2664 55.0729C42.0007 55.1767 41.7914 55.3564 41.6385 55.612C41.4936 55.8675 41.4211 56.2229 41.4211 56.6781V59.3854H39.8754Z" fill="white"/>
<path d="M47.2259 59.5292C46.6221 59.5292 46.0868 59.4014 45.6198 59.1458C45.1529 58.8903 44.7866 58.5309 44.5209 58.0677C44.2552 57.6045 44.1224 57.0694 44.1224 56.4625C44.1224 55.8476 44.2512 55.3005 44.5088 54.8214C44.7745 54.3422 45.1368 53.9708 45.5957 53.7073C46.0626 53.4358 46.61 53.3 47.238 53.3C47.8257 53.3 48.3449 53.4278 48.7958 53.6833C49.2466 53.9389 49.5968 54.2903 49.8464 54.7375C50.104 55.1767 50.2328 55.6679 50.2328 56.2109C50.2328 56.2988 50.2288 56.3906 50.2207 56.4865C50.2207 56.5823 50.2167 56.6821 50.2086 56.7859H45.656C45.6882 57.2491 45.8493 57.6125 46.1391 57.876C46.4369 58.1396 46.7952 58.2714 47.2138 58.2714C47.5278 58.2714 47.7894 58.2035 47.9988 58.0677C48.2161 57.924 48.3771 57.7403 48.4818 57.5167H50.0517C49.9389 57.892 49.7498 58.2354 49.4841 58.5469C49.2265 58.8503 48.9044 59.0899 48.518 59.2656C48.1396 59.4413 47.7089 59.5292 47.2259 59.5292ZM47.238 54.5458C46.8596 54.5458 46.5255 54.6536 46.2357 54.8693C45.9459 55.0769 45.7607 55.3964 45.6802 55.8276H48.6629C48.6388 55.4363 48.4939 55.1248 48.2282 54.8932C47.9625 54.6616 47.6325 54.5458 47.238 54.5458Z" fill="white"/>
<path d="M54.2016 59.5292C53.5978 59.5292 53.0624 59.4014 52.5955 59.1458C52.1286 58.8903 51.7623 58.5309 51.4966 58.0677C51.2309 57.6045 51.0981 57.0694 51.0981 56.4625C51.0981 55.8476 51.2269 55.3005 51.4845 54.8214C51.7502 54.3422 52.1125 53.9708 52.5714 53.7073C53.0383 53.4358 53.5857 53.3 54.2137 53.3C54.8014 53.3 55.3206 53.4278 55.7715 53.6833C56.2223 53.9389 56.5725 54.2903 56.8221 54.7375C57.0797 55.1767 57.2085 55.6679 57.2085 56.2109C57.2085 56.2988 57.2045 56.3906 57.1964 56.4865C57.1964 56.5823 57.1924 56.6821 57.1843 56.7859H52.6317C52.6639 57.2491 52.8249 57.6125 53.1148 57.876C53.4126 58.1396 53.7709 58.2714 54.1895 58.2714C54.5035 58.2714 54.7651 58.2035 54.9744 58.0677C55.1918 57.924 55.3528 57.7403 55.4575 57.5167H57.0273C56.9146 57.892 56.7254 58.2354 56.4598 58.5469C56.2022 58.8503 55.8801 59.0899 55.4937 59.2656C55.1153 59.4413 54.6846 59.5292 54.2016 59.5292ZM54.2137 54.5458C53.8353 54.5458 53.5012 54.6536 53.2114 54.8693C52.9216 55.0769 52.7364 55.3964 52.6559 55.8276H55.6386C55.6145 55.4363 55.4696 55.1248 55.2039 54.8932C54.9382 54.6616 54.6081 54.5458 54.2137 54.5458Z" fill="white"/>
<path d="M23 71.3646V62.9792H25.8861C26.8763 62.9792 27.6895 63.1549 28.3255 63.5063C28.9695 63.8497 29.4445 64.3368 29.7504 64.9677C30.0644 65.5906 30.2214 66.3253 30.2214 67.1719C30.2214 68.0184 30.0644 68.7571 29.7504 69.388C29.4445 70.0109 28.9695 70.4981 28.3255 70.8495C27.6895 71.1929 26.8763 71.3646 25.8861 71.3646H23ZM24.5457 70.0469H25.8137C26.5221 70.0469 27.0816 69.9351 27.4922 69.7115C27.9028 69.4799 28.1966 69.1524 28.3738 68.7292C28.5509 68.2979 28.6394 67.7788 28.6394 67.1719C28.6394 66.5729 28.5509 66.0578 28.3738 65.6266C28.1966 65.1953 27.9028 64.8639 27.4922 64.6323C27.0816 64.4007 26.5221 64.2849 25.8137 64.2849H24.5457V70.0469Z" fill="white"/>
<path d="M34.2177 71.5083C33.6139 71.5083 33.0786 71.3806 32.6116 71.125C32.1447 70.8694 31.7784 70.5101 31.5127 70.0469C31.2471 69.5837 31.1142 69.0486 31.1142 68.4417C31.1142 67.8267 31.243 67.2797 31.5006 66.8005C31.7663 66.3214 32.1286 65.95 32.5875 65.6865C33.0544 65.4149 33.6018 65.2792 34.2298 65.2792C34.8175 65.2792 35.3367 65.4069 35.7876 65.6625C36.2384 65.9181 36.5886 66.2694 36.8382 66.7167C37.0958 67.1559 37.2246 67.647 37.2246 68.1901C37.2246 68.278 37.2206 68.3698 37.2125 68.4656C37.2125 68.5615 37.2085 68.6613 37.2004 68.7651H32.6479C32.6801 69.2283 32.8411 69.5917 33.1309 69.8552C33.4288 70.1187 33.787 70.2505 34.2056 70.2505C34.5196 70.2505 34.7813 70.1826 34.9906 70.0469C35.2079 69.9031 35.3689 69.7194 35.4736 69.4958H37.0435C36.9308 69.8712 36.7416 70.2146 36.4759 70.526C36.2183 70.8295 35.8963 71.0691 35.5098 71.2448C35.1315 71.4205 34.7007 71.5083 34.2177 71.5083ZM34.2298 66.525C33.8514 66.525 33.5173 66.6328 33.2275 66.8484C32.9377 67.0561 32.7525 67.3755 32.672 67.8068H35.6547C35.6306 67.4154 35.4857 67.104 35.22 66.8724C34.9543 66.6408 34.6243 66.525 34.2298 66.525Z" fill="white"/>
<path d="M38.2831 71.3646V62.7396H39.8288V71.3646H38.2831Z" fill="white"/>
<path d="M41.9999 64.5005C41.7182 64.5005 41.4847 64.4167 41.2995 64.249C41.1224 64.0813 41.0339 63.8696 41.0339 63.6141C41.0339 63.3585 41.1224 63.1509 41.2995 62.9911C41.4847 62.8234 41.7182 62.7396 41.9999 62.7396C42.2817 62.7396 42.5111 62.8234 42.6883 62.9911C42.8734 63.1509 42.966 63.3585 42.966 63.6141C42.966 63.8696 42.8734 64.0813 42.6883 64.249C42.5111 64.4167 42.2817 64.5005 41.9999 64.5005ZM41.2271 71.3646V65.4229H42.7728V71.3646H41.2271Z" fill="white"/>
<path d="M45.7628 71.3646L43.565 65.4229H45.1832L46.7047 69.9151L48.2263 65.4229H49.8444L47.6345 71.3646H45.7628Z" fill="white"/>
<path d="M53.1933 71.5083C52.5895 71.5083 52.0542 71.3806 51.5872 71.125C51.1203 70.8694 50.754 70.5101 50.4883 70.0469C50.2226 69.5837 50.0898 69.0486 50.0898 68.4417C50.0898 67.8267 50.2186 67.2797 50.4762 66.8005C50.7419 66.3214 51.1042 65.95 51.5631 65.6865C52.03 65.4149 52.5774 65.2792 53.2054 65.2792C53.7931 65.2792 54.3123 65.4069 54.7632 65.6625C55.214 65.9181 55.5642 66.2694 55.8138 66.7167C56.0714 67.1559 56.2002 67.647 56.2002 68.1901C56.2002 68.278 56.1962 68.3698 56.1881 68.4656C56.1881 68.5615 56.1841 68.6613 56.176 68.7651H51.6234C51.6556 69.2283 51.8167 69.5917 52.1065 69.8552C52.4044 70.1187 52.7626 70.2505 53.1812 70.2505C53.4952 70.2505 53.7568 70.1826 53.9662 70.0469C54.1835 69.9031 54.3445 69.7194 54.4492 69.4958H56.0191C55.9063 69.8712 55.7172 70.2146 55.4515 70.526C55.1939 70.8295 54.8719 71.0691 54.4854 71.2448C54.107 71.4205 53.6763 71.5083 53.1933 71.5083ZM53.2054 66.525C52.827 66.525 52.4929 66.6328 52.2031 66.8484C51.9133 67.0561 51.7281 67.3755 51.6476 67.8068H54.6303C54.6062 67.4154 54.4613 67.104 54.1956 66.8724C53.9299 66.6408 53.5999 66.525 53.2054 66.525Z" fill="white"/>
<path d="M57.2587 71.3646V65.4229H58.6354L58.7803 66.537C58.9976 66.1536 59.2915 65.8502 59.6618 65.6266C60.0402 65.395 60.483 65.2792 60.9902 65.2792V66.8964H60.5554C60.2173 66.8964 59.9154 66.9483 59.6497 67.0521C59.3841 67.1559 59.1748 67.3356 59.0218 67.5911C58.8769 67.8467 58.8044 68.2021 58.8044 68.6573V71.3646H57.2587Z" fill="white"/>
<path d="M62.5538 74L63.9425 70.9693H63.5802L61.2496 65.4229H62.9281L64.6067 69.6036L66.3577 65.4229H68L64.1961 74H62.5538Z" fill="white"/>
<path fill-rule="evenodd" clip-rule="evenodd" d="M61.6655 25.6955L61.8479 30.6678L70 31.4404L69.1615 39.914L66.2928 41.0276C66.087 38.0237 64.1383 35.1142 60.4388 35.1142C56.619 35.1142 54.5809 38.3401 54.6431 41.5084H45.5127C45.5127 39.0428 44.3171 36.5772 41.9841 35.5786L53.9171 35.4964L55.4427 21.6477L66.1064 21.9272L67.7097 25.6955H61.6655ZM52.1159 33.8239L28.8554 33.5732C28.8554 33.5732 29.7172 24.6558 30.0743 20.5793C30.2723 18.3356 31.7435 17 33.9096 17C37.0851 17 48.4126 17.1151 50.5204 17.1151C52.6283 17.1151 53.8356 18.2862 53.5095 21.3971C53.0398 25.9462 52.1159 33.8239 52.1159 33.8239ZM33.9096 40.3989L28.145 39.2113L28.5836 35.6731L37.2403 35.595C36.3413 36.0219 35.562 36.688 34.9783 37.5284C34.3946 38.3688 34.0264 39.3549 33.9096 40.3907V40.3989ZM19.3563 21.8409L20.0434 20.1971L28.0052 19.0465L27.6947 22.297L19.3563 21.8409ZM27.1395 28.0584L12 27.594L12.4425 26.1927L27.4656 24.5818L27.1395 28.0584ZM26.9066 30.4665L26.5844 33.8033L15.8819 33.3472L16.472 31.7034L26.9066 30.4665ZM39.6549 36.6593C45.3846 36.6593 45.5283 46 40.0431 46C33.5564 46 34.0183 36.6593 39.6549 36.6593ZM39.8412 43.2796C42.1238 43.2796 42.0617 39.3839 39.6743 39.3839C37.2869 39.3839 37.1239 43.2796 39.8412 43.2796ZM60.4621 36.6593C66.1918 36.6593 66.3355 46 60.8503 46C54.3597 46 54.8372 36.6593 60.4582 36.6593H60.4621ZM60.6445 43.2796C62.9271 43.2796 62.865 39.3839 60.4776 39.3839C58.0902 39.3839 57.9349 43.2796 60.6407 43.2796H60.6445Z" fill="white"/>
<defs>
<linearGradient id="paint0_linear" x1="45" y1="0" x2="45" y2="90" gradientUnits="userSpaceOnUse">
<stop stop-color="#3F8167"/>
<stop offset="1" stop-color="#3F8167" stop-opacity="0.5"/>
</linearGradient>
</defs>
</svg>
