<svg width="416" height="43" viewBox="0 0 416 43" fill="none" xmlns="http://www.w3.org/2000/svg">
<path d="M226.777 0H184V42.7278H226.777V0Z" fill="#00B67A"/>
<path d="M205.48 29.0698L212.11 27.6808L214.756 35.7997L205.48 29.0698ZM220.461 18.1729L196.203 35.7832L199.742 24.9028L190.482 18.1729H201.941L205.48 7.29248L209.018 18.1729H220.461Z" fill="white"/>
<path d="M274.054 0.000488281H231.277V42.7283H274.054V0.000488281Z" fill="#00B67A"/>
<path d="M252.657 0.000488281H231.277V42.7283H252.657V0.000488281Z" fill="#00B67A"/>
<path d="M253.168 28.8809L258.839 27.6573L261.468 35.9581L252.572 29.3274L243.312 35.9581L246.901 25.0447L237.492 18.2982H249.116L252.705 7.36816L256.309 18.2982H267.934L253.168 28.8809Z" fill="white"/>
<path d="M321.343 0.000488281H278.565V42.7283H321.343V0.000488281Z" fill="#00B67A"/>
<path d="M299.946 0.000488281H278.565V42.7283H299.946V0.000488281Z" fill="#00B67A"/>
<path d="M300.031 29.0698L306.662 27.6808L309.307 35.7997L300.031 29.0698ZM315.028 18.1729L290.771 35.7832L294.309 24.9028L285.05 18.1729H296.509L300.047 7.29248L303.586 18.1729H315.028Z" fill="white"/>
<path d="M368.638 0.000488281H325.861V42.7283H368.638V0.000488281Z" fill="#00B67A"/>
<path d="M416 0.000488281H373.222V42.7283H416V0.000488281Z" fill="#00B67A"/>
<path d="M347.241 0.000488281H325.861V42.7283H347.241V0.000488281Z" fill="#00B67A"/>
<path d="M394.603 0.000488281H373.222V42.7283H394.603V0.000488281Z" fill="#00B67A"/>
<path d="M347.341 29.0698L353.972 27.6808L356.617 35.7997L347.341 29.0698ZM362.322 18.1729L338.064 35.7832L341.603 24.9028L332.343 18.1729H343.802L347.341 7.29248L350.879 18.1729H362.322Z" fill="white"/>
<path d="M394.705 29.0698L401.336 27.6808L403.981 35.7997L394.705 29.0698ZM409.686 18.1729L385.428 35.7832L388.967 24.9028L379.707 18.1729H391.166L394.705 7.29248L398.243 18.1729H409.686Z" fill="white"/>
<path d="M145.636 21.3319H147.966V17.1725H151.028V21.3319H153.801V23.6042H151.028V30.9986C151.028 31.326 151.047 31.5956 151.066 31.8267C151.086 32.0577 151.163 32.2503 151.259 32.4236C151.355 32.5777 151.509 32.7125 151.702 32.7895C151.914 32.8665 152.164 32.905 152.511 32.905C152.723 32.905 152.954 32.905 153.165 32.8858C153.377 32.8665 153.608 32.8473 153.82 32.7895V35.158C153.474 35.1965 153.146 35.2158 152.838 35.2736C152.511 35.3121 152.183 35.3313 151.856 35.3313C151.047 35.3313 150.392 35.2543 149.892 35.1003C149.41 34.9462 149.006 34.7151 148.736 34.4263C148.448 34.1374 148.274 33.7716 148.159 33.3287C148.062 32.8858 148.005 32.3658 147.985 31.8074V23.6427H145.655V21.3319H145.636ZM137.703 33.1361C138.377 33.1361 138.973 32.9821 139.474 32.7125C139.975 32.4236 140.379 32.0577 140.707 31.5956C141.034 31.1334 141.265 30.6135 141.419 30.0358C141.573 29.4581 141.65 28.8612 141.65 28.245C141.65 27.648 141.573 27.0703 141.419 26.4734C141.265 25.8764 141.034 25.3758 140.707 24.9136C140.379 24.4515 139.975 24.0856 139.474 23.816C138.973 23.5272 138.377 23.3924 137.703 23.3924C137.029 23.3924 136.432 23.5464 135.931 23.816C135.43 24.1048 135.026 24.4707 134.699 24.9136C134.371 25.3758 134.14 25.8764 133.986 26.4734C133.832 27.0703 133.755 27.648 133.755 28.245C133.755 28.8612 133.832 29.4389 133.986 30.0358C134.14 30.6135 134.371 31.1334 134.699 31.5956C135.026 32.0577 135.43 32.4429 135.931 32.7125C136.432 33.0013 137.029 33.1361 137.703 33.1361ZM137.703 35.5624C136.586 35.5624 135.604 35.3698 134.737 35.004C133.87 34.6381 133.139 34.1182 132.523 33.4827C131.926 32.828 131.463 32.0577 131.155 31.172C130.847 30.2862 130.674 29.2848 130.674 28.2257C130.674 27.1666 130.828 26.2038 131.155 25.318C131.463 24.4322 131.926 23.6619 132.523 23.0072C133.12 22.3525 133.87 21.8518 134.737 21.486C135.604 21.1201 136.605 20.9275 137.703 20.9275C138.819 20.9275 139.802 21.1201 140.668 21.486C141.535 21.8518 142.266 22.3718 142.883 23.0072C143.479 23.6619 143.942 24.4322 144.25 25.318C144.558 26.2038 144.731 27.1859 144.731 28.2257C144.731 29.2848 144.577 30.2862 144.25 31.172C143.942 32.0577 143.479 32.828 142.883 33.4827C142.286 34.1374 141.535 34.6381 140.668 35.004C139.802 35.3698 138.819 35.5624 137.703 35.5624ZM125.224 16.0557H128.286V35.1773H125.224V16.0557ZM119.428 21.3319H122.49V35.1773H119.428V21.3319ZM119.428 16.0557H122.49V18.9441H119.428V16.0557ZM113.998 28.2642C113.998 27.648 113.921 27.0318 113.748 26.4349C113.594 25.8379 113.343 25.318 113.016 24.8751C112.688 24.413 112.284 24.0471 111.803 23.7775C111.321 23.5079 110.763 23.3538 110.127 23.3538C108.837 23.3538 107.855 23.7967 107.2 24.6825C106.546 25.5683 106.218 26.7622 106.218 28.245C106.218 28.9382 106.295 29.5929 106.469 30.1899C106.642 30.7868 106.892 31.3067 107.239 31.7304C107.586 32.154 107.99 32.5006 108.452 32.751C108.933 33.0013 109.492 33.1361 110.108 33.1361C110.821 33.1361 111.398 32.9821 111.88 32.7125C112.361 32.4236 112.765 32.0577 113.074 31.6148C113.382 31.1527 113.613 30.6328 113.748 30.0551C113.94 29.4581 113.998 28.8804 113.998 28.2642ZM103.272 21.3319H106.18V23.1998H106.238C106.68 22.391 107.277 21.8133 108.048 21.4667C108.818 21.1201 109.646 20.9468 110.551 20.9468C111.649 20.9468 112.592 21.1394 113.42 21.5245C114.229 21.9096 114.922 22.4295 115.461 23.1035C116.001 23.7775 116.405 24.567 116.675 25.4528C116.944 26.3386 117.079 27.3014 117.079 28.322C117.079 29.2463 116.963 30.1514 116.713 31.0179C116.463 31.8844 116.097 32.6547 115.615 33.3287C115.134 34.0026 114.499 34.5226 113.748 34.9462C112.997 35.3506 112.111 35.5432 111.071 35.5432C110.628 35.5432 110.166 35.5046 109.723 35.4276C109.28 35.3506 108.837 35.2158 108.433 35.0425C108.028 34.8692 107.624 34.6381 107.297 34.3493C106.95 34.0604 106.661 33.7523 106.411 33.3672H106.353V40.2802H103.291V21.3319H103.272ZM92.9507 21.3319H95.2807V17.1725H98.3424V21.3319H101.115V23.6042H98.3424V30.9986C98.3424 31.326 98.3617 31.5956 98.3809 31.8267C98.4002 32.0577 98.4772 32.2503 98.5735 32.4236C98.6698 32.5777 98.8239 32.7125 99.0164 32.7895C99.2282 32.8665 99.4785 32.905 99.8252 32.905C100.037 32.905 100.268 32.905 100.48 32.8858C100.692 32.8665 100.923 32.8473 101.135 32.7895V35.158C100.788 35.1965 100.461 35.2158 100.153 35.2736C99.8252 35.3121 99.4978 35.3313 99.1704 35.3313C98.3617 35.3313 97.707 35.2543 97.2063 35.1003C96.7249 34.9462 96.3205 34.7151 96.0509 34.4263C95.7621 34.1374 95.5888 33.7716 95.4732 33.3287C95.377 32.8858 95.3192 32.3658 95.2999 31.8074V23.6427H92.9699V21.3319H92.9507ZM82.8218 30.7291C82.9181 31.6149 83.2647 32.2311 83.8424 32.5969C84.4393 32.9435 85.1518 33.1361 85.9799 33.1361C86.2687 33.1361 86.596 33.1168 86.9619 33.0783C87.3278 33.0398 87.6744 32.9435 88.0018 32.828C88.3291 32.7125 88.5795 32.5199 88.8105 32.2696C89.0224 32.0192 89.1186 31.7111 89.0994 31.326C89.0801 30.9409 88.9453 30.6135 88.6565 30.3632C88.3869 30.1128 88.0402 29.9203 87.6166 29.7662C87.193 29.6122 86.7115 29.4774 86.1724 29.3811C85.6332 29.2656 85.0941 29.15 84.5356 29.0345C83.9579 28.919 83.3995 28.7456 82.8795 28.5723C82.3596 28.399 81.8782 28.1487 81.4546 27.8406C81.0309 27.5517 80.7035 27.1474 80.4532 26.6852C80.2029 26.2231 80.0681 25.6261 80.0681 24.9329C80.0681 24.1819 80.2607 23.5464 80.6266 23.0457C80.9924 22.5258 81.4738 22.1214 82.0323 21.8133C82.6099 21.5052 83.2262 21.2934 83.9194 21.1586C84.6126 21.0431 85.2866 20.9661 85.9028 20.9661C86.6153 20.9661 87.3085 21.0431 87.9633 21.1971C88.618 21.3512 89.2149 21.5823 89.7348 21.9481C90.2547 22.2947 90.6976 22.7376 91.0442 23.2768C91.3909 23.816 91.6219 24.4707 91.7182 25.241H88.5217C88.3676 24.5092 88.0403 24.0086 87.5203 23.7775C87.0004 23.5272 86.3842 23.3924 85.7102 23.3924C85.4984 23.3924 85.2288 23.4116 84.94 23.4501C84.6319 23.4886 84.3623 23.5657 84.0927 23.6427C83.8424 23.739 83.6113 23.893 83.4187 24.0663C83.2454 24.2589 83.1492 24.49 83.1492 24.8173C83.1492 25.2025 83.2839 25.4913 83.5343 25.7224C83.7846 25.9535 84.1312 26.146 84.5548 26.3001C84.9785 26.4541 85.4599 26.5889 85.9991 26.6852C86.5382 26.8007 87.0967 26.9163 87.6744 27.0318C88.2328 27.1474 88.772 27.3207 89.3112 27.494C89.8504 27.6673 90.3318 27.9176 90.7554 28.2257C91.179 28.5338 91.5064 28.919 91.776 29.3811C92.0263 29.8433 92.1611 30.4209 92.1611 31.0949C92.1611 31.9229 91.9685 32.6162 91.5834 33.1939C91.1983 33.7523 90.7169 34.2337 90.12 34.5803C89.523 34.927 88.849 35.1965 88.1173 35.3699C87.3855 35.5239 86.6538 35.6202 85.9221 35.6202C85.0363 35.6202 84.2275 35.5239 83.4765 35.3313C82.7255 35.1388 82.0707 34.8307 81.5316 34.4455C80.9924 34.0412 80.5495 33.5405 80.2414 32.9435C79.9333 32.3466 79.76 31.6341 79.7407 30.8061H82.841V30.7291H82.8218ZM77.584 35.1773H74.5608V33.2516H74.503C74.1179 33.9449 73.5594 34.5033 72.8277 34.927C72.0767 35.3506 71.3257 35.5624 70.5554 35.5624C68.7261 35.5624 67.3974 35.1195 66.5694 34.2145C65.7606 33.3094 65.3562 31.9422 65.3562 30.1321V21.3512H68.418V29.8433C68.418 31.0564 68.6491 31.9229 69.1305 32.4236C69.5926 32.9243 70.2666 33.1746 71.0946 33.1746C71.7493 33.1746 72.2693 33.0783 72.7122 32.8858C73.1551 32.6932 73.5017 32.4236 73.752 32.0963C74.0216 31.7689 74.2141 31.3645 74.3297 30.9024C74.4452 30.4402 74.503 29.9395 74.503 29.4004V21.3704H77.5648V35.1773H77.584ZM55.3236 21.3319H58.1928V24.0086H58.2506C58.3469 23.6234 58.5202 23.2576 58.7705 22.9109C59.0209 22.5643 59.3482 22.2177 59.7141 21.9481C60.08 21.6593 60.4843 21.4282 60.9272 21.2356C61.3701 21.0623 61.8323 20.9661 62.2944 20.9661C62.641 20.9661 62.9107 20.9853 63.0455 20.9853C63.1803 20.9853 63.3151 21.0238 63.4691 21.0431V23.9893C63.2573 23.9508 63.0262 23.9315 62.7951 23.893C62.564 23.8738 62.3522 23.8545 62.1211 23.8545C61.6012 23.8545 61.1198 23.9701 60.6576 24.1626C60.1955 24.3552 59.8104 24.6825 59.4637 25.0677C59.1171 25.472 58.8476 25.9535 58.655 26.5504C58.4432 27.1474 58.3469 27.8213 58.3469 28.5916V35.1773H55.2851L55.3236 21.3319ZM40.4192 16.0557H55.9976V18.9441H49.8741V35.1773H46.5042V18.9441H40.3999L40.4192 16.0557Z" fill="white"/>
<path d="M36.8375 16.052H22.7611L18.4284 2.72656L14.0764 16.052L0 16.0327L11.3998 24.2552L7.02864 37.5614L18.4284 29.3389L29.8089 37.5614L25.457 24.2552L36.8375 16.052Z" fill="#00B67A"/>
<path d="M26.4389 27.2772L25.4568 24.2539L18.4282 29.3376L26.4389 27.2772Z" fill="#005128"/>
</svg>
