<svg width="253" height="103" viewBox="0 0 253 103" fill="none" xmlns="http://www.w3.org/2000/svg">
<path d="M46.4727 55.7025H0V102.121H46.4727V55.7025Z" fill="#00B67A"/>
<path d="M23.3343 87.2824L30.5378 85.7734L33.412 94.5937L23.3343 87.2824ZM39.6096 75.4442L13.2565 94.5757L17.1008 82.7555L7.04102 75.4442H19.49L23.3343 63.6239L27.1786 75.4442H39.6096Z" fill="white"/>
<path d="M97.834 55.7026H51.3613V102.121H97.834V55.7026Z" fill="#00B67A"/>
<path d="M74.5887 55.7026H51.3613V102.121H74.5887V55.7026Z" fill="#00B67A"/>
<path d="M75.143 87.0776L81.3047 85.7483L84.161 94.7662L74.4964 87.5626L64.4366 94.7662L68.3348 82.91L58.1133 75.5807H70.7419L74.6401 63.7065L78.5562 75.5807H91.1849L75.143 87.0776Z" fill="white"/>
<path d="M149.207 55.7026H102.734V102.121H149.207V55.7026Z" fill="#00B67A"/>
<path d="M125.962 55.7026H102.734V102.121H125.962V55.7026Z" fill="#00B67A"/>
<path d="M126.055 87.2824L133.258 85.7734L136.132 94.5937L126.055 87.2824ZM142.348 75.4442L115.995 94.5757L119.839 82.7555L109.779 75.4442H122.228L126.073 63.6239L129.917 75.4442H142.348Z" fill="white"/>
<path d="M200.588 55.7026H154.115V102.121H200.588V55.7026Z" fill="#00B67A"/>
<path d="M252.041 55.7026H205.568V102.121H252.041V55.7026Z" fill="#00B67A"/>
<path d="M177.343 55.7026H154.115V102.121H177.343V55.7026Z" fill="#00B67A"/>
<path d="M228.796 55.7026H205.568V102.121H228.796V55.7026Z" fill="#00B67A"/>
<path d="M177.45 87.2824L184.653 85.7734L187.527 94.5937L177.45 87.2824ZM193.725 75.4442L167.372 94.5757L171.216 82.7555L161.156 75.4442H173.605L177.45 63.6239L181.294 75.4442H193.725Z" fill="white"/>
<path d="M228.907 87.2824L236.11 85.7734L238.984 94.5937L228.907 87.2824ZM245.182 75.4442L218.829 94.5757L222.673 82.7555L212.613 75.4442H225.062L228.907 63.6239L232.751 75.4442H245.182Z" fill="white"/>
<path d="M200.657 20.2125H203.188V15.6938H206.515V20.2125H209.527V22.6811H206.515V30.7143C206.515 31.0699 206.535 31.3628 206.556 31.6138C206.577 31.8649 206.661 32.0741 206.766 32.2623C206.87 32.4297 207.038 32.5761 207.247 32.6598C207.477 32.7435 207.749 32.7853 208.125 32.7853C208.355 32.7853 208.607 32.7853 208.837 32.7644C209.067 32.7435 209.318 32.7226 209.548 32.6598V35.233C209.171 35.2748 208.816 35.2957 208.481 35.3585C208.125 35.4003 207.77 35.4212 207.414 35.4212C206.535 35.4212 205.824 35.3375 205.28 35.1702C204.757 35.0028 204.318 34.7518 204.025 34.438C203.711 34.1242 203.523 33.7267 203.397 33.2456C203.293 32.7644 203.23 32.1996 203.209 31.5929V22.7229H200.678V20.2125H200.657ZM192.038 33.0364C192.77 33.0364 193.419 32.869 193.963 32.5761C194.507 32.2623 194.946 31.8649 195.302 31.3628C195.657 30.8607 195.908 30.2959 196.076 29.6683C196.243 29.0407 196.327 28.3922 196.327 27.7227C196.327 27.0742 196.243 26.4466 196.076 25.7981C195.908 25.1496 195.657 24.6057 195.302 24.1036C194.946 23.6015 194.507 23.204 193.963 22.9112C193.419 22.5974 192.77 22.4509 192.038 22.4509C191.306 22.4509 190.657 22.6183 190.113 22.9112C189.569 23.225 189.13 23.6224 188.775 24.1036C188.419 24.6057 188.168 25.1496 188.001 25.7981C187.833 26.4466 187.749 27.0742 187.749 27.7227C187.749 28.3922 187.833 29.0198 188.001 29.6683C188.168 30.2959 188.419 30.8607 188.775 31.3628C189.13 31.8649 189.569 32.2833 190.113 32.5761C190.657 32.8899 191.306 33.0364 192.038 33.0364ZM192.038 35.6723C190.825 35.6723 189.758 35.4631 188.816 35.0656C187.875 34.6681 187.08 34.1033 186.411 33.4129C185.762 32.7017 185.26 31.8649 184.925 30.9025C184.591 29.9402 184.402 28.8524 184.402 27.7018C184.402 26.5512 184.57 25.5052 184.925 24.5429C185.26 23.5806 185.762 22.7438 186.411 22.0325C187.059 21.3213 187.875 20.7773 188.816 20.3799C189.758 19.9824 190.846 19.7732 192.038 19.7732C193.251 19.7732 194.318 19.9824 195.26 20.3799C196.201 20.7773 196.996 21.3422 197.665 22.0325C198.314 22.7438 198.816 23.5806 199.151 24.5429C199.485 25.5052 199.674 26.5721 199.674 27.7018C199.674 28.8524 199.506 29.9402 199.151 30.9025C198.816 31.8649 198.314 32.7017 197.665 33.4129C197.017 34.1242 196.201 34.6681 195.26 35.0656C194.318 35.4631 193.251 35.6723 192.038 35.6723ZM178.482 14.4805H181.808V35.2539H178.482V14.4805ZM172.185 20.2125H175.511V35.2539H172.185V20.2125ZM172.185 14.4805H175.511V17.6184H172.185V14.4805ZM166.286 27.7436C166.286 27.0742 166.202 26.4048 166.014 25.7563C165.846 25.1077 165.574 24.5429 165.219 24.0618C164.863 23.5597 164.424 23.1622 163.901 22.8693C163.378 22.5765 162.771 22.4091 162.081 22.4091C160.679 22.4091 159.612 22.8902 158.901 23.8526C158.19 24.8149 157.834 26.1119 157.834 27.7227C157.834 28.4758 157.918 29.1871 158.106 29.8356C158.294 30.4841 158.566 31.049 158.943 31.5092C159.319 31.9695 159.759 32.346 160.261 32.618C160.784 32.8899 161.39 33.0364 162.06 33.0364C162.834 33.0364 163.462 32.869 163.985 32.5761C164.507 32.2623 164.947 31.8649 165.282 31.3837C165.616 30.8816 165.867 30.3168 166.014 29.6892C166.223 29.0407 166.286 28.4131 166.286 27.7436ZM154.633 20.2125H157.792V22.2417H157.855C158.336 21.3631 158.985 20.7355 159.821 20.3589C160.658 19.9824 161.558 19.7941 162.541 19.7941C163.733 19.7941 164.759 20.0033 165.658 20.4217C166.537 20.8401 167.29 21.4049 167.876 22.1371C168.461 22.8693 168.901 23.727 169.194 24.6894C169.486 25.6517 169.633 26.6977 169.633 27.8064C169.633 28.8106 169.507 29.7938 169.235 30.7352C168.963 31.6766 168.566 32.5134 168.043 33.2456C167.52 33.9778 166.83 34.5426 166.014 35.0028C165.198 35.4422 164.236 35.6514 163.106 35.6514C162.625 35.6514 162.123 35.6095 161.641 35.5258C161.16 35.4422 160.679 35.2957 160.24 35.1074C159.801 34.9192 159.361 34.6681 159.006 34.3543C158.629 34.0405 158.315 33.7058 158.043 33.2874H157.981V40.7976H154.654V20.2125H154.633ZM143.42 20.2125H145.952V15.6938H149.278V20.2125H152.29V22.6811H149.278V30.7143C149.278 31.0699 149.299 31.3628 149.32 31.6138C149.341 31.8649 149.424 32.0741 149.529 32.2623C149.633 32.4297 149.801 32.5761 150.01 32.6598C150.24 32.7435 150.512 32.7853 150.889 32.7853C151.119 32.7853 151.37 32.7853 151.6 32.7644C151.83 32.7435 152.081 32.7226 152.311 32.6598V35.233C151.935 35.2748 151.579 35.2957 151.244 35.3585C150.889 35.4003 150.533 35.4212 150.177 35.4212C149.299 35.4212 148.588 35.3375 148.044 35.1702C147.521 35.0028 147.081 34.7518 146.788 34.438C146.475 34.1242 146.286 33.7267 146.161 33.2456C146.056 32.7644 145.993 32.1996 145.973 31.5929V22.7229H143.441V20.2125H143.42ZM132.416 30.4214C132.521 31.3837 132.898 32.0531 133.525 32.4506C134.174 32.8272 134.948 33.0364 135.847 33.0364C136.161 33.0364 136.517 33.0154 136.914 32.9736C137.312 32.9318 137.688 32.8272 138.044 32.7017C138.4 32.5761 138.672 32.3669 138.923 32.095C139.153 31.823 139.257 31.4883 139.236 31.0699C139.215 30.6515 139.069 30.2959 138.755 30.0239C138.462 29.752 138.086 29.5428 137.625 29.3754C137.165 29.208 136.642 29.0616 136.057 28.957C135.471 28.8315 134.885 28.706 134.278 28.5804C133.651 28.4549 133.044 28.2666 132.479 28.0784C131.914 27.8901 131.391 27.6181 130.931 27.2834C130.471 26.9696 130.115 26.5303 129.843 26.0282C129.571 25.5261 129.425 24.8776 129.425 24.1245C129.425 23.3086 129.634 22.6183 130.032 22.0744C130.429 21.5095 130.952 21.0702 131.559 20.7355C132.186 20.4008 132.856 20.1707 133.609 20.0242C134.362 19.8987 135.094 19.815 135.764 19.815C136.538 19.815 137.291 19.8987 138.002 20.0661C138.713 20.2334 139.362 20.4845 139.927 20.8819C140.492 21.2585 140.973 21.7397 141.349 22.3254C141.726 22.9112 141.977 23.6224 142.081 24.4592H138.609C138.441 23.6643 138.086 23.1204 137.521 22.8693C136.956 22.5974 136.287 22.4509 135.554 22.4509C135.324 22.4509 135.031 22.4718 134.718 22.5137C134.383 22.5555 134.09 22.6392 133.797 22.7229C133.525 22.8275 133.274 22.9948 133.065 23.1831C132.877 23.3923 132.772 23.6434 132.772 23.999C132.772 24.4174 132.919 24.7312 133.191 24.9822C133.462 25.2333 133.839 25.4425 134.299 25.6098C134.759 25.7772 135.282 25.9236 135.868 26.0282C136.454 26.1537 137.061 26.2793 137.688 26.4048C138.295 26.5303 138.881 26.7186 139.466 26.9069C140.052 27.0951 140.575 27.3671 141.035 27.7018C141.496 28.0365 141.851 28.4549 142.144 28.957C142.416 29.4591 142.563 30.0867 142.563 30.8189C142.563 31.7184 142.353 32.4715 141.935 33.0991C141.517 33.7058 140.994 34.2288 140.345 34.6054C139.697 34.9819 138.964 35.2748 138.169 35.4631C137.374 35.6304 136.58 35.735 135.785 35.735C134.822 35.735 133.944 35.6304 133.128 35.4212C132.312 35.212 131.601 34.8773 131.015 34.4589C130.429 34.0196 129.948 33.4757 129.613 32.8272C129.279 32.1787 129.09 31.4046 129.069 30.5051H132.437V30.4214H132.416ZM126.726 35.2539H123.442V33.1619H123.379C122.961 33.915 122.354 34.5217 121.559 34.9819C120.743 35.4422 119.927 35.6723 119.091 35.6723C117.103 35.6723 115.66 35.1911 114.76 34.2079C113.881 33.2246 113.442 31.7393 113.442 29.7729V20.2334H116.768V29.4591C116.768 30.777 117.02 31.7184 117.543 32.2623C118.045 32.8062 118.777 33.0782 119.676 33.0782C120.388 33.0782 120.952 32.9736 121.434 32.7644C121.915 32.5552 122.291 32.2623 122.563 31.9067C122.856 31.5511 123.065 31.1117 123.191 30.6097C123.316 30.1076 123.379 29.5637 123.379 28.9779V20.2543H126.705V35.2539H126.726ZM102.543 20.2125H105.66V23.1204H105.723C105.827 22.702 106.016 22.3045 106.288 21.9279C106.56 21.5514 106.915 21.1748 107.313 20.8819C107.71 20.5681 108.149 20.3171 108.631 20.1079C109.112 19.9196 109.614 19.815 110.116 19.815C110.492 19.815 110.785 19.836 110.932 19.836C111.078 19.836 111.225 19.8778 111.392 19.8987V23.0994C111.162 23.0576 110.911 23.0367 110.66 22.9948C110.409 22.9739 110.179 22.953 109.928 22.953C109.363 22.953 108.84 23.0785 108.338 23.2877C107.836 23.4969 107.417 23.8526 107.041 24.271C106.664 24.7103 106.371 25.2333 106.162 25.8818C105.932 26.5303 105.827 27.2625 105.827 28.0993V35.2539H102.501L102.543 20.2125ZM86.351 14.4805H103.275V17.6184H96.6227V35.2539H92.9617V17.6184H86.3301L86.351 14.4805Z" fill="#404656"/>
<path d="M82.4591 14.4765H67.1667L62.4598 0L57.7318 14.4765L42.4395 14.4556L54.824 23.3884L50.0752 37.844L62.4598 28.9112L74.8234 37.844L70.0955 23.3884L82.4591 14.4765Z" fill="#00B67A"/>
<path d="M71.1616 26.6721L70.0947 23.3877L62.459 28.9105L71.1616 26.6721Z" fill="#005128"/>
</svg>
