<svg width="296" height="21" viewBox="0 0 296 21" fill="none" xmlns="http://www.w3.org/2000/svg">
<path d="M0 3H9.46863V4.92857H2.30268V8.26786H8.9344V10.0893H2.30268V13.8214H9.59758V15.75H0V3Z" fill="#404656"/>
<path d="M13.8692 10.8929L10.5718 6.51786H13.1139L15.1034 9.35714L17.1851 6.51786H19.6167L16.3745 10.7857L20.022 15.75H17.4982L15.085 12.3393L12.7455 15.75H10.277L13.8692 10.8929Z" fill="#404656"/>
<path d="M27.632 9.60714C27.5461 9.03571 27.3066 8.60714 26.9136 8.32143C26.5329 8.02381 26.0478 7.875 25.4583 7.875C25.1881 7.875 24.8995 7.92262 24.5925 8.01786C24.2855 8.10119 24.003 8.26786 23.7451 8.51786C23.4872 8.75595 23.2723 9.09524 23.1004 9.53571C22.9284 9.96429 22.8425 10.5298 22.8425 11.2321C22.8425 11.6131 22.8854 11.994 22.9714 12.375C23.0697 12.756 23.217 13.0952 23.4135 13.3929C23.6223 13.6905 23.8863 13.9345 24.2056 14.125C24.525 14.3036 24.9118 14.3929 25.3662 14.3929C25.9802 14.3929 26.4838 14.2083 26.8768 13.8393C27.282 13.4702 27.5338 12.9524 27.632 12.2857H29.7321C29.5356 13.4881 29.0628 14.4107 28.3136 15.0536C27.5768 15.6845 26.5943 16 25.3662 16C24.6171 16 23.9539 15.881 23.3767 15.6429C22.8118 15.3929 22.3328 15.0595 21.9398 14.6429C21.5468 14.2143 21.2459 13.7083 21.0372 13.125C20.8407 12.5417 20.7424 11.9107 20.7424 11.2321C20.7424 10.5417 20.8407 9.89286 21.0372 9.28571C21.2337 8.67857 21.5284 8.15476 21.9214 7.71429C22.3144 7.2619 22.7995 6.91071 23.3767 6.66071C23.9662 6.39881 24.6539 6.26786 25.4399 6.26786C25.9925 6.26786 26.5145 6.33929 27.0057 6.48214C27.5092 6.6131 27.9513 6.81548 28.332 7.08929C28.725 7.3631 29.0443 7.70833 29.29 8.125C29.5356 8.54167 29.683 9.03571 29.7321 9.60714H27.632Z" fill="#404656"/>
<path d="M37.9787 10.3214C37.9541 10 37.8805 9.69048 37.7576 9.39286C37.6471 9.09524 37.4875 8.83929 37.2787 8.625C37.0822 8.39881 36.8366 8.22024 36.5418 8.08929C36.2594 7.94643 35.9401 7.875 35.5839 7.875C35.2155 7.875 34.8778 7.94048 34.5707 8.07143C34.276 8.19048 34.0181 8.36309 33.797 8.58929C33.5883 8.80357 33.4163 9.05952 33.2812 9.35714C33.1584 9.65476 33.0909 9.97619 33.0786 10.3214H37.9787ZM33.0786 11.6607C33.0786 12.0179 33.1277 12.3631 33.226 12.6964C33.3365 13.0298 33.4961 13.3214 33.7049 13.5714C33.9137 13.8214 34.1777 14.0238 34.497 14.1786C34.8163 14.3214 35.1971 14.3929 35.6392 14.3929C36.2532 14.3929 36.7445 14.2679 37.1129 14.0179C37.4936 13.756 37.7761 13.369 37.9603 12.8571H39.9498C39.8393 13.3571 39.6489 13.8036 39.3787 14.1964C39.1085 14.5893 38.7831 14.9226 38.4024 15.1964C38.0217 15.4583 37.5919 15.6548 37.1129 15.7857C36.6462 15.9286 36.155 16 35.6392 16C34.89 16 34.2269 15.881 33.6497 15.6429C33.0725 15.4048 32.5812 15.0714 32.1759 14.6429C31.783 14.2143 31.4821 13.7024 31.2733 13.1071C31.0768 12.5119 30.9785 11.8571 30.9785 11.1429C30.9785 10.4881 31.0829 9.86905 31.2917 9.28571C31.5128 8.69048 31.8198 8.17262 32.2128 7.73214C32.6181 7.27976 33.1032 6.92262 33.6681 6.66071C34.233 6.39881 34.8716 6.26786 35.5839 6.26786C36.333 6.26786 37.0024 6.42262 37.5919 6.73214C38.1936 7.02976 38.691 7.42857 39.084 7.92857C39.477 8.42857 39.7594 9.00595 39.9314 9.66071C40.1156 10.3036 40.1647 10.9702 40.0787 11.6607H33.0786Z" fill="#404656"/>
<path d="M41.7305 3H43.8305V15.75H41.7305V3Z" fill="#404656"/>
<path d="M46.1739 3H48.274V15.75H46.1739V3Z" fill="#404656"/>
<path d="M57.1018 10.3214C57.0772 10 57.0035 9.69048 56.8807 9.39286C56.7702 9.09524 56.6105 8.83929 56.4017 8.625C56.2052 8.39881 55.9596 8.22024 55.6649 8.08929C55.3824 7.94643 55.0631 7.875 54.707 7.875C54.3385 7.875 54.0008 7.94048 53.6938 8.07143C53.399 8.19048 53.1411 8.36309 52.9201 8.58929C52.7113 8.80357 52.5394 9.05952 52.4043 9.35714C52.2815 9.65476 52.2139 9.97619 52.2016 10.3214H57.1018ZM52.2016 11.6607C52.2016 12.0179 52.2508 12.3631 52.349 12.6964C52.4595 13.0298 52.6192 13.3214 52.828 13.5714C53.0368 13.8214 53.3008 14.0238 53.6201 14.1786C53.9394 14.3214 54.3201 14.3929 54.7622 14.3929C55.3763 14.3929 55.8675 14.2679 56.2359 14.0179C56.6167 13.756 56.8991 13.369 57.0833 12.8571H59.0728C58.9623 13.3571 58.772 13.8036 58.5018 14.1964C58.2316 14.5893 57.9062 14.9226 57.5254 15.1964C57.1447 15.4583 56.7149 15.6548 56.2359 15.7857C55.7693 15.9286 55.278 16 54.7622 16C54.0131 16 53.3499 15.881 52.7727 15.6429C52.1955 15.4048 51.7043 15.0714 51.299 14.6429C50.906 14.2143 50.6051 13.7024 50.3963 13.1071C50.1998 12.5119 50.1016 11.8571 50.1016 11.1429C50.1016 10.4881 50.206 9.86905 50.4148 9.28571C50.6358 8.69048 50.9428 8.17262 51.3358 7.73214C51.7411 7.27976 52.2262 6.92262 52.7911 6.66071C53.3561 6.39881 53.9947 6.26786 54.707 6.26786C55.4561 6.26786 56.1254 6.42262 56.7149 6.73214C57.3167 7.02976 57.814 7.42857 58.207 7.92857C58.6 8.42857 58.8825 9.00595 59.0544 9.66071C59.2386 10.3036 59.2878 10.9702 59.2018 11.6607H52.2016Z" fill="#404656"/>
<path d="M60.7983 6.51786H62.7878V7.875L62.8246 7.91071C63.1439 7.39881 63.5615 7 64.0773 6.71429C64.5931 6.41667 65.1642 6.26786 65.7905 6.26786C66.8344 6.26786 67.6572 6.52976 68.259 7.05357C68.8607 7.57738 69.1616 8.3631 69.1616 9.41071V15.75H67.0616V9.94643C67.037 9.22024 66.8773 8.69643 66.5826 8.375C66.2879 8.04167 65.8273 7.875 65.201 7.875C64.8449 7.875 64.5256 7.94048 64.2431 8.07143C63.9606 8.19048 63.7211 8.36309 63.5246 8.58929C63.3282 8.80357 63.1746 9.05952 63.0641 9.35714C62.9536 9.65476 62.8983 9.97024 62.8983 10.3036V15.75H60.7983V6.51786Z" fill="#404656"/>
<path d="M70.4183 6.51786H72.0025V3.75H74.1026V6.51786H76V8.03571H74.1026V12.9643C74.1026 13.1786 74.1087 13.3631 74.121 13.5179C74.1456 13.6726 74.1886 13.8036 74.25 13.9107C74.3236 14.0179 74.428 14.1012 74.5631 14.1607C74.6982 14.2083 74.8824 14.2321 75.1158 14.2321C75.2631 14.2321 75.4105 14.2321 75.5579 14.2321C75.7053 14.2202 75.8526 14.1964 76 14.1607V15.7321C75.7667 15.756 75.5395 15.7798 75.3184 15.8036C75.0974 15.8274 74.8702 15.8393 74.6368 15.8393C74.0842 15.8393 73.6359 15.7917 73.292 15.6964C72.9605 15.5893 72.6964 15.4405 72.4999 15.25C72.3157 15.0476 72.1868 14.7976 72.1131 14.5C72.0517 14.2024 72.0148 13.8631 72.0025 13.4821V8.03571H70.4183V6.51786Z" fill="#404656"/>
<path d="M111.29 0H91V20.2667H111.29V0Z" fill="#00B67A"/>
<path d="M101.188 13.7884L104.333 13.1296L105.588 16.9806L101.188 13.7884ZM108.294 8.61977L96.7879 16.9727L98.4664 11.8119L94.0742 8.61977H99.5095L101.188 3.45898L102.866 8.61977H108.294Z" fill="white"/>
<path d="M133.714 0H113.424V20.2667H133.714V0Z" fill="#00B67A"/>
<path d="M123.565 0H113.424V20.2667H123.565V0Z" fill="#00B67A"/>
<path d="M123.808 13.702L126.499 13.1216L127.746 17.0588L123.526 13.9137L119.134 17.0588L120.836 11.8824L116.373 8.68236H121.887L123.589 3.49805L125.299 8.68236H130.812L123.808 13.702Z" fill="white"/>
<path d="M156.146 0H135.855V20.2667H156.146V0Z" fill="#00B67A"/>
<path d="M145.997 0H135.855V20.2667H145.997V0Z" fill="#00B67A"/>
<path d="M146.036 13.7884L149.181 13.1296L150.436 16.9806L146.036 13.7884ZM153.149 8.61977L141.643 16.9727L143.322 11.8119L138.93 8.61977H144.365L146.043 3.45898L147.722 8.61977H153.149Z" fill="white"/>
<path d="M178.577 0H158.287V20.2667H178.577V0Z" fill="#00B67A"/>
<path d="M168.428 0H158.287V20.2667H168.428V0Z" fill="#00B67A"/>
<path d="M168.475 13.7884L171.62 13.1296L172.875 16.9806L168.475 13.7884ZM175.581 8.61977L164.075 16.9727L165.753 11.8119L161.361 8.61977H166.797L168.475 3.45898L170.154 8.61977H175.581Z" fill="white"/>
<path d="M200.999 0H180.709V20.2667H200.999V0Z" fill="#DCDCE6"/>
<path d="M190.85 0H180.709V20.2667H190.85V0Z" fill="#00B67A"/>
<path d="M190.891 13.7884L194.036 13.1296L195.291 16.9806L190.891 13.7884ZM198.005 8.61977L186.499 16.9727L188.177 11.8119L183.785 8.61977H189.22L190.899 3.45898L192.577 8.61977H198.005Z" fill="white"/>
<path d="M291.63 9.65992H292.84V7.49992H294.43V9.65992H295.87V10.8399H294.43V14.6799C294.43 14.8499 294.44 14.9899 294.45 15.1099C294.46 15.2299 294.5 15.3299 294.55 15.4199C294.6 15.4999 294.68 15.5699 294.78 15.6099C294.89 15.6499 295.02 15.6699 295.2 15.6699C295.31 15.6699 295.43 15.6699 295.54 15.6599C295.65 15.6499 295.77 15.6399 295.88 15.6099V16.8399C295.7 16.8599 295.53 16.8699 295.37 16.8999C295.2 16.9199 295.03 16.9299 294.86 16.9299C294.44 16.9299 294.1 16.8899 293.84 16.8099C293.59 16.7299 293.38 16.6099 293.24 16.4599C293.09 16.3099 293 16.1199 292.94 15.8899C292.89 15.6599 292.86 15.3899 292.85 15.0999V10.8599H291.64V9.65992H291.63ZM287.51 15.7899C287.86 15.7899 288.17 15.7099 288.43 15.5699C288.69 15.4199 288.9 15.2299 289.07 14.9899C289.24 14.7499 289.36 14.4799 289.44 14.1799C289.52 13.8799 289.56 13.5699 289.56 13.2499C289.56 12.9399 289.52 12.6399 289.44 12.3299C289.36 12.0199 289.24 11.7599 289.07 11.5199C288.9 11.2799 288.69 11.0899 288.43 10.9499C288.17 10.7999 287.86 10.7299 287.51 10.7299C287.16 10.7299 286.85 10.8099 286.59 10.9499C286.33 11.0999 286.12 11.2899 285.95 11.5199C285.78 11.7599 285.66 12.0199 285.58 12.3299C285.5 12.6399 285.46 12.9399 285.46 13.2499C285.46 13.5699 285.5 13.8699 285.58 14.1799C285.66 14.4799 285.78 14.7499 285.95 14.9899C286.12 15.2299 286.33 15.4299 286.59 15.5699C286.85 15.7199 287.16 15.7899 287.51 15.7899ZM287.51 17.0499C286.93 17.0499 286.42 16.9499 285.97 16.7599C285.52 16.5699 285.14 16.2999 284.82 15.9699C284.51 15.6299 284.27 15.2299 284.11 14.7699C283.95 14.3099 283.86 13.7899 283.86 13.2399C283.86 12.6899 283.94 12.1899 284.11 11.7299C284.27 11.2699 284.51 10.8699 284.82 10.5299C285.13 10.1899 285.52 9.92992 285.97 9.73992C286.42 9.54992 286.94 9.44992 287.51 9.44992C288.09 9.44992 288.6 9.54992 289.05 9.73992C289.5 9.92992 289.88 10.1999 290.2 10.5299C290.51 10.8699 290.75 11.2699 290.91 11.7299C291.07 12.1899 291.16 12.6999 291.16 13.2399C291.16 13.7899 291.08 14.3099 290.91 14.7699C290.75 15.2299 290.51 15.6299 290.2 15.9699C289.89 16.3099 289.5 16.5699 289.05 16.7599C288.6 16.9499 288.09 17.0499 287.51 17.0499ZM281.03 6.91992H282.62V16.8499H281.03V6.91992ZM278.02 9.65992H279.61V16.8499H278.02V9.65992ZM278.02 6.91992H279.61V8.41992H278.02V6.91992ZM275.2 13.2599C275.2 12.9399 275.16 12.6199 275.07 12.3099C274.99 11.9999 274.86 11.7299 274.69 11.4999C274.52 11.2599 274.31 11.0699 274.06 10.9299C273.81 10.7899 273.52 10.7099 273.19 10.7099C272.52 10.7099 272.01 10.9399 271.67 11.3999C271.33 11.8599 271.16 12.4799 271.16 13.2499C271.16 13.6099 271.2 13.9499 271.29 14.2599C271.38 14.5699 271.51 14.8399 271.69 15.0599C271.87 15.2799 272.08 15.4599 272.32 15.5899C272.57 15.7199 272.86 15.7899 273.18 15.7899C273.55 15.7899 273.85 15.7099 274.1 15.5699C274.35 15.4199 274.56 15.2299 274.72 14.9999C274.88 14.7599 275 14.4899 275.07 14.1899C275.17 13.8799 275.2 13.5799 275.2 13.2599ZM269.63 9.65992H271.14V10.6299H271.17C271.4 10.2099 271.71 9.90992 272.11 9.72992C272.51 9.54992 272.94 9.45992 273.41 9.45992C273.98 9.45992 274.47 9.55992 274.9 9.75992C275.32 9.95992 275.68 10.2299 275.96 10.5799C276.24 10.9299 276.45 11.3399 276.59 11.7999C276.73 12.2599 276.8 12.7599 276.8 13.2899C276.8 13.7699 276.74 14.2399 276.61 14.6899C276.48 15.1399 276.29 15.5399 276.04 15.8899C275.79 16.2399 275.46 16.5099 275.07 16.7299C274.68 16.9399 274.22 17.0399 273.68 17.0399C273.45 17.0399 273.21 17.0199 272.98 16.9799C272.75 16.9399 272.52 16.8699 272.31 16.7799C272.1 16.6899 271.89 16.5699 271.72 16.4199C271.54 16.2699 271.39 16.1099 271.26 15.9099H271.23V19.4999H269.64V9.65992H269.63ZM264.27 9.65992H265.48V7.49992H267.07V9.65992H268.51V10.8399H267.07V14.6799C267.07 14.8499 267.08 14.9899 267.09 15.1099C267.1 15.2299 267.14 15.3299 267.19 15.4199C267.24 15.4999 267.32 15.5699 267.42 15.6099C267.53 15.6499 267.66 15.6699 267.84 15.6699C267.95 15.6699 268.07 15.6699 268.18 15.6599C268.29 15.6499 268.41 15.6399 268.52 15.6099V16.8399C268.34 16.8599 268.17 16.8699 268.01 16.8999C267.84 16.9199 267.67 16.9299 267.5 16.9299C267.08 16.9299 266.74 16.8899 266.48 16.8099C266.23 16.7299 266.02 16.6099 265.88 16.4599C265.73 16.3099 265.64 16.1199 265.58 15.8899C265.53 15.6599 265.5 15.3899 265.49 15.0999V10.8599H264.28V9.65992H264.27ZM259.01 14.5399C259.06 14.9999 259.24 15.3199 259.54 15.5099C259.85 15.6899 260.22 15.7899 260.65 15.7899C260.8 15.7899 260.97 15.7799 261.16 15.7599C261.35 15.7399 261.53 15.6899 261.7 15.6299C261.87 15.5699 262 15.4699 262.12 15.3399C262.23 15.2099 262.28 15.0499 262.27 14.8499C262.26 14.6499 262.19 14.4799 262.04 14.3499C261.9 14.2199 261.72 14.1199 261.5 14.0399C261.28 13.9599 261.03 13.8899 260.75 13.8399C260.47 13.7799 260.19 13.7199 259.9 13.6599C259.6 13.5999 259.31 13.5099 259.04 13.4199C258.77 13.3299 258.52 13.1999 258.3 13.0399C258.08 12.8899 257.91 12.6799 257.78 12.4399C257.65 12.1999 257.58 11.8899 257.58 11.5299C257.58 11.1399 257.68 10.8099 257.87 10.5499C258.06 10.2799 258.31 10.0699 258.6 9.90992C258.9 9.74992 259.22 9.63992 259.58 9.56992C259.94 9.50992 260.29 9.46992 260.61 9.46992C260.98 9.46992 261.34 9.50992 261.68 9.58992C262.02 9.66992 262.33 9.78992 262.6 9.97992C262.87 10.1599 263.1 10.3899 263.28 10.6699C263.46 10.9499 263.58 11.2899 263.63 11.6899H261.97C261.89 11.3099 261.72 11.0499 261.45 10.9299C261.18 10.7999 260.86 10.7299 260.51 10.7299C260.4 10.7299 260.26 10.7399 260.11 10.7599C259.95 10.7799 259.81 10.8199 259.67 10.8599C259.54 10.9099 259.42 10.9899 259.32 11.0799C259.23 11.1799 259.18 11.2999 259.18 11.4699C259.18 11.6699 259.25 11.8199 259.38 11.9399C259.51 12.0599 259.69 12.1599 259.91 12.2399C260.13 12.3199 260.38 12.3899 260.66 12.4399C260.94 12.4999 261.23 12.5599 261.53 12.6199C261.82 12.6799 262.1 12.7699 262.38 12.8599C262.66 12.9499 262.91 13.0799 263.13 13.2399C263.35 13.3999 263.52 13.5999 263.66 13.8399C263.79 14.0799 263.86 14.3799 263.86 14.7299C263.86 15.1599 263.76 15.5199 263.56 15.8199C263.36 16.1099 263.11 16.3599 262.8 16.5399C262.49 16.7199 262.14 16.8599 261.76 16.9499C261.38 17.0299 261 17.0799 260.62 17.0799C260.16 17.0799 259.74 17.0299 259.35 16.9299C258.96 16.8299 258.62 16.6699 258.34 16.4699C258.06 16.2599 257.83 15.9999 257.67 15.6899C257.51 15.3799 257.42 15.0099 257.41 14.5799H259.02V14.5399H259.01ZM256.29 16.8499H254.72V15.8499H254.69C254.49 16.2099 254.2 16.4999 253.82 16.7199C253.43 16.9399 253.04 17.0499 252.64 17.0499C251.69 17.0499 251 16.8199 250.57 16.3499C250.15 15.8799 249.94 15.1699 249.94 14.2299V9.66992H251.53V14.0799C251.53 14.7099 251.65 15.1599 251.9 15.4199C252.14 15.6799 252.49 15.8099 252.92 15.8099C253.26 15.8099 253.53 15.7599 253.76 15.6599C253.99 15.5599 254.17 15.4199 254.3 15.2499C254.44 15.0799 254.54 14.8699 254.6 14.6299C254.66 14.3899 254.69 14.1299 254.69 13.8499V9.67992H256.28V16.8499H256.29ZM244.73 9.65992H246.22V11.0499H246.25C246.3 10.8499 246.39 10.6599 246.52 10.4799C246.65 10.2999 246.82 10.1199 247.01 9.97992C247.2 9.82992 247.41 9.70992 247.64 9.60992C247.87 9.51992 248.11 9.46992 248.35 9.46992C248.53 9.46992 248.67 9.47992 248.74 9.47992C248.81 9.47992 248.88 9.49992 248.96 9.50992V11.0399C248.85 11.0199 248.73 11.0099 248.61 10.9899C248.49 10.9799 248.38 10.9699 248.26 10.9699C247.99 10.9699 247.74 11.0299 247.5 11.1299C247.26 11.2299 247.06 11.3999 246.88 11.5999C246.7 11.8099 246.56 12.0599 246.46 12.3699C246.35 12.6799 246.3 13.0299 246.3 13.4299V16.8499H244.71L244.73 9.65992ZM236.99 6.91992H245.08V8.41992H241.9V16.8499H240.15V8.41992H236.98L236.99 6.91992Z" fill="#404656"/>
<path d="M235.13 6.92H227.82L225.57 0L223.31 6.92L216 6.91L221.92 11.18L219.65 18.09L225.57 13.82L231.48 18.09L229.22 11.18L235.13 6.92Z" fill="#00B67A"/>
<path d="M229.73 12.7499L229.22 11.1799L225.57 13.8199L229.73 12.7499Z" fill="#005128"/>
</svg>
