<svg width="80" height="20" viewBox="0 0 80 20" fill="none" xmlns="http://www.w3.org/2000/svg">
<path d="M75.6305 9.65992H76.8405V7.49992H78.4305V9.65992H79.8705V10.8399H78.4305V14.6799C78.4305 14.8499 78.4405 14.9899 78.4505 15.1099C78.4605 15.2299 78.5005 15.3299 78.5505 15.4199C78.6005 15.4999 78.6805 15.5699 78.7805 15.6099C78.8905 15.6499 79.0205 15.6699 79.2005 15.6699C79.3105 15.6699 79.4305 15.6699 79.5405 15.6599C79.6505 15.6499 79.7705 15.6399 79.8805 15.6099V16.8399C79.7005 16.8599 79.5305 16.8699 79.3705 16.8999C79.2005 16.9199 79.0305 16.9299 78.8605 16.9299C78.4405 16.9299 78.1005 16.8899 77.8405 16.8099C77.5905 16.7299 77.3805 16.6099 77.2405 16.4599C77.0905 16.3099 77.0005 16.1199 76.9405 15.8899C76.8905 15.6599 76.8605 15.3899 76.8505 15.0999V10.8599H75.6405V9.65992H75.6305ZM71.5105 15.7899C71.8605 15.7899 72.1705 15.7099 72.4305 15.5699C72.6905 15.4199 72.9005 15.2299 73.0705 14.9899C73.2405 14.7499 73.3605 14.4799 73.4405 14.1799C73.5205 13.8799 73.5605 13.5699 73.5605 13.2499C73.5605 12.9399 73.5205 12.6399 73.4405 12.3299C73.3605 12.0199 73.2405 11.7599 73.0705 11.5199C72.9005 11.2799 72.6905 11.0899 72.4305 10.9499C72.1705 10.7999 71.8605 10.7299 71.5105 10.7299C71.1605 10.7299 70.8505 10.8099 70.5905 10.9499C70.3305 11.0999 70.1205 11.2899 69.9505 11.5199C69.7805 11.7599 69.6605 12.0199 69.5805 12.3299C69.5005 12.6399 69.4605 12.9399 69.4605 13.2499C69.4605 13.5699 69.5005 13.8699 69.5805 14.1799C69.6605 14.4799 69.7805 14.7499 69.9505 14.9899C70.1205 15.2299 70.3305 15.4299 70.5905 15.5699C70.8505 15.7199 71.1605 15.7899 71.5105 15.7899ZM71.5105 17.0499C70.9305 17.0499 70.4205 16.9499 69.9705 16.7599C69.5205 16.5699 69.1405 16.2999 68.8205 15.9699C68.5105 15.6299 68.2705 15.2299 68.1105 14.7699C67.9505 14.3099 67.8605 13.7899 67.8605 13.2399C67.8605 12.6899 67.9405 12.1899 68.1105 11.7299C68.2705 11.2699 68.5105 10.8699 68.8205 10.5299C69.1305 10.1899 69.5205 9.92992 69.9705 9.73992C70.4205 9.54992 70.9405 9.44992 71.5105 9.44992C72.0905 9.44992 72.6005 9.54992 73.0505 9.73992C73.5005 9.92992 73.8805 10.1999 74.2005 10.5299C74.5105 10.8699 74.7505 11.2699 74.9105 11.7299C75.0705 12.1899 75.1605 12.6999 75.1605 13.2399C75.1605 13.7899 75.0805 14.3099 74.9105 14.7699C74.7505 15.2299 74.5105 15.6299 74.2005 15.9699C73.8905 16.3099 73.5005 16.5699 73.0505 16.7599C72.6005 16.9499 72.0905 17.0499 71.5105 17.0499ZM65.0305 6.91992H66.6205V16.8499H65.0305V6.91992ZM62.0205 9.65992H63.6105V16.8499H62.0205V9.65992ZM62.0205 6.91992H63.6105V8.41992H62.0205V6.91992ZM59.2005 13.2599C59.2005 12.9399 59.1605 12.6199 59.0705 12.3099C58.9905 11.9999 58.8605 11.7299 58.6905 11.4999C58.5205 11.2599 58.3105 11.0699 58.0605 10.9299C57.8105 10.7899 57.5205 10.7099 57.1905 10.7099C56.5205 10.7099 56.0105 10.9399 55.6705 11.3999C55.3305 11.8599 55.1605 12.4799 55.1605 13.2499C55.1605 13.6099 55.2005 13.9499 55.2905 14.2599C55.3805 14.5699 55.5105 14.8399 55.6905 15.0599C55.8705 15.2799 56.0805 15.4599 56.3205 15.5899C56.5705 15.7199 56.8605 15.7899 57.1805 15.7899C57.5505 15.7899 57.8505 15.7099 58.1005 15.5699C58.3505 15.4199 58.5605 15.2299 58.7205 14.9999C58.8805 14.7599 59.0005 14.4899 59.0705 14.1899C59.1705 13.8799 59.2005 13.5799 59.2005 13.2599ZM53.6305 9.65992H55.1405V10.6299H55.1705C55.4005 10.2099 55.7105 9.90992 56.1105 9.72992C56.5105 9.54992 56.9405 9.45992 57.4105 9.45992C57.9805 9.45992 58.4705 9.55992 58.9005 9.75992C59.3205 9.95992 59.6805 10.2299 59.9605 10.5799C60.2405 10.9299 60.4505 11.3399 60.5905 11.7999C60.7305 12.2599 60.8005 12.7599 60.8005 13.2899C60.8005 13.7699 60.7405 14.2399 60.6105 14.6899C60.4805 15.1399 60.2905 15.5399 60.0405 15.8899C59.7905 16.2399 59.4605 16.5099 59.0705 16.7299C58.6805 16.9399 58.2205 17.0399 57.6805 17.0399C57.4505 17.0399 57.2105 17.0199 56.9805 16.9799C56.7505 16.9399 56.5205 16.8699 56.3105 16.7799C56.1005 16.6899 55.8905 16.5699 55.7205 16.4199C55.5405 16.2699 55.3905 16.1099 55.2605 15.9099H55.2305V19.4999H53.6405V9.65992H53.6305ZM48.2705 9.65992H49.4805V7.49992H51.0705V9.65992H52.5105V10.8399H51.0705V14.6799C51.0705 14.8499 51.0805 14.9899 51.0905 15.1099C51.1005 15.2299 51.1405 15.3299 51.1905 15.4199C51.2405 15.4999 51.3205 15.5699 51.4205 15.6099C51.5305 15.6499 51.6605 15.6699 51.8405 15.6699C51.9505 15.6699 52.0705 15.6699 52.1805 15.6599C52.2905 15.6499 52.4105 15.6399 52.5205 15.6099V16.8399C52.3405 16.8599 52.1705 16.8699 52.0105 16.8999C51.8405 16.9199 51.6705 16.9299 51.5005 16.9299C51.0805 16.9299 50.7405 16.8899 50.4805 16.8099C50.2305 16.7299 50.0205 16.6099 49.8805 16.4599C49.7305 16.3099 49.6405 16.1199 49.5805 15.8899C49.5305 15.6599 49.5005 15.3899 49.4905 15.0999V10.8599H48.2805V9.65992H48.2705ZM43.0105 14.5399C43.0605 14.9999 43.2405 15.3199 43.5405 15.5099C43.8505 15.6899 44.2205 15.7899 44.6505 15.7899C44.8005 15.7899 44.9705 15.7799 45.1605 15.7599C45.3505 15.7399 45.5305 15.6899 45.7005 15.6299C45.8705 15.5699 46.0005 15.4699 46.1205 15.3399C46.2305 15.2099 46.2805 15.0499 46.2705 14.8499C46.2605 14.6499 46.1905 14.4799 46.0405 14.3499C45.9005 14.2199 45.7205 14.1199 45.5005 14.0399C45.2805 13.9599 45.0305 13.8899 44.7505 13.8399C44.4705 13.7799 44.1905 13.7199 43.9005 13.6599C43.6005 13.5999 43.3105 13.5099 43.0405 13.4199C42.7705 13.3299 42.5205 13.1999 42.3005 13.0399C42.0805 12.8899 41.9105 12.6799 41.7805 12.4399C41.6505 12.1999 41.5805 11.8899 41.5805 11.5299C41.5805 11.1399 41.6805 10.8099 41.8705 10.5499C42.0605 10.2799 42.3105 10.0699 42.6005 9.90992C42.9005 9.74992 43.2205 9.63992 43.5805 9.56992C43.9405 9.50992 44.2905 9.46992 44.6105 9.46992C44.9805 9.46992 45.3405 9.50992 45.6805 9.58992C46.0205 9.66992 46.3305 9.78992 46.6005 9.97992C46.8705 10.1599 47.1005 10.3899 47.2805 10.6699C47.4605 10.9499 47.5805 11.2899 47.6305 11.6899H45.9705C45.8905 11.3099 45.7205 11.0499 45.4505 10.9299C45.1805 10.7999 44.8605 10.7299 44.5105 10.7299C44.4005 10.7299 44.2605 10.7399 44.1105 10.7599C43.9505 10.7799 43.8105 10.8199 43.6705 10.8599C43.5405 10.9099 43.4205 10.9899 43.3205 11.0799C43.2305 11.1799 43.1805 11.2999 43.1805 11.4699C43.1805 11.6699 43.2505 11.8199 43.3805 11.9399C43.5105 12.0599 43.6905 12.1599 43.9105 12.2399C44.1305 12.3199 44.3805 12.3899 44.6605 12.4399C44.9405 12.4999 45.2305 12.5599 45.5305 12.6199C45.8205 12.6799 46.1005 12.7699 46.3805 12.8599C46.6605 12.9499 46.9105 13.0799 47.1305 13.2399C47.3505 13.3999 47.5205 13.5999 47.6605 13.8399C47.7905 14.0799 47.8605 14.3799 47.8605 14.7299C47.8605 15.1599 47.7605 15.5199 47.5605 15.8199C47.3605 16.1099 47.1105 16.3599 46.8005 16.5399C46.4905 16.7199 46.1405 16.8599 45.7605 16.9499C45.3805 17.0299 45.0005 17.0799 44.6205 17.0799C44.1605 17.0799 43.7405 17.0299 43.3505 16.9299C42.9605 16.8299 42.6205 16.6699 42.3405 16.4699C42.0605 16.2599 41.8305 15.9999 41.6705 15.6899C41.5105 15.3799 41.4205 15.0099 41.4105 14.5799H43.0205V14.5399H43.0105ZM40.2905 16.8499H38.7205V15.8499H38.6905C38.4905 16.2099 38.2005 16.4999 37.8205 16.7199C37.4305 16.9399 37.0405 17.0499 36.6405 17.0499C35.6905 17.0499 35.0005 16.8199 34.5705 16.3499C34.1505 15.8799 33.9405 15.1699 33.9405 14.2299V9.66992H35.5305V14.0799C35.5305 14.7099 35.6505 15.1599 35.9005 15.4199C36.1405 15.6799 36.4905 15.8099 36.9205 15.8099C37.2605 15.8099 37.5305 15.7599 37.7605 15.6599C37.9905 15.5599 38.1705 15.4199 38.3005 15.2499C38.4405 15.0799 38.5405 14.8699 38.6005 14.6299C38.6605 14.3899 38.6905 14.1299 38.6905 13.8499V9.67992H40.2805V16.8499H40.2905ZM28.7305 9.65992H30.2205V11.0499H30.2505C30.3005 10.8499 30.3905 10.6599 30.5205 10.4799C30.6505 10.2999 30.8205 10.1199 31.0105 9.97992C31.2005 9.82992 31.4105 9.70992 31.6405 9.60992C31.8705 9.51992 32.1105 9.46992 32.3505 9.46992C32.5305 9.46992 32.6705 9.47992 32.7405 9.47992C32.8105 9.47992 32.8805 9.49992 32.9605 9.50992V11.0399C32.8505 11.0199 32.7305 11.0099 32.6105 10.9899C32.4905 10.9799 32.3805 10.9699 32.2605 10.9699C31.9905 10.9699 31.7405 11.0299 31.5005 11.1299C31.2605 11.2299 31.0605 11.3999 30.8805 11.5999C30.7005 11.8099 30.5605 12.0599 30.4605 12.3699C30.3505 12.6799 30.3005 13.0299 30.3005 13.4299V16.8499H28.7105L28.7305 9.65992ZM20.9905 6.91992H29.0805V8.41992H25.9005V16.8499H24.1505V8.41992H20.9805L20.9905 6.91992Z" fill="#404656"/>
<path d="M19.13 6.92H11.82L9.57001 0L7.31 6.92L0 6.91L5.92001 11.18L3.65002 18.09L9.57001 13.82L15.48 18.09L13.22 11.18L19.13 6.92Z" fill="#00B67A"/>
<path d="M13.7303 12.7499L13.2203 11.1799L9.57031 13.8199L13.7303 12.7499Z" fill="#005128"/>
</svg>
